<?xml version="1.0" encoding="UTF-8" standalone="no"?>
<!-- Created with Inkscape (http://www.inkscape.org/) -->

<svg
   xmlns:dc="http://purl.org/dc/elements/1.1/"
   xmlns:cc="http://creativecommons.org/ns#"
   xmlns:rdf="http://www.w3.org/1999/02/22-rdf-syntax-ns#"
   xmlns:svg="http://www.w3.org/2000/svg"
   xmlns="http://www.w3.org/2000/svg"
   xmlns:sodipodi="http://sodipodi.sourceforge.net/DTD/sodipodi-0.dtd"
   xmlns:inkscape="http://www.inkscape.org/namespaces/inkscape"
   id="svg2"
   version="1.1"
   inkscape:version="0.48.4 r9939"
   width="525"
   height="393.75"
   xml:space="preserve"
   sodipodi:docname="many_other_norm_on_mu.svg"><metadata
     id="metadata8"><rdf:RDF><cc:Work
         rdf:about=""><dc:format>image/svg+xml</dc:format><dc:type
           rdf:resource="http://purl.org/dc/dcmitype/StillImage" /><dc:title></dc:title></cc:Work></rdf:RDF></metadata><defs
     id="defs6"><inkscape:path-effect
       effect="spiro"
       id="path-effect66189"
       is_visible="true" /><inkscape:path-effect
       effect="spiro"
       id="path-effect66178"
       is_visible="true" /><inkscape:path-effect
       effect="spiro"
       id="path-effect66174"
       is_visible="true" /><inkscape:path-effect
       effect="spiro"
       id="path-effect66170"
       is_visible="true" /><inkscape:path-effect
       effect="spiro"
       id="path-effect66161"
       is_visible="true" /><inkscape:path-effect
       effect="spiro"
       id="path-effect66157"
       is_visible="true" /><inkscape:path-effect
       effect="spiro"
       id="path-effect66153"
       is_visible="true" /><inkscape:path-effect
       effect="spiro"
       id="path-effect66149"
       is_visible="true" /><inkscape:path-effect
       effect="spiro"
       id="path-effect66145"
       is_visible="true" /><inkscape:path-effect
       effect="spiro"
       id="path-effect66141"
       is_visible="true" /><inkscape:path-effect
       effect="spiro"
       id="path-effect66137"
       is_visible="true" /><inkscape:path-effect
       effect="spiro"
       id="path-effect66133"
       is_visible="true" /><inkscape:path-effect
       effect="spiro"
       id="path-effect66110"
       is_visible="true" /><inkscape:path-effect
       effect="spiro"
       id="path-effect66076"
       is_visible="true" /><inkscape:path-effect
       effect="spiro"
       id="path-effect66072"
       is_visible="true" /><inkscape:path-effect
       effect="spiro"
       id="path-effect66068"
       is_visible="true" /><inkscape:path-effect
       effect="spiro"
       id="path-effect66064"
       is_visible="true" /><inkscape:path-effect
       effect="spiro"
       id="path-effect66060"
       is_visible="true" /><inkscape:path-effect
       effect="spiro"
       id="path-effect66056"
       is_visible="true" /><inkscape:path-effect
       effect="spiro"
       id="path-effect66052"
       is_visible="true" /><inkscape:path-effect
       effect="spiro"
       id="path-effect66048"
       is_visible="true" /><inkscape:path-effect
       effect="spiro"
       id="path-effect66044"
       is_visible="true" /><inkscape:path-effect
       effect="spiro"
       id="path-effect66040"
       is_visible="true" /><inkscape:path-effect
       effect="spiro"
       id="path-effect66036"
       is_visible="true" /><inkscape:path-effect
       effect="spiro"
       id="path-effect66028"
       is_visible="true" /><inkscape:path-effect
       effect="skeletal"
       id="path-effect66024"
       is_visible="true"
       pattern="M 0,0 0,10 10,5 z"
       copytype="single_stretched"
       prop_scale="1"
       scale_y_rel="false"
       spacing="0"
       normal_offset="0"
       tang_offset="0"
       prop_units="false"
       vertical_pattern="false"
       fuse_tolerance="0" /><inkscape:path-effect
       effect="spiro"
       id="path-effect66022"
       is_visible="true" /><inkscape:path-effect
       effect="skeletal"
       id="path-effect66018"
       is_visible="true"
       pattern="M 0,5 C 0,2.24 2.24,0 5,0 7.76,0 10,2.24 10,5 10,7.76 7.76,10 5,10 2.24,10 0,7.76 0,5 z"
       copytype="single_stretched"
       prop_scale="1"
       scale_y_rel="false"
       spacing="0"
       normal_offset="0"
       tang_offset="0"
       prop_units="false"
       vertical_pattern="false"
       fuse_tolerance="0" /><inkscape:path-effect
       effect="spiro"
       id="path-effect66016"
       is_visible="true" /><inkscape:path-effect
       effect="spiro"
       id="path-effect65972"
       is_visible="true" /><inkscape:path-effect
       effect="spiro"
       id="path-effect65968"
       is_visible="true" /><inkscape:path-effect
       effect="spiro"
       id="path-effect65964"
       is_visible="true" /><inkscape:path-effect
       effect="spiro"
       id="path-effect65960"
       is_visible="true" /><inkscape:path-effect
       effect="skeletal"
       id="path-effect65954"
       is_visible="true"
       pattern="M 0,0 1,0"
       copytype="single_stretched"
       prop_scale="1"
       scale_y_rel="false"
       spacing="0"
       normal_offset="0"
       tang_offset="0"
       prop_units="false"
       vertical_pattern="false"
       fuse_tolerance="0" /><inkscape:path-effect
       effect="spiro"
       id="path-effect65950"
       is_visible="true" /><inkscape:path-effect
       effect="spiro"
       id="path-effect65946"
       is_visible="true" /><inkscape:path-effect
       effect="spiro"
       id="path-effect65942"
       is_visible="true" /></defs><sodipodi:namedview
     pagecolor="#ffffff"
     bordercolor="#666666"
     borderopacity="1"
     objecttolerance="10"
     gridtolerance="10"
     guidetolerance="10"
     inkscape:pageopacity="0"
     inkscape:pageshadow="2"
     inkscape:window-width="1920"
     inkscape:window-height="1025"
     id="namedview4"
     showgrid="false"
     inkscape:zoom="0.8458344"
     inkscape:cx="-103.13888"
     inkscape:cy="214.47098"
     inkscape:window-x="0"
     inkscape:window-y="30"
     inkscape:window-maximized="1"
     inkscape:current-layer="g10" /><g
     id="g10"
     inkscape:groupmode="layer"
     inkscape:label="ink_ext_XXXXXX"
     transform="matrix(1.25,0,0,-1.25,0,393.75)"><path
       inkscape:connector-curvature="0"
       id="path24"
       style="fill:none;stroke:#262626;stroke-width:0.75;stroke-linecap:square;stroke-linejoin:miter;stroke-miterlimit:10;stroke-opacity:1;stroke-dasharray:none"
       d="m 54.75,34.5 0,3.2551" /><path
       inkscape:connector-curvature="0"
       id="path26"
       style="fill:none;stroke:#262626;stroke-width:0.75;stroke-linecap:square;stroke-linejoin:miter;stroke-miterlimit:10;stroke-opacity:1;stroke-dasharray:none"
       d="m 90.9164,34.5 0,3.2551" /><path
       inkscape:connector-curvature="0"
       id="path28"
       style="fill:none;stroke:#262626;stroke-width:0.75;stroke-linecap:square;stroke-linejoin:miter;stroke-miterlimit:10;stroke-opacity:1;stroke-dasharray:none"
       d="m 127.083,34.5 0,3.2551" /><path
       inkscape:connector-curvature="0"
       id="path30"
       style="fill:none;stroke:#262626;stroke-width:0.75;stroke-linecap:square;stroke-linejoin:miter;stroke-miterlimit:10;stroke-opacity:1;stroke-dasharray:none"
       d="m 163.25,34.5 0,3.2551" /><path
       inkscape:connector-curvature="0"
       id="path34"
       style="fill:none;stroke:#262626;stroke-width:0.75;stroke-linecap:square;stroke-linejoin:miter;stroke-miterlimit:10;stroke-opacity:1;stroke-dasharray:none"
       d="m 235.583,34.5 0,3.2551" /><path
       inkscape:connector-curvature="0"
       id="path38"
       style="fill:none;stroke:#262626;stroke-width:0.75;stroke-linecap:square;stroke-linejoin:miter;stroke-miterlimit:10;stroke-opacity:1;stroke-dasharray:none"
       d="m 307.917,34.5 0,3.2551" /><g
       id="g66004"><path
         d="m 54.75,34.5 325.5,0"
         style="fill:none;stroke:#262626;stroke-width:0.75;stroke-linecap:square;stroke-linejoin:miter;stroke-miterlimit:10;stroke-opacity:1;stroke-dasharray:none"
         id="path20"
         inkscape:connector-curvature="0" /><path
         d="m 199.417,34.5 0,3.2551"
         style="fill:none;stroke:#262626;stroke-width:0.75;stroke-linecap:square;stroke-linejoin:miter;stroke-miterlimit:10;stroke-opacity:1;stroke-dasharray:none"
         id="path32"
         inkscape:connector-curvature="0" /><path
         d="m 271.75,34.5 0,3.2551"
         style="fill:none;stroke:#262626;stroke-width:0.75;stroke-linecap:square;stroke-linejoin:miter;stroke-miterlimit:10;stroke-opacity:1;stroke-dasharray:none"
         id="path36"
         inkscape:connector-curvature="0" /><path
         d="m 344.084,34.5 0,3.2551"
         style="fill:none;stroke:#262626;stroke-width:0.75;stroke-linecap:square;stroke-linejoin:miter;stroke-miterlimit:10;stroke-opacity:1;stroke-dasharray:none"
         id="path40"
         inkscape:connector-curvature="0" /></g><path
       inkscape:connector-curvature="0"
       id="path42"
       style="fill:none;stroke:#262626;stroke-width:0.75;stroke-linecap:square;stroke-linejoin:miter;stroke-miterlimit:10;stroke-opacity:1;stroke-dasharray:none"
       d="m 380.25,34.5 0,3.2551" /><path
       inkscape:connector-curvature="0"
       id="path46"
       style="fill:none;stroke:#262626;stroke-width:0.75;stroke-linecap:square;stroke-linejoin:miter;stroke-miterlimit:10;stroke-opacity:1;stroke-dasharray:none"
       d="m 90.9164,291.75 0,-3.255" /><g
       id="g66191"><path
         d="m 127.083,291.75 0,-3.255"
         style="fill:none;stroke:#262626;stroke-width:0.75;stroke-linecap:square;stroke-linejoin:miter;stroke-miterlimit:10;stroke-opacity:1;stroke-dasharray:none"
         id="path48"
         inkscape:connector-curvature="0" /><path
         d="m 163.25,291.75 0,-3.255"
         style="fill:none;stroke:#262626;stroke-width:0.75;stroke-linecap:square;stroke-linejoin:miter;stroke-miterlimit:10;stroke-opacity:1;stroke-dasharray:none"
         id="path50"
         inkscape:connector-curvature="0" /><path
         d="m 199.417,291.75 0,-3.255"
         style="fill:none;stroke:#262626;stroke-width:0.75;stroke-linecap:square;stroke-linejoin:miter;stroke-miterlimit:10;stroke-opacity:1;stroke-dasharray:none"
         id="path52"
         inkscape:connector-curvature="0" /><g
         id="g66180"><path
           inkscape:connector-curvature="0"
           id="path22"
           style="fill:none;stroke:#262626;stroke-width:0.75;stroke-linecap:square;stroke-linejoin:miter;stroke-miterlimit:10;stroke-opacity:1;stroke-dasharray:none"
           d="m 54.75,291.75 325.5,0" /><path
           inkscape:connector-curvature="0"
           id="path54"
           style="fill:none;stroke:#262626;stroke-width:0.75;stroke-linecap:square;stroke-linejoin:miter;stroke-miterlimit:10;stroke-opacity:1;stroke-dasharray:none"
           d="m 235.583,291.75 0,-3.255" /><path
           inkscape:connector-curvature="0"
           id="path56"
           style="fill:none;stroke:#262626;stroke-width:0.75;stroke-linecap:square;stroke-linejoin:miter;stroke-miterlimit:10;stroke-opacity:1;stroke-dasharray:none"
           d="m 271.75,291.75 0,-3.255" /><path
           inkscape:connector-curvature="0"
           id="path58"
           style="fill:none;stroke:#262626;stroke-width:0.75;stroke-linecap:square;stroke-linejoin:miter;stroke-miterlimit:10;stroke-opacity:1;stroke-dasharray:none"
           d="m 307.917,291.75 0,-3.255" /><path
           inkscape:connector-curvature="0"
           id="path60"
           style="fill:none;stroke:#262626;stroke-width:0.75;stroke-linecap:square;stroke-linejoin:miter;stroke-miterlimit:10;stroke-opacity:1;stroke-dasharray:none"
           d="m 344.084,291.75 0,-3.255" /></g></g><path
       inkscape:connector-curvature="0"
       id="path62"
       style="fill:none;stroke:#262626;stroke-width:0.75;stroke-linecap:square;stroke-linejoin:miter;stroke-miterlimit:10;stroke-opacity:1;stroke-dasharray:none"
       d="m 380.25,291.75 0,-3.255" /><g
       id="g64"><text
         id="text66"
         transform="matrix(1,0,0,-1,49.875,20.75)"><tspan
           id="tspan68"
           sodipodi:role="line"
           y="0"
           x="0 3.2467501 37.666786 73.833237 110.00008 146.16693 182.33339 218.50023 254.66707 290.83353 327.00037"
           style="font-size:9.75px;font-variant:normal;font-weight:normal;writing-mode:lr-tb;fill:#262626;fill-opacity:1;fill-rule:nonzero;stroke:none;font-family:Helvetica;-inkscape-font-specification:Helvetica">-1012345678</tspan></text>
</g><path
       inkscape:connector-curvature="0"
       id="path72"
       style="fill:none;stroke:#262626;stroke-width:0.75;stroke-linecap:square;stroke-linejoin:miter;stroke-miterlimit:10;stroke-opacity:1;stroke-dasharray:none"
       d="m 380.25,34.5 0,257.25" /><path
       inkscape:connector-curvature="0"
       id="path74"
       style="fill:none;stroke:#262626;stroke-width:0.75;stroke-linecap:square;stroke-linejoin:miter;stroke-miterlimit:10;stroke-opacity:1;stroke-dasharray:none"
       d="m 54.75,34.5 3.2551,0" /><path
       inkscape:connector-curvature="0"
       id="path76"
       style="fill:none;stroke:#262626;stroke-width:0.75;stroke-linecap:square;stroke-linejoin:miter;stroke-miterlimit:10;stroke-opacity:1;stroke-dasharray:none"
       d="m 54.75,85.95 3.2551,0" /><g
       id="g66163"><path
         d="m 54.75,34.5 0,257.25"
         style="fill:none;stroke:#262626;stroke-width:0.75;stroke-linecap:square;stroke-linejoin:miter;stroke-miterlimit:10;stroke-opacity:1;stroke-dasharray:none"
         id="path70"
         inkscape:connector-curvature="0" /><path
         d="m 54.75,188.85 3.2551,0"
         style="fill:none;stroke:#262626;stroke-width:0.75;stroke-linecap:square;stroke-linejoin:miter;stroke-miterlimit:10;stroke-opacity:1;stroke-dasharray:none"
         id="path80"
         inkscape:connector-curvature="0" /><path
         d="m 54.75,240.3 3.2551,0"
         style="fill:none;stroke:#262626;stroke-width:0.75;stroke-linecap:square;stroke-linejoin:miter;stroke-miterlimit:10;stroke-opacity:1;stroke-dasharray:none"
         id="path82"
         inkscape:connector-curvature="0" /></g><path
       inkscape:connector-curvature="0"
       id="path86"
       style="fill:none;stroke:#262626;stroke-width:0.75;stroke-linecap:square;stroke-linejoin:miter;stroke-miterlimit:10;stroke-opacity:1;stroke-dasharray:none"
       d="m 380.25,34.5 -3.255,0" /><path
       inkscape:connector-curvature="0"
       id="path88"
       style="fill:none;stroke:#262626;stroke-width:0.75;stroke-linecap:square;stroke-linejoin:miter;stroke-miterlimit:10;stroke-opacity:1;stroke-dasharray:none"
       d="m 380.25,85.95 -3.255,0" /><path
       inkscape:connector-curvature="0"
       id="path96"
       style="fill:none;stroke:#262626;stroke-width:0.75;stroke-linecap:square;stroke-linejoin:miter;stroke-miterlimit:10;stroke-opacity:1;stroke-dasharray:none"
       d="m 380.25,291.75 -3.255,0" /><g
       id="g98"><text
         id="text100"
         transform="matrix(1,0,0,-1,44,31.125)"><tspan
           id="tspan102"
           y="0"
           x="0"
           style="font-size:9.75px;font-variant:normal;font-weight:normal;writing-mode:lr-tb;fill:#262626;fill-opacity:1;fill-rule:nonzero;stroke:none;font-family:Helvetica;-inkscape-font-specification:Helvetica">0</tspan><tspan
           id="tspan104"
           y="-51.450001"
           x="0"
           style="font-size:9.75px;font-variant:normal;font-weight:normal;writing-mode:lr-tb;fill:#262626;fill-opacity:1;fill-rule:nonzero;stroke:none;font-family:Helvetica;-inkscape-font-specification:Helvetica">5</tspan><tspan
           id="tspan106"
           sodipodi:role="line"
           y="-102.9"
           x="-6 -0.579"
           style="font-size:9.75px;font-variant:normal;font-weight:normal;writing-mode:lr-tb;fill:#262626;fill-opacity:1;fill-rule:nonzero;stroke:none;font-family:Helvetica;-inkscape-font-specification:Helvetica">10</tspan><tspan
           id="tspan108"
           sodipodi:role="line"
           y="-154.35001"
           x="-6 -0.579"
           style="font-size:9.75px;font-variant:normal;font-weight:normal;writing-mode:lr-tb;fill:#262626;fill-opacity:1;fill-rule:nonzero;stroke:none;font-family:Helvetica;-inkscape-font-specification:Helvetica">15</tspan><tspan
           id="tspan110"
           sodipodi:role="line"
           y="-205.8"
           x="-6 -0.579"
           style="font-size:9.75px;font-variant:normal;font-weight:normal;writing-mode:lr-tb;fill:#262626;fill-opacity:1;fill-rule:nonzero;stroke:none;font-family:Helvetica;-inkscape-font-specification:Helvetica">20</tspan><tspan
           id="tspan112"
           sodipodi:role="line"
           y="-257.25"
           x="-6 -0.579"
           style="font-size:9.75px;font-variant:normal;font-weight:normal;writing-mode:lr-tb;fill:#262626;fill-opacity:1;fill-rule:nonzero;stroke:none;font-family:Helvetica;-inkscape-font-specification:Helvetica">25</tspan></text>
</g><path
       style="fill:none;stroke:#000000;stroke-width:1px;stroke-linecap:butt;stroke-linejoin:miter;stroke-opacity:1"
       d="m 68.275776,313.35601 c 1.82097,0.40184 3.64365,0.79594 5.467974,1.18227 3.761671,0.79659 7.530332,1.56018 11.305404,2.29063 4.793712,1.12555 9.55076,2.40724 14.261064,3.84236 3.450012,1.05114 6.874952,2.18457 10.270922,3.39901 3.35842,1.32327 6.68483,2.72776 9.97536,4.21182 3.93691,1.77559 7.82185,3.66479 11.67486,5.61576 3.77459,1.91126 7.51905,3.88202 11.23152,5.91132 2.65251,1.55736 5.26452,3.18371 7.8325,4.87684 2.86423,1.88846 5.67368,3.86 8.42363,5.91132"
       id="path65966"
       inkscape:path-effect="#path-effect65968"
       inkscape:original-d="m 68.275776,313.35601 5.467974,1.18227 11.305404,2.29063 14.261064,3.84236 10.270922,3.39901 9.97536,4.21182 11.67486,5.61576 11.23152,5.91132 7.8325,4.87684 8.42363,5.91132"
       inkscape:connector-curvature="0"
       sodipodi:nodetypes="cccccccccc"
       transform="matrix(0.8,0,0,-0.8,0,315)" /><path
       style="fill:none;stroke:#000000;stroke-width:1px;stroke-linecap:butt;stroke-linejoin:miter;stroke-opacity:1"
       d="m 68.341959,273.36783 c 3.351371,0.66037 6.695582,1.35709 10.031847,2.08997 3.978078,0.87387 7.944652,1.79913 11.912818,2.71696 3.062613,0.70838 6.126292,1.41236 9.19586,2.08997 5.504586,1.21513 11.028426,2.34551 16.510746,3.65744 4.41264,1.05595 8.79649,2.22908 13.1668,3.44845 4.82073,1.34504 9.6256,2.74649 14.42078,4.17994 4.89788,1.46415 9.78658,2.96199 14.62978,4.59793 4.3845,1.481 8.73014,3.07466 13.0623,4.70243 3.91192,1.46987 7.81333,2.96773 11.70382,4.49343 l 12.85331,6.4789 c 3.4015,1.94646 6.78058,3.93211 10.13634,5.95641 4.39476,2.65106 8.74952,5.36843 13.0623,8.15087 2.40661,1.72506 4.77598,3.50209 7.10589,5.32942 1.22852,0.96352 2.44604,1.94101 3.65745,2.92596 1.95865,1.59251 3.90131,3.20456 5.85191,4.80692 1.91272,1.57124 3.83307,3.13316 5.74741,4.70243 1.72117,1.41092 3.43766,2.82794 5.12042,4.28444 0.95146,0.82353 1.89206,1.65961 2.82146,2.50796"
       id="path65970"
       inkscape:path-effect="#path-effect65972"
       inkscape:original-d="m 68.341959,273.36783 10.031847,2.08997 11.912818,2.71696 9.19586,2.08997 16.510746,3.65744 13.1668,3.44845 14.42078,4.17994 14.62978,4.59793 13.0623,4.70243 11.70382,4.49343 12.85331,6.4789 10.13634,5.95641 13.0623,8.15087 7.10589,5.32942 3.65745,2.92596 5.85191,4.80692 5.74741,4.70243 5.12042,4.28444 2.82146,2.50796"
       inkscape:connector-curvature="0"
       transform="matrix(0.8,0,0,-0.8,0,315)" /><path
       style="fill:none;stroke:#000000;stroke-width:1px;stroke-linecap:butt;stroke-linejoin:miter;stroke-opacity:1"
       d="m 68.497451,228.93494 c 1.485937,0.85234 2.951984,1.73936 4.396546,2.66009 1.399958,0.8923 2.779737,1.81626 4.137926,2.77093 l 3.546794,2.91872 2.401474,2.29064 1.108373,1.33004 0.554187,1.18227 0,0.96059 -0.295566,1.14532 -0.628078,0.73891 -1.219211,0.70197 -2.253691,0.62808 -3.731523,0.51724 c -1.254915,0.0933 -2.511271,0.16719 -3.768468,0.22168 -1.440081,0.0624 -2.881267,0.0994 -4.322655,0.11083"
       id="path66108"
       inkscape:path-effect="#path-effect66110"
       inkscape:original-d="m 68.497451,228.93494 c 0,0 4.248763,2.47536 4.396546,2.66009 0.147783,0.18473 4.137926,2.77093 4.137926,2.77093 l 3.546794,2.91872 2.401474,2.29064 1.108373,1.33004 0.554187,1.18227 0,0.96059 -0.295566,1.14532 -0.628078,0.73891 -1.219211,0.70197 -2.253691,0.62808 -3.731523,0.51724 -3.768468,0.22168 -4.322655,0.11083"
       inkscape:connector-curvature="0"
       transform="matrix(0.8,0,0,-0.8,0,315)" /><path
       style="fill:none;stroke:#000000;stroke-width:1px;stroke-linecap:butt;stroke-linejoin:miter;stroke-opacity:1"
       d="m 68.446457,225.61206 c 7.151051,1.94808 14.291907,3.93358 21.422174,5.95641 10.773759,3.05647 21.523499,6.19819 32.237759,9.45711 8.10027,2.46383 16.1801,4.9946 24.24363,7.57613 10.58553,3.38895 21.14438,6.86586 31.61077,10.60659 8.53846,3.05168 17.01373,6.27835 25.44536,9.61385 6.31271,2.49727 12.60128,5.05566 18.86196,7.68064 8.62165,3.61489 17.19312,7.35732 25.60211,11.44257 6.40456,3.11146 12.71171,6.42025 18.96646,9.82285 3.03452,1.65079 6.05731,3.32398 9.03912,5.06818 4.67262,2.73324 9.24177,5.63918 13.79379,8.56886 3.77369,2.42875 7.53706,4.87474 11.23358,7.41939 3.74795,2.58005 7.42651,5.26112 11.02458,8.04638 4.38791,3.39668 8.6543,6.94683 12.9578,10.44984 1.63092,1.32756 3.26761,2.6487 4.85918,4.02319 2.25775,1.9498 4.42212,4.0047 6.5834,6.06091 1.09778,1.04441 2.19501,2.0894 3.2917,3.13495"
       id="path66131"
       inkscape:path-effect="#path-effect66133"
       inkscape:original-d="m 68.446457,225.61206 21.422174,5.95641 32.237759,9.45711 24.24363,7.57613 31.61077,10.60659 25.44536,9.61385 18.86196,7.68064 25.60211,11.44257 18.96646,9.82285 9.03912,5.06818 13.79379,8.56886 11.23358,7.41939 11.02458,8.04638 12.9578,10.44984 4.85918,4.02319 6.5834,6.06091 3.2917,3.13495"
       inkscape:connector-curvature="0"
       transform="matrix(0.8,0,0,-0.8,0,315)" /><path
       style="fill:none;stroke:#000000;stroke-width:1px;stroke-linecap:butt;stroke-linejoin:miter;stroke-opacity:1"
       d="m 68.349668,165.20349 c 3.206817,1.77061 6.384718,3.59359 9.532008,5.46797 2.783923,1.65798 5.543931,3.35619 8.275851,5.09852 2.71292,1.73021 5.398105,3.50391 8.054177,5.32019 l 6.502456,5.76354 3.62068,3.99014 0.8867,1.84729 0.51724,2.14285 0,1.92118 -0.8128,1.55173 -1.62562,1.33004 -3.10344,1.40394 -6.20689,1.62562 c -2.409306,0.24761 -4.823803,0.44471 -7.24137,0.59113 -2.558985,0.15498 -5.121397,0.25317 -7.68472,0.29556 -3.571823,0.0591 -7.145437,0.01 -10.714272,-0.14778"
       id="path66135"
       inkscape:path-effect="#path-effect66137"
       inkscape:original-d="m 68.349668,165.20349 9.532008,5.46797 8.275851,5.09852 8.054177,5.32019 6.502456,5.76354 3.62068,3.99014 0.8867,1.84729 0.51724,2.14285 0,1.92118 -0.8128,1.55173 -1.62562,1.33004 -3.10344,1.40394 -6.20689,1.62562 -7.24137,0.59113 -7.68472,0.29556 -10.714272,-0.14778"
       inkscape:connector-curvature="0"
       transform="matrix(0.8,0,0,-0.8,0,315)" /><path
       style="fill:none;stroke:#000000;stroke-width:1px;stroke-linecap:butt;stroke-linejoin:miter;stroke-opacity:1"
       d="m 68.349668,166.05324 c 2.103687,0.55457 4.197705,1.14582 6.28078,1.77339 2.364384,0.71232 4.714488,1.47138 7.056641,2.2537 3.904606,1.30421 7.787229,2.67312 11.674863,4.02709 4.071488,1.418 8.148648,2.81967 12.229048,4.21182 8.85011,3.01947 17.7159,5.9943 26.52706,9.1256 9.39884,3.34015 18.73349,6.85763 28.07878,10.34481 16.88651,6.30117 33.81223,12.50507 50.54181,19.2118 11.42054,4.57839 22.74618,9.38972 34.13789,14.03939 12.95803,5.28899 26.0004,10.36834 39.01473,15.51723 11.57587,4.57979 23.12998,9.21477 34.72438,13.74746 5.35607,2.09389 10.72272,4.16676 15.98825,6.4789 2.88259,1.26577 5.7335,2.60265 8.56887,3.97094 2.52542,1.21872 5.039,2.46258 7.52389,3.76195 3.04046,1.58989 6.03757,3.26269 8.98686,5.01592 l 10.24084,6.7924 7.41939,5.64291 c 2.46796,2.12583 4.90656,4.28574 7.31489,6.4789 3.2248,2.93669 6.39531,5.93299 9.50935,8.98687 3.63307,3.82729 7.18703,7.72967 10.65884,11.70382 1.54362,1.76696 3.07096,3.54806 4.59793,5.32942 3.01018,3.51166 6.02002,7.02567 8.88237,10.65883 1.73756,2.20547 3.4199,4.45375 5.12042,6.6879 2.16492,2.84427 4.35955,5.66593 6.5834,8.46437"
       id="path66139"
       inkscape:path-effect="#path-effect66141"
       inkscape:original-d="m 68.349668,166.05324 6.28078,1.77339 7.056641,2.2537 11.674863,4.02709 12.229048,4.21182 26.52706,9.1256 28.07878,10.34481 50.54181,19.2118 34.13789,14.03939 39.01473,15.51723 34.72438,13.74746 15.98825,6.4789 8.56887,3.97094 7.52389,3.76195 8.98686,5.01592 10.24084,6.7924 7.41939,5.64291 7.31489,6.4789 9.50935,8.98687 10.65884,11.70382 4.59793,5.32942 8.88237,10.65883 5.12042,6.6879 6.5834,8.46437"
       inkscape:connector-curvature="0"
       sodipodi:nodetypes="cccc"
       transform="matrix(0.8,0,0,-0.8,0,315)" /><path
       style="fill:none;stroke:#000000;stroke-width:1px;stroke-linecap:butt;stroke-linejoin:miter;stroke-opacity:1"
       d="m 68.571342,160.99167 c 10.955752,2.47601 21.892144,5.03769 32.807838,7.68472 11.64595,2.82412 23.26819,5.74535 34.87681,8.7192 9.75697,2.49951 19.50438,5.0362 29.26104,7.53694 18.43743,4.72572 36.90909,9.32335 55.27087,14.33496 11.74686,3.20615 23.45302,6.58281 35.32015,9.31033 2.33551,0.53679 4.67676,1.04832 7.0197,1.55172 2.80541,0.60277 5.61332,1.19391 8.42363,1.7734 l 4.28571,0.59113 3.99014,0.0739 2.29064,-0.66502 0.59113,-0.8867 0.22168,-1.03448 -0.29557,-1.03448 -0.59113,-1.10838 c -0.3173,-0.42092 -0.63751,-0.83965 -0.96059,-1.25615 -0.46212,-0.59574 -0.93013,-1.18691 -1.40394,-1.7734 -1.39698,-1.21496 -2.80095,-2.42188 -4.21182,-3.62068 -2.07882,-1.76636 -4.1726,-3.51509 -6.28078,-5.2463 -6.08917,-5.00034 -12.29844,-9.85442 -18.62066,-14.55664 -10.55952,-7.27461 -21.22607,-14.39385 -31.99504,-21.35465 -14.51931,-9.38493 -29.23067,-18.48527 -44.33492,-26.89652 -6.34579,-3.53384 -12.759,-6.94498 -19.1379,-10.4187 -6.85364,-3.73224 -13.66789,-7.53684 -20.54185,-11.23153 -8.72361,-4.68886 -17.54162,-9.19976 -26.37928,-13.669929 C 101.32614,94.349086 94.462636,90.907921 87.561466,87.543488 81.213413,84.448709 74.833665,81.418944 68.423559,78.454829"
       id="path66143"
       inkscape:path-effect="#path-effect66145"
       inkscape:original-d="m 68.571342,160.99167 32.807838,7.68472 34.87681,8.7192 29.26104,7.53694 55.27087,14.33496 35.32015,9.31033 7.0197,1.55172 8.42363,1.7734 4.28571,0.59113 3.99014,0.0739 2.29064,-0.66502 0.59113,-0.8867 0.22168,-1.03448 -0.29557,-1.03448 -0.59113,-1.10838 -0.96059,-1.25615 -1.40394,-1.7734 -4.21182,-3.62068 -6.28078,-5.2463 -18.62066,-14.55664 -31.99504,-21.35465 -44.33492,-26.89652 -19.1379,-10.4187 L 134.55648,111.48434 108.1772,97.814411 87.561466,87.543488 68.423559,78.454829"
       inkscape:connector-curvature="0"
       transform="matrix(0.8,0,0,-0.8,0,315)" /><path
       style="fill:none;stroke:#000000;stroke-width:1px;stroke-linecap:butt;stroke-linejoin:miter;stroke-opacity:1"
       d="m 68.275776,46.755362 c 9.277348,3.15354 18.58839,6.207956 27.931,9.16255 11.364494,3.594014 22.775334,7.040218 34.137884,10.640381 13.64754,4.324151 27.22376,8.869886 40.78813,13.448259 13.1659,4.443879 26.32139,8.918751 39.45808,13.448259 13.77149,4.748386 27.52246,9.556859 41.23147,14.482739 13.28847,4.77477 26.53724,9.65975 39.75365,14.63052 14.36035,5.40102 28.68238,10.90328 43.00487,16.40392 8.30067,3.18792 16.60242,6.37567 24.82756,9.75369 7.37161,3.02748 14.67968,6.20698 22.01967,9.31033 16.53336,6.9903 33.23061,13.59503 49.65511,20.83741 10.69116,4.71427 21.26196,9.69662 31.92114,14.48274 4.12487,1.85212 8.26293,3.67484 12.41378,5.46798"
       id="path66147"
       inkscape:path-effect="#path-effect66149"
       inkscape:original-d="m 68.275776,46.755362 27.931,9.16255 34.137884,10.640381 40.78813,13.448259 39.45808,13.448259 41.23147,14.482739 39.75365,14.63052 43.00487,16.40392 24.82756,9.75369 22.01967,9.31033 49.65511,20.83741 31.92114,14.48274 12.41378,5.46798"
       inkscape:connector-curvature="0"
       transform="matrix(0.8,0,0,-0.8,0,315)" /><path
       style="fill:none;stroke:#000000;stroke-width:1px;stroke-linecap:butt;stroke-linejoin:miter;stroke-opacity:1"
       d="m 68.132962,100.10947 c 8.647215,2.61886 17.285812,5.26617 25.915605,7.94188 14.206903,4.40492 28.390283,8.8869 42.635353,13.1668 14.16872,4.25696 28.39682,8.3135 42.63535,12.33081 13.98995,3.94718 27.99058,7.85667 42.00836,11.70383 9.90829,2.71932 19.83186,5.40912 29.88654,7.52388 2.16666,0.45571 4.33909,0.88463 6.5195,1.2692 1.71888,0.30317 3.44275,0.57876 5.1724,0.8128 2.08658,0.28233 4.18134,0.50413 6.28078,0.66503 l 3.25123,0.0739 2.51231,-0.44335 1.62562,-0.51724 1.33005,-1.25616 0.14778,-1.25615 -0.66503,-1.7734 c -1.63685,-1.83412 -3.36936,-3.58285 -5.18816,-5.2367 -3.48887,-3.17247 -7.28674,-5.9887 -11.17772,-8.65273 -3.24562,-2.22217 -6.56096,-4.34251 -9.9395,-6.35685 -5.94066,-3.77544 -11.90135,-7.51935 -17.88175,-11.23152 C 219.80786,110.55966 206.31484,102.40481 192.69506,94.46656 184.37163,89.615272 176.00101,84.844964 167.586,80.154335 159.8456,75.839747 152.06747,71.59248 144.23627,67.444991 132.88537,61.43343 121.42444,55.632264 109.9506,49.858806 100.40614,45.056182 90.852152,40.272429 81.280686,35.523849 77.096827,33.44816 72.909634,31.379193 68.719126,29.31696"
       id="path66151"
       inkscape:path-effect="#path-effect66153"
       inkscape:original-d="m 68.132962,100.10947 25.915605,7.94188 42.635353,13.1668 42.63535,12.33081 42.00836,11.70383 29.88654,7.52388 6.5195,1.2692 5.1724,0.8128 6.28078,0.66503 3.25123,0.0739 2.51231,-0.44335 1.62562,-0.51724 1.33005,-1.25616 0.14778,-1.25615 -0.66503,-1.7734 c 1.50578,0.14819 -1.00413,-2.05427 -5.18816,-5.2367 -3.6756,-2.83394 -7.36492,-5.68159 -11.17772,-8.65273 -3.39096,-2.74133 -6.68744,-4.72678 -9.9395,-6.35685 L 233.20168,118.8735 192.69506,94.46656 167.586,80.154335 144.23627,67.444991 109.9506,49.858806 81.280686,35.523849 68.719126,29.31696"
       inkscape:connector-curvature="0"
       transform="matrix(0.8,0,0,-0.8,0,315)"
       sodipodi:nodetypes="ccccccccccccccccccccccccc" /><path
       style="fill:none;stroke:#000000;stroke-width:1px;stroke-linecap:butt;stroke-linejoin:miter;stroke-opacity:1"
       d="m 68.23746,113.17177 c 10.159099,2.19707 20.296126,4.49619 30.409037,6.8969 8.113673,1.92611 16.212183,3.9177 24.348133,5.74741 11.18432,2.51527 22.43507,4.72366 33.64848,7.10589 12.36301,2.62645 24.68273,5.46464 37.09694,7.83738 4.48324,0.85689 8.97802,1.65291 13.48029,2.40347 4.2084,0.70157 8.42342,1.36343 12.64431,1.98547 l 13.1668,0.94048 5.85191,0 4.02319,-0.26124 2.08997,-0.47025 1.88097,-0.78373 1.56747,-1.14949 0.94049,-0.99273 0.47024,-1.30623 -0.0523,-1.51523 -1.41072,-2.82146 -3.55295,-4.65017 -4.91143,-4.75468 -10.44979,-8.56887 c -5.35245,-3.60538 -10.71674,-7.19319 -16.09275,-10.76334 -6.08499,-4.04098 -12.18593,-8.05993 -18.39172,-11.912816 C 186.02929,90.572748 176.85175,85.357253 167.61545,80.254776 160.64386,76.403409 153.63732,72.61555 146.61127,68.86445 120.99993,55.190945 95.128148,42.00526 69.014692,29.31696"
       id="path66155"
       inkscape:path-effect="#path-effect66157"
       inkscape:original-d="m 68.23746,113.17177 30.409037,6.8969 24.348133,5.74741 33.64848,7.10589 37.09694,7.83738 13.48029,2.40347 12.64431,1.98547 13.1668,0.94048 5.85191,0 4.02319,-0.26124 2.08997,-0.47025 1.88097,-0.78373 1.56747,-1.14949 0.94049,-0.99273 0.47024,-1.30623 -0.0523,-1.51523 -1.41072,-2.82146 -3.55295,-4.65017 -4.91143,-4.75468 L 229.4785,118.81469 213.38575,108.05135 194.99403,96.138534 167.61545,80.254776 146.61127,68.86445 69.014692,29.31696"
       inkscape:connector-curvature="0"
       transform="matrix(0.8,0,0,-0.8,0,315)" /><path
       style="fill:none;stroke:#000000;stroke-width:1px;stroke-linecap:butt;stroke-linejoin:miter;stroke-opacity:1"
       d="m 68.341959,107.63336 c 17.148555,4.95702 34.219421,10.1828 51.204221,15.67476 15.95232,5.15811 31.82819,10.55085 47.65127,16.09276 18.17808,6.36673 36.28692,12.93048 54.33917,19.6457 6.13663,2.28275 12.26675,4.58302 18.39172,6.89689 13.25845,5.00873 26.49434,10.08182 39.6049,15.46577 11.30133,4.64098 22.5073,9.51204 33.64849,14.52527 8.07346,3.63283 16.1131,7.34039 24.13913,11.07684 4.61892,2.1503 9.23396,4.31046 13.79379,6.58339 8.31333,4.14393 16.43544,8.65882 24.55713,13.1668 5.74215,3.18721 11.48665,6.37235 17.13774,9.71836 3.8259,2.26531 7.60968,4.60486 11.28582,7.10589 3.57231,2.43039 7.0396,5.01095 10.55434,7.52388 3.60775,2.57943 7.26614,5.08804 10.97234,7.52389 4.58536,3.88844 9.21859,7.72044 13.89828,11.49482 3.45107,2.78344 6.92756,5.53568 10.34535,8.35988 4.34008,3.58632 8.58447,7.28786 12.7488,11.07683 4.3012,3.9135 8.5173,7.92053 12.64431,12.01731"
       id="path66159"
       inkscape:path-effect="#path-effect66161"
       inkscape:original-d="m 68.341959,107.63336 51.204221,15.67476 47.65127,16.09276 54.33917,19.6457 18.39172,6.89689 39.6049,15.46577 33.64849,14.52527 24.13913,11.07684 13.79379,6.58339 24.55713,13.1668 17.13774,9.71836 11.28582,7.10589 10.55434,7.52388 10.97234,7.52389 13.89828,11.49482 10.34535,8.35988 12.7488,11.07683 12.64431,12.01731"
       inkscape:connector-curvature="0"
       transform="matrix(0.8,0,0,-0.8,0,315)" /><path
       style="fill:none;stroke:#000000;stroke-width:1px;stroke-linecap:butt;stroke-linejoin:miter;stroke-opacity:1"
       d="m 139.80278,29.31696 c 27.32849,9.348319 54.6194,18.806538 81.87182,28.374349 17.25872,6.059211 34.50204,12.162383 51.72407,18.3251 14.20198,5.082023 28.38947,10.204533 42.56152,15.369439 14.88842,5.425984 29.76188,10.899492 44.77827,15.960572 5.75712,1.94036 11.53461,3.81989 17.29062,5.76354 7.1585,2.41724 14.28315,4.93346 21.42855,7.38915 7.24896,2.49128 14.52117,4.92086 21.87189,7.09359 5.53567,1.63624 11.11349,3.12612 16.69949,4.58127 1.84972,0.48185 3.70086,0.96003 5.56673,1.37499 1.31713,0.29293 2.64128,0.55427 3.97094,0.78374 l 4.17994,0.36575 2.71696,-0.209 c 0.54736,-0.0493 1.0884,-0.16824 1.60596,-0.35307 0.50982,-0.18207 1.00003,-0.43015 1.42042,-0.77125 0.42038,-0.3411 0.76941,-0.77853 0.9662,-1.28286 0.31038,-0.79542 0.2216,-1.70318 -0.0739,-2.50425 -0.38831,-1.05267 -1.10424,-1.9468 -1.81026,-2.81883 -2.02744,-2.50415 -4.07299,-4.99751 -6.27941,-7.34549 -3.15422,-3.35659 -6.62497,-6.39793 -10.09306,-9.42913 L 427.32984,98.736139 410.41776,85.939701 c -4.14915,-3.139432 -8.49303,-6.007163 -12.80132,-8.924375 -6.47471,-4.384131 -12.69825,-9.128071 -19.12321,-13.584793 -5.31108,-3.684072 -10.64058,-7.341577 -15.98825,-10.972333 -6.8579,-4.656117 -13.74585,-9.268365 -20.69069,-13.79379 -4.98697,-3.249633 -10.00317,-6.454424 -15.04777,-9.613853"
       id="path66168"
       inkscape:path-effect="#path-effect66170"
       inkscape:original-d="m 139.80278,29.31696 81.87182,28.374349 51.72407,18.3251 42.56152,15.369439 44.77827,15.960572 17.29062,5.76354 21.42855,7.38915 21.87189,7.09359 16.69949,4.58127 5.56673,1.37499 3.97094,0.78374 4.17994,0.36575 2.71696,-0.209 c 0,0 1.21618,0.0197 1.60596,-0.35307 0.38978,-0.37276 2.49583,-1.91267 2.38662,-2.05411 -0.10921,-0.14144 0.19266,-1.71282 -0.0739,-2.50425 -0.33475,-0.99389 -0.38713,-0.93399 -1.81026,-2.81883 -1.42313,-1.88484 -3.81121,-4.99737 -6.27941,-7.34549 -2.46819,-2.34812 -10.09306,-9.42913 -10.09306,-9.42913 L 427.32984,98.736139 410.41776,85.939701 c 0,0 -7.47718,-5.177548 -12.80132,-8.924375 C 392.2923,73.268499 378.49323,63.430533 378.49323,63.430533 L 362.50498,52.4582 341.81429,38.66441 326.76652,29.050557"
       inkscape:connector-curvature="0"
       transform="matrix(0.8,0,0,-0.8,0,315)"
       sodipodi:nodetypes="ccccccccccccczzszzccczcccc" /><path
       style="fill:none;stroke:#000000;stroke-width:1px;stroke-linecap:butt;stroke-linejoin:miter;stroke-opacity:1"
       d="m 332.95525,29.169177 c 8.78967,3.943305 17.5583,7.933524 26.30538,11.970428 7.10379,3.2785 14.19332,6.587774 21.28076,9.901466 8.82359,4.125419 17.64398,8.25771 26.45317,12.413777 7.79197,3.676154 15.57517,7.370904 23.34973,11.08373 7.25678,3.465552 14.50615,6.946911 21.72411,10.492598 7.77104,3.817378 15.50549,7.709237 23.20194,11.674862"
       id="path66172"
       inkscape:path-effect="#path-effect66174"
       inkscape:original-d="m 332.95525,29.169177 26.30538,11.970428 21.28076,9.901466 26.45317,12.413777 23.34973,11.08373 21.72411,10.492598 23.20194,11.674862"
       inkscape:connector-curvature="0"
       transform="matrix(0.8,0,0,-0.8,0,315)" /><path
       style="fill:none;stroke:#000000;stroke-width:1px;stroke-linecap:butt;stroke-linejoin:miter;stroke-opacity:1"
       d="m 408.47239,29.021394 c 7.76948,3.594507 15.50395,7.264685 23.20194,11.009838 7.13183,3.46971 14.2322,7.003694 21.35466,10.492598 7.39022,3.620065 14.80422,7.191592 22.24135,10.714272"
       id="path66176"
       inkscape:path-effect="#path-effect66178"
       inkscape:original-d="m 408.47239,29.021394 23.20194,11.009838 21.35466,10.492598 22.24135,10.714272"
       inkscape:connector-curvature="0"
       transform="matrix(0.8,0,0,-0.8,0,315)" /><path
       style="fill:none;stroke:#000000;stroke-width:1px;stroke-linecap:butt;stroke-linejoin:miter;stroke-opacity:1"
       d="m 260.51453,29.259553 12.01732,7.105892 c 4.42224,2.823853 8.84601,5.645311 13.2713,8.464371 6.55233,4.17405 13.10802,8.342858 19.6457,12.539809 5.9514,3.820581 11.88813,7.664653 17.76473,11.599323 7.05705,4.725037 14.02611,9.579874 21.00418,14.420781 3.45369,2.395936 6.90975,4.788566 10.34534,7.21039 3.65719,2.578034 7.2912,5.189156 10.97233,7.732882 3.1084,2.147959 6.25082,4.248159 9.30036,6.478899 3.23978,2.3699 6.3708,4.88426 9.54796,7.33747 3.61838,2.7939 7.29701,5.50878 10.93595,8.27585 2.96461,2.2543 5.90279,4.54317 8.86698,6.79802 4.98585,3.79272 10.04673,7.49031 14.90418,11.44615 3.94632,3.21382 7.75339,6.59405 11.59933,9.92735 8.24558,7.14649 16.67314,14.08002 24.97512,21.16092 5.16203,4.40278 10.27831,8.8651 15.15227,13.5848 1.50407,1.45646 2.98472,2.93711 4.44118,4.44118"
       id="path66187"
       inkscape:path-effect="#path-effect66189"
       inkscape:original-d="m 260.51453,29.259553 c 0.73149,1.462978 12.01732,7.105892 12.01732,7.105892 l 13.2713,8.464371 19.6457,12.539809 17.76473,11.599323 21.00418,14.420781 10.34534,7.21039 10.97233,7.732882 9.30036,6.478899 9.54796,7.33747 10.93595,8.27585 8.86698,6.79802 14.90418,11.44615 11.59933,9.92735 24.97512,21.16092 15.15227,13.5848 4.44118,4.44118"
       inkscape:connector-curvature="0"
       transform="matrix(0.8,0,0,-0.8,0,315)" /></g></svg>