<?xml version="1.0" encoding="UTF-8" standalone="no"?>
<!-- Created with Inkscape (http://www.inkscape.org/) -->

<svg
   xmlns:dc="http://purl.org/dc/elements/1.1/"
   xmlns:cc="http://creativecommons.org/ns#"
   xmlns:rdf="http://www.w3.org/1999/02/22-rdf-syntax-ns#"
   xmlns:svg="http://www.w3.org/2000/svg"
   xmlns="http://www.w3.org/2000/svg"
   xmlns:sodipodi="http://sodipodi.sourceforge.net/DTD/sodipodi-0.dtd"
   xmlns:inkscape="http://www.inkscape.org/namespaces/inkscape"
   id="svg2"
   version="1.1"
   inkscape:version="0.48.4 r9939"
   width="532.5"
   height="397.5"
   xml:space="preserve"
   sodipodi:docname="Fig_4_b.svg"><metadata
     id="metadata8"><rdf:RDF><cc:Work
         rdf:about=""><dc:format>image/svg+xml</dc:format><dc:type
           rdf:resource="http://purl.org/dc/dcmitype/StillImage" /><dc:title></dc:title></cc:Work></rdf:RDF></metadata><defs
     id="defs6"><inkscape:path-effect
       effect="spiro"
       id="path-effect32223"
       is_visible="true" /><inkscape:path-effect
       effect="spiro"
       id="path-effect32219"
       is_visible="true" /><inkscape:path-effect
       effect="spiro"
       id="path-effect32215"
       is_visible="true" /><inkscape:path-effect
       effect="spiro"
       id="path-effect32211"
       is_visible="true" /><inkscape:path-effect
       effect="spiro"
       id="path-effect32207"
       is_visible="true" /><inkscape:path-effect
       effect="spiro"
       id="path-effect32185"
       is_visible="true" /><inkscape:path-effect
       effect="spiro"
       id="path-effect32162"
       is_visible="true" /><inkscape:path-effect
       effect="spiro"
       id="path-effect32158"
       is_visible="true" /><inkscape:path-effect
       effect="spiro"
       id="path-effect32154"
       is_visible="true" /><inkscape:path-effect
       effect="spiro"
       id="path-effect32150"
       is_visible="true" /></defs><sodipodi:namedview
     pagecolor="#ffffff"
     bordercolor="#666666"
     borderopacity="1"
     objecttolerance="10"
     gridtolerance="10"
     guidetolerance="10"
     inkscape:pageopacity="0"
     inkscape:pageshadow="2"
     inkscape:window-width="1920"
     inkscape:window-height="1025"
     id="namedview4"
     showgrid="false"
     inkscape:zoom="1.6678425"
     inkscape:cx="408.56335"
     inkscape:cy="187.47706"
     inkscape:window-x="0"
     inkscape:window-y="30"
     inkscape:window-maximized="1"
     inkscape:current-layer="g10" /><g
     id="g10"
     inkscape:groupmode="layer"
     inkscape:label="ink_ext_XXXXXX"
     transform="matrix(1.25,0,0,-1.25,0,397.5)"><g
       id="g32225"><path
         d="m 55.498366,35.25 328.561784,0"
         style="fill:none;stroke:#262626;stroke-width:0.74836391;stroke-linecap:square;stroke-linejoin:miter;stroke-miterlimit:10;stroke-opacity:1;stroke-dasharray:none"
         id="path20"
         inkscape:connector-curvature="0" /><path
         d="m 55.809,35.25 0,3.3"
         style="fill:none;stroke:#262626;stroke-width:0.75;stroke-linecap:square;stroke-linejoin:miter;stroke-miterlimit:10;stroke-opacity:1;stroke-dasharray:none"
         id="path22"
         inkscape:connector-curvature="0" /><path
         d="m 92.2656,35.25 0,3.3"
         style="fill:none;stroke:#262626;stroke-width:0.75;stroke-linecap:square;stroke-linejoin:miter;stroke-miterlimit:10;stroke-opacity:1;stroke-dasharray:none"
         id="path24"
         inkscape:connector-curvature="0" /><path
         d="m 128.723,35.25 0,3.3"
         style="fill:none;stroke:#262626;stroke-width:0.75;stroke-linecap:square;stroke-linejoin:miter;stroke-miterlimit:10;stroke-opacity:1;stroke-dasharray:none"
         id="path26"
         inkscape:connector-curvature="0" /><path
         d="m 165.179,35.25 0,3.3"
         style="fill:none;stroke:#262626;stroke-width:0.75;stroke-linecap:square;stroke-linejoin:miter;stroke-miterlimit:10;stroke-opacity:1;stroke-dasharray:none"
         id="path28"
         inkscape:connector-curvature="0" /><path
         d="m 201.635,35.25 0,3.3"
         style="fill:none;stroke:#262626;stroke-width:0.75;stroke-linecap:square;stroke-linejoin:miter;stroke-miterlimit:10;stroke-opacity:1;stroke-dasharray:none"
         id="path30"
         inkscape:connector-curvature="0" /><path
         d="m 238.091,35.25 0,3.3"
         style="fill:none;stroke:#262626;stroke-width:0.75;stroke-linecap:square;stroke-linejoin:miter;stroke-miterlimit:10;stroke-opacity:1;stroke-dasharray:none"
         id="path32"
         inkscape:connector-curvature="0" /><path
         d="m 311.004,35.25 0,3.3"
         style="fill:none;stroke:#262626;stroke-width:0.75;stroke-linecap:square;stroke-linejoin:miter;stroke-miterlimit:10;stroke-opacity:1;stroke-dasharray:none"
         id="path36"
         inkscape:connector-curvature="0" /><path
         d="m 347.461,35.25 0,3.3"
         style="fill:none;stroke:#262626;stroke-width:0.75;stroke-linecap:square;stroke-linejoin:miter;stroke-miterlimit:10;stroke-opacity:1;stroke-dasharray:none"
         id="path38"
         inkscape:connector-curvature="0" /><g
         id="g42"><text
           transform="matrix(1,0,0,-1,50.9344,21.5)"
           id="text44"><tspan
             style="font-size:9.75px;font-variant:normal;font-weight:normal;writing-mode:lr-tb;fill:#262626;fill-opacity:1;fill-rule:nonzero;stroke:none;font-family:Helvetica;-inkscape-font-specification:Helvetica"
             x="0 3.2467501 37.956261 74.41288 110.8691 147.32571 183.78194 220.23817 256.69479 293.151 329.60764"
             y="0"
             sodipodi:role="line"
             id="tspan46">-1012345678</tspan></text>
</g><path
         d="M 55.5,35.25 55.5,294"
         style="fill:none;stroke:#262626;stroke-width:0.75;stroke-linecap:square;stroke-linejoin:miter;stroke-miterlimit:10;stroke-opacity:1;stroke-dasharray:none"
         id="path48"
         inkscape:connector-curvature="0" /><path
         d="m 55.5,35.448 3.3,0"
         style="fill:none;stroke:#262626;stroke-width:0.75;stroke-linecap:square;stroke-linejoin:miter;stroke-miterlimit:10;stroke-opacity:1;stroke-dasharray:none"
         id="path50"
         inkscape:connector-curvature="0" /><path
         d="m 55.5,87.0863 3.3,0"
         style="fill:none;stroke:#262626;stroke-width:0.75;stroke-linecap:square;stroke-linejoin:miter;stroke-miterlimit:10;stroke-opacity:1;stroke-dasharray:none"
         id="path52"
         inkscape:connector-curvature="0" /><path
         d="m 55.5,138.724 3.3,0"
         style="fill:none;stroke:#262626;stroke-width:0.75;stroke-linecap:square;stroke-linejoin:miter;stroke-miterlimit:10;stroke-opacity:1;stroke-dasharray:none"
         id="path54"
         inkscape:connector-curvature="0" /><path
         d="m 55.5,190.361 3.3,0"
         style="fill:none;stroke:#262626;stroke-width:0.75;stroke-linecap:square;stroke-linejoin:miter;stroke-miterlimit:10;stroke-opacity:1;stroke-dasharray:none"
         id="path56"
         inkscape:connector-curvature="0" /><path
         d="m 55.5,242 3.3,0"
         style="fill:none;stroke:#262626;stroke-width:0.75;stroke-linecap:square;stroke-linejoin:miter;stroke-miterlimit:10;stroke-opacity:1;stroke-dasharray:none"
         id="path58"
         inkscape:connector-curvature="0" /><path
         d="m 55.5,293.637 3.3,0"
         style="fill:none;stroke:#262626;stroke-width:0.75;stroke-linecap:square;stroke-linejoin:miter;stroke-miterlimit:10;stroke-opacity:1;stroke-dasharray:none"
         id="path60"
         inkscape:connector-curvature="0" /><g
         id="g62"><text
           transform="matrix(1,0,0,-1,44.75,32.0734)"
           id="text64"><tspan
             style="font-size:9.75px;font-variant:normal;font-weight:normal;writing-mode:lr-tb;fill:#262626;fill-opacity:1;fill-rule:nonzero;stroke:none;font-family:Helvetica;-inkscape-font-specification:Helvetica"
             x="0"
             y="0"
             id="tspan66">0</tspan><tspan
             style="font-size:9.75px;font-variant:normal;font-weight:normal;writing-mode:lr-tb;fill:#262626;fill-opacity:1;fill-rule:nonzero;stroke:none;font-family:Helvetica;-inkscape-font-specification:Helvetica"
             x="0"
             y="-51.637501"
             id="tspan68">5</tspan><tspan
             style="font-size:9.75px;font-variant:normal;font-weight:normal;writing-mode:lr-tb;fill:#262626;fill-opacity:1;fill-rule:nonzero;stroke:none;font-family:Helvetica;-inkscape-font-specification:Helvetica"
             x="-6 -0.579"
             y="-103.2754"
             sodipodi:role="line"
             id="tspan70">10</tspan><tspan
             style="font-size:9.75px;font-variant:normal;font-weight:normal;writing-mode:lr-tb;fill:#262626;fill-opacity:1;fill-rule:nonzero;stroke:none;font-family:Helvetica;-inkscape-font-specification:Helvetica"
             x="-6 -0.579"
             y="-154.9133"
             sodipodi:role="line"
             id="tspan72">15</tspan><tspan
             style="font-size:9.75px;font-variant:normal;font-weight:normal;writing-mode:lr-tb;fill:#262626;fill-opacity:1;fill-rule:nonzero;stroke:none;font-family:Helvetica;-inkscape-font-specification:Helvetica"
             x="-6 -0.579"
             y="-206.5508"
             sodipodi:role="line"
             id="tspan74">20</tspan><tspan
             style="font-size:9.75px;font-variant:normal;font-weight:normal;writing-mode:lr-tb;fill:#262626;fill-opacity:1;fill-rule:nonzero;stroke:none;font-family:Helvetica;-inkscape-font-specification:Helvetica"
             x="-6 -0.579"
             y="-258.18869"
             sodipodi:role="line"
             id="tspan76">25</tspan></text>
</g><rect
         transform="scale(1,-1)"
         y="-294.03378"
         x="55.159855"
         height="258.54004"
         width="328.93393"
         id="rect32146"
         style="fill:none;stroke:#000000;stroke-width:0.79754347;stroke-linejoin:round;stroke-miterlimit:4;stroke-opacity:1;stroke-dasharray:none;stroke-dashoffset:2.49999998" /><path
         sodipodi:nodetypes="csssssssssssc"
         transform="matrix(0.8,0,0,-0.8,0,318)"
         inkscape:connector-curvature="0"
         inkscape:original-d="m 160.83653,353.20625 c 0.1499,-0.59958 0.11873,-4.49996 0,-6.74524 -0.0876,-1.65577 -0.23542,-3.31384 -0.52463,-4.94651 -0.28747,-1.62282 -0.53571,-3.28797 -1.19915,-4.79662 -0.63874,-1.45248 -1.50726,-2.84415 -2.62315,-3.9722 -1.50573,-1.52214 -3.39099,-2.67104 -5.32125,-3.59746 -1.67412,-0.80349 -3.51249,-1.2285 -5.32124,-1.64884 -3.1285,-0.72703 -6.32115,-1.19174 -9.51829,-1.49894 -2.81182,-0.27017 -5.64469,-0.24982 -8.46902,-0.29979 -3.29716,-0.0583 -6.59549,-0.0311 -9.89302,0 -3.97273,0.0375 -7.94459,0.14045 -11.9166,0.22484 -6.345861,0.13482 -12.690322,0.3344 -19.036567,0.44969 -5.895344,0.1071 -17.687521,0.22484 -17.687521,0.22484"
         inkscape:path-effect="#path-effect32150"
         id="path32148"
         d="m 160.83653,353.20625 c 0.13797,-2.24559 0.13797,-4.49965 0,-6.74524 -0.10171,-1.65549 -0.27835,-3.30628 -0.52463,-4.94651 -0.24535,-1.63403 -0.56383,-3.27129 -1.19915,-4.79662 -0.61359,-1.47316 -1.51777,-2.82118 -2.62315,-3.9722 -1.4929,-1.55455 -3.34237,-2.74342 -5.32125,-3.59746 -1.7073,-0.73684 -3.50954,-1.22988 -5.32124,-1.64884 -3.13202,-0.72428 -6.31452,-1.23436 -9.51829,-1.49894 -2.81586,-0.23255 -5.64368,-0.2754 -8.46902,-0.29979 -3.2976,-0.0285 -6.59546,-0.0319 -9.89302,0 -3.97276,0.0385 -7.94483,0.12832 -11.9166,0.22484 -6.345427,0.1542 -12.690484,0.32541 -19.036567,0.44969 -5.895233,0.11545 -11.791259,0.1904 -17.687521,0.22484"
         style="fill:none;stroke:#000000;stroke-width:1px;stroke-linecap:butt;stroke-linejoin:miter;stroke-opacity:1" /><path
         sodipodi:nodetypes="cssssssssssssssssssssssssc"
         transform="matrix(0.8,0,0,-0.8,0,318)"
         inkscape:connector-curvature="0"
         inkscape:original-d="m 252.08466,353.16877 c 0,0 -0.0282,-4.39819 -0.11242,-6.59534 -0.10446,-2.72592 -0.19226,-5.45731 -0.48716,-8.16924 -0.30214,-2.77858 -0.64547,-5.56724 -1.31157,-8.28166 -0.38314,-1.56136 -0.88981,-3.09986 -1.53642,-4.57177 -0.84321,-1.91946 -1.80699,-3.80965 -3.03536,-5.50861 -1.25841,-1.74052 -2.75292,-3.32479 -4.3844,-4.72167 -1.37373,-1.17619 -2.93421,-2.125 -4.49683,-3.03536 -2.03693,-1.18668 -4.17104,-2.20805 -6.33303,-3.14778 -2.05545,-0.89342 -4.16762,-1.65733 -6.29556,-2.36084 -2.14712,-0.70985 -4.32923,-1.31439 -6.5204,-1.87367 -2.41097,-0.61539 -4.84543,-1.1386 -7.28489,-1.62904 -3.29867,-0.66318 -6.6188,-1.21607 -9.93667,-1.77536 -3.06,-0.51582 -6.13131,-0.96232 -9.19474,-1.45738 -3.75571,-0.60693 -7.50862,-1.23109 -11.26157,-1.85484 -2.84479,-0.47281 -5.68891,-0.94974 -8.5323,-1.43089 -3.26005,-0.55165 -6.52413,-1.08067 -9.77769,-1.66936 -3.00862,-0.54437 -6.00945,-1.13135 -9.00926,-1.72236 -4.31516,-0.85016 -8.63289,-1.69041 -12.93093,-2.62328 -3.79188,-0.82301 -7.57116,-1.70483 -11.34106,-2.62328 -4.04828,-0.98627 -8.08153,-2.03405 -12.1095,-3.10025 -3.49652,-0.92552 -6.98963,-1.86546 -10.46664,-2.86176 -3.60771,-1.03375 -7.204419,-2.10733 -10.784605,-3.23273 -3.450647,-1.08468 -6.891975,-2.20148 -10.307648,-3.39172 -3.066321,-1.0685 -6.103649,-2.21892 -9.141745,-3.36522 -2.108649,-0.79561 -6.306479,-2.4378 -6.306479,-2.4378"
         inkscape:path-effect="#path-effect32154"
         id="path32152"
         d="m 252.08466,353.16877 c -0.001,-2.19887 -0.0385,-4.39772 -0.11242,-6.59534 -0.0917,-2.72675 -0.23965,-5.4522 -0.48716,-8.16924 -0.25384,-2.7865 -0.61401,-5.57196 -1.31157,-8.28166 -0.40115,-1.5583 -0.91328,-3.08823 -1.53642,-4.57177 -0.81355,-1.93684 -1.81798,-3.79654 -3.03536,-5.50861 -1.24828,-1.75552 -2.72031,-3.35388 -4.3844,-4.72167 -1.39872,-1.14967 -2.92721,-2.13289 -4.49683,-3.03536 -2.04484,-1.1757 -4.16507,-2.21849 -6.33303,-3.14778 -2.06063,-0.88328 -4.16458,-1.66421 -6.29556,-2.36084 -2.1499,-0.70282 -4.32737,-1.31991 -6.5204,-1.87367 -2.4128,-0.60926 -4.8445,-1.14191 -7.28489,-1.62904 -3.29976,-0.65867 -6.61562,-1.23418 -9.93667,-1.77536 -3.06278,-0.49909 -6.13023,-0.96903 -9.19474,-1.45738 -3.75704,-0.59871 -7.50961,-1.22507 -11.26157,-1.85484 -2.84403,-0.47738 -5.68773,-0.95672 -8.5323,-1.43089 -3.26142,-0.54366 -6.52412,-1.08055 -9.77769,-1.66936 -3.00863,-0.54448 -6.00904,-1.13329 -9.00926,-1.72236 -4.31578,-0.84737 -8.63174,-1.69538 -12.93093,-2.62328 -3.79295,-0.81864 -7.57237,-1.69935 -11.34106,-2.62328 -4.04691,-0.99213 -8.08146,-2.03409 -12.1095,-3.10025 -3.49659,-0.9255 -6.98847,-1.86929 -10.46664,-2.86176 -3.60895,-1.02979 -7.202881,-2.1119 -10.784605,-3.23273 -3.452199,-1.0803 -6.893469,-2.19669 -10.307648,-3.39172 -3.064934,-1.07279 -6.107405,-2.20873 -9.141745,-3.36522 -2.105982,-0.80266 -4.208173,-1.61528 -6.306479,-2.4378"
         style="fill:none;stroke:#000000;stroke-width:1px;stroke-linecap:butt;stroke-linejoin:miter;stroke-opacity:1" /><path
         sodipodi:nodetypes="csssssssssssssssssssssssssssssssssssssssssc"
         transform="matrix(0.8,0,0,-0.8,0,318)"
         inkscape:connector-curvature="0"
         inkscape:original-d="m 68.576334,253.66988 c 0,0 7.184615,2.85144 10.811106,4.18666 4.021183,1.48053 8.05695,2.92692 12.135998,4.23965 3.330897,1.07196 6.695657,2.03857 10.069172,2.96775 4.87009,1.34138 9.75816,2.62483 14.67978,3.76269 2.2143,0.51194 4.44782,0.93747 6.67745,1.37789 5.32617,1.05208 10.63736,2.20414 16.00468,3.02075 3.63931,0.5537 7.30556,0.922 10.97009,1.27189 4.46159,0.426 8.92916,0.83898 13.40789,1.00692 2.78914,0.10458 5.58594,0.14441 8.37331,0 2.73142,-0.14151 5.4615,-0.41018 8.16133,-0.84793 2.66115,-0.43148 5.37997,-0.78153 7.89635,-1.74886 1.97157,-0.7579 3.85853,-1.8118 5.51154,-3.12674 0.91973,-0.73163 1.77633,-1.59133 2.3848,-2.59678 0.48603,-0.80314 0.73806,-1.73618 0.95392,-2.64978 0.17181,-0.72716 0.23893,-1.4791 0.26498,-2.22582 0.0253,-0.72469 -0.0239,-1.45234 -0.10599,-2.17282 -0.10157,-0.89169 -0.23995,-1.78419 -0.47696,-2.64978 -0.46795,-1.70899 -1.14061,-3.36002 -1.85485,-4.98159 -0.98406,-2.23413 -2.13485,-4.39469 -3.33872,-6.51846 -1.61226,-2.84422 -3.41312,-5.57824 -5.19357,-8.32031 -1.39279,-2.14504 -2.83381,-4.2588 -4.29265,-6.35948 -1.38688,-1.99705 -2.84026,-3.9472 -4.23965,-5.93551 -1.69503,-2.40837 -3.37627,-4.8266 -5.03458,-7.2604 -1.82729,-2.68181 -3.59096,-5.40656 -5.41577,-8.09006 -1.42133,-2.09016 -2.88575,-4.15079 -4.30946,-6.23934 -1.39914,-2.05251 -2.798,-4.10552 -4.15957,-6.18314 -1.76259,-2.68953 -3.48206,-5.40726 -5.19009,-8.13177 -1.93622,-3.08849 -3.80626,-6.21805 -5.73345,-9.31218 -1.39948,-2.24688 -2.86956,-4.45005 -4.23326,-6.71882 -1.08026,-1.79721 -2.08465,-3.63894 -3.12674,-5.45855 -1.25442,-2.19037 -2.5213,-4.37366 -3.76269,-6.57145 -1.39234,-2.46502 -2.77801,-4.934 -4.13366,-7.41939 -2.40681,-4.41256 -4.81967,-8.82339 -7.10141,-13.3019 -1.85427,-3.6395 -3.57723,-7.34444 -5.35256,-11.02309 -1.88191,-3.89949 -3.77808,-7.79234 -5.61754,-11.71203 -1.51114,-3.22008 -3.00421,-6.44898 -4.45163,-9.6982 -2.24737,-5.04496 -4.38843,-10.136614 -6.57146,-15.209744 C 102.06575,90.44501 100.91664,87.863372 99.84375,85.2498 98.467193,81.896493 97.186274,78.504702 95.869079,75.127636 93.790094,69.797469 91.683383,64.477721 89.668591,59.122959 87.728112,53.965701 85.874241,48.776237 83.99806,43.595242 82.342836,39.02441 79.069467,29.869376 79.069467,29.869376"
         inkscape:path-effect="#path-effect32158"
         id="path32156"
         d="m 68.576334,253.66988 c 3.586186,1.44023 7.190258,2.83593 10.811106,4.18666 4.015231,1.49785 8.052072,2.94073 12.135998,4.23965 3.334717,1.06063 6.699295,2.02478 10.069172,2.96775 4.86526,1.36141 9.7451,2.67961 14.67978,3.76269 2.2199,0.48723 4.44995,0.92667 6.67745,1.37789 5.32172,1.078 10.63364,2.22409 16.00468,3.02075 3.64177,0.54017 7.30545,0.91887 10.97009,1.27189 4.46181,0.42981 8.92925,0.82196 13.40789,1.00692 2.78979,0.11521 5.58517,0.14991 8.37331,0 2.73197,-0.14689 5.45154,-0.47071 8.16133,-0.84793 2.67576,-0.37248 5.36587,-0.80276 7.89635,-1.74886 1.98682,-0.74283 3.85627,-1.80035 5.51154,-3.12674 0.92239,-0.73913 1.78984,-1.57544 2.3848,-2.59678 0.47461,-0.81474 0.76314,-1.72638 0.95392,-2.64978 0.15137,-0.73266 0.24346,-1.478 0.26498,-2.22582 0.0209,-0.72544 -0.0246,-1.45166 -0.10599,-2.17282 -0.10074,-0.89247 -0.25664,-1.77908 -0.47696,-2.64978 -0.43527,-1.72014 -1.1187,-3.36715 -1.85485,-4.98159 -1.01317,-2.22198 -2.13084,-4.39603 -3.33872,-6.51846 -1.61738,-2.842 -3.39509,-5.58931 -5.19357,-8.32031 -1.40669,-2.13606 -2.82691,-4.2635 -4.29265,-6.35948 -1.39339,-1.99253 -2.82758,-3.95617 -4.23965,-5.93551 -1.71043,-2.39757 -3.38845,-4.81824 -5.03458,-7.2604 -1.81383,-2.69095 -3.58892,-5.40794 -5.41577,-8.09006 -1.42292,-2.08909 -2.87705,-4.15674 -4.30946,-6.23934 -1.40771,-2.04669 -2.79443,-4.10782 -4.15957,-6.18314 -1.76724,-2.6866 -3.49833,-5.39701 -5.19009,-8.13177 -1.91773,-3.10004 -3.78494,-6.2314 -5.73345,-9.31218 -1.415,-2.23725 -2.87293,-4.44792 -4.23326,-6.71882 -1.07758,-1.79889 -2.09303,-3.6341 -3.12674,-5.45855 -1.2443,-2.19614 -2.51528,-4.37707 -3.76269,-6.57145 -1.3991,-2.46122 -2.76847,-4.9392 -4.13366,-7.41939 -2.42386,-4.40353 -4.83518,-8.81521 -7.10141,-13.3019 -1.8416,-3.64602 -3.58653,-7.33987 -5.35256,-11.02309 -1.87201,-3.90426 -3.76797,-7.79709 -5.61754,-11.71203 -1.51948,-3.21624 -3.00762,-6.44737 -4.45163,-9.6982 -2.24203,-5.04737 -4.37729,-10.141383 -6.57146,-15.209744 C 102.06004,90.447429 100.92209,87.861173 99.84375,85.2498 98.460189,81.899277 97.175425,78.509013 95.869079,75.127636 93.807261,69.790778 91.691184,64.474806 89.668591,59.122959 87.720583,53.968467 85.859625,48.78158 83.99806,43.595242 82.355751,39.019754 80.712887,34.444465 79.069467,29.869376"
         style="fill:none;stroke:#000000;stroke-width:1px;stroke-linecap:butt;stroke-linejoin:miter;stroke-opacity:1" /><path
         sodipodi:nodetypes="cssssssssssssssssssssssssssssc"
         transform="matrix(0.8,0,0,-0.8,0,318)"
         inkscape:connector-curvature="0"
         inkscape:original-d="m 343.19964,353.19566 c 0,0 0.021,-4.45829 -0.15898,-6.67745 -0.20756,-2.55981 -0.59047,-5.10643 -1.05992,-7.63137 -0.51068,-2.74671 -1.00949,-5.51591 -1.90784,-8.16132 -0.92282,-2.71746 -2.07423,-5.38242 -3.55071,-7.84335 -1.78872,-2.98135 -4.0152,-5.69977 -6.35947,-8.26732 -2.38534,-2.61253 -5.04238,-4.97946 -7.79036,-7.20741 -4.48876,-3.6393 -9.32003,-6.84339 -14.14983,-10.01617 -5.0288,-3.30351 -10.30715,-6.21113 -15.42172,-9.38022 -3.99526,-2.47554 -7.95257,-5.01182 -11.92402,-7.52538 -3.87183,-2.4505 -7.75391,-4.88504 -11.60604,-7.36639 -4.09846,-2.64002 -8.22016,-5.24698 -12.24199,-8.00234 -4.8248,-3.30548 -9.58151,-6.71309 -14.25582,-10.22816 -3.21712,-2.41927 -6.33445,-4.96856 -9.48622,-7.47238 -3.03071,-2.40765 -6.10442,-4.76375 -9.06225,-7.2604 -2.11317,-1.78368 -4.14216,-3.66484 -6.20048,-5.51154 -3.193,-2.86472 -6.4486,-5.66341 -9.53922,-8.63829 -3.16803,-3.04939 -6.21344,-6.22567 -9.22123,-9.43322 -2.90914,-3.10234 -5.71387,-6.30124 -8.5323,-9.48622 -2.63866,-2.98183 -5.27029,-5.97063 -7.84335,-9.00925 -2.76545,-3.26581 -5.54312,-6.52519 -8.16133,-9.91018 -3.16495,-4.09184 -6.15711,-8.3162 -9.11524,-12.55997 -3.306,-4.74283 -6.46722,-9.58526 -9.64521,-14.4148 -3.14597,-4.78087 -6.36063,-9.52062 -9.32723,-14.41481 -3.4732,-5.72997 -6.68363,-11.61616 -9.91018,-17.48856 -2.9683,-5.40237 -5.91434,-10.81947 -8.69128,-16.32265 -4.67377,-9.26218 -9.1539,-18.625346 -13.40789,-28.087679 C 110.47789,75.644143 106.63317,66.273206 102.81151,56.897143 100.97033,52.379996 99.173848,47.843849 97.458947,43.277268 95.783326,38.815285 92.636346,29.81638 92.636346,29.81638"
         inkscape:path-effect="#path-effect32162"
         id="path32160"
         d="m 343.19964,353.19566 c 0.0813,-2.22631 0.0281,-4.45753 -0.15898,-6.67745 -0.21579,-2.56006 -0.60929,-5.10206 -1.05992,-7.63137 -0.49042,-2.75263 -1.05062,-5.5 -1.90784,-8.16132 -0.88177,-2.73752 -2.07619,-5.37407 -3.55071,-7.84335 -1.78598,-2.99086 -3.97573,-5.72709 -6.35947,-8.26732 -2.42256,-2.5816 -5.04893,-4.96732 -7.79036,-7.20741 -4.47759,-3.65876 -9.26048,-6.92917 -14.14983,-10.01617 -5.08771,-3.21223 -10.29549,-6.22981 -15.42172,-9.38022 -4.00434,-2.46093 -7.95837,-5.00258 -11.92402,-7.52538 -3.86613,-2.45948 -7.74355,-4.9012 -11.60604,-7.36639 -4.1096,-2.6229 -8.20259,-5.27256 -12.24199,-8.00234 -4.84648,-3.2752 -9.61615,-6.66603 -14.25582,-10.22816 -3.19283,-2.45131 -6.32306,-4.9829 -9.48622,-7.47238 -3.04186,-2.39401 -6.11555,-4.75018 -9.06225,-7.2604 -2.10513,-1.79331 -4.1433,-3.66342 -6.20048,-5.51154 -3.19125,-2.86694 -6.43003,-5.68255 -9.53922,-8.63829 -3.18748,-3.03017 -6.23524,-6.20432 -9.22123,-9.43322 -2.88761,-3.12252 -5.71837,-6.29713 -8.5323,-9.48622 -2.63441,-2.98564 -5.25428,-5.98421 -7.84335,-9.00925 -2.78287,-3.25148 -5.53076,-6.5343 -8.16133,-9.91018 -3.18008,-4.08109 -6.18627,-8.29507 -9.11524,-12.55997 -3.27296,-4.76578 -6.4504,-9.59628 -9.64521,-14.4148 -3.16277,-4.7702 -6.34374,-9.53048 -9.32723,-14.41481 -3.49316,-5.71871 -6.71119,-11.60024 -9.91018,-17.48856 -2.94268,-5.41652 -5.87079,-10.84151 -8.69128,-16.32265 -4.74758,-9.22612 -9.18859,-18.608318 -13.40789,-28.087679 C 110.51207,75.628289 106.60554,66.28497 102.81151,56.897143 100.98369,52.374454 99.181801,47.840972 97.458947,43.277268 95.775513,38.817983 94.167671,34.330161 92.636346,29.81638"
         style="fill:none;stroke:#000000;stroke-width:1px;stroke-linecap:butt;stroke-linejoin:miter;stroke-opacity:1" /><path
         sodipodi:nodetypes="csssssssssssssssssssssssssssssssssssssssssssc"
         transform="matrix(0.8,0,0,-0.8,0,318)"
         inkscape:connector-curvature="0"
         inkscape:original-d="m 108.32305,30.028363 c 0,0 4.54279,12.060658 6.99542,18.018511 1.81898,4.418608 3.82057,8.75982 5.72353,13.142914 2.05444,4.73199 3.98774,9.517969 6.14749,14.202827 2.42115,5.251865 4.99398,10.434041 7.63137,15.580712 3.34477,6.527082 6.89844,12.945093 10.38714,19.396393 2.91052,5.38213 5.69639,10.83593 8.79728,16.11067 3.79022,6.44731 7.85503,12.73202 11.97701,18.97244 5.27715,7.98927 10.49091,16.04212 16.32265,23.63604 3.61777,4.71096 7.65578,9.08438 11.55304,13.56688 2.75866,3.17291 5.54016,6.32665 8.37331,9.43322 3.62127,3.97075 7.1946,7.99367 11.02309,11.76503 3.36754,3.31728 6.9211,6.4432 10.49313,9.53921 3.98237,3.45167 8.04834,6.80906 12.189,10.06917 4.58024,3.6062 9.24167,7.1125 13.99084,10.49313 4.16716,2.96633 8.37094,5.89101 12.71895,8.58529 4.38437,2.71681 8.91575,5.19305 13.46089,7.63137 5.1656,2.77117 10.36245,5.49679 15.6867,7.94935 4.97018,2.28946 10.01914,4.42253 15.15675,6.30648 4.80458,1.76183 9.69444,3.29982 14.62679,4.66361 4.39009,1.21386 8.81487,2.34387 13.3019,3.12674 2.43489,0.42483 4.90219,0.65587 7.36639,0.84793 2.15044,0.1676 4.31099,0.36859 6.46547,0.26498 1.54963,-0.0745 3.11496,-0.22374 4.61062,-0.63595 1.09126,-0.30076 2.14433,-0.76259 3.12674,-1.32489 0.66846,-0.3826 1.31641,-0.82714 1.85484,-1.37788 0.3632,-0.37151 0.66178,-0.81066 0.90093,-1.2719 0.41406,-0.79858 0.78617,-1.6516 0.90093,-2.54379 0.13344,-1.03744 -0.0565,-2.10175 -0.26498,-3.12674 -0.45211,-2.22252 -1.26003,-4.36672 -2.11983,-6.46547 -1.0542,-2.57329 -2.41857,-5.00943 -3.70969,-7.47238 -1.78047,-3.39643 -3.66934,-6.7354 -5.56454,-10.06917 -2.7506,-4.83847 -5.60827,-9.6153 -8.4263,-14.41481 -1.61988,-2.7589 -3.29122,-5.48787 -4.8756,-8.26731 -2.26704,-3.977 -4.45003,-8.00162 -6.62445,-12.03001 -2.61995,-4.85378 -5.23998,-9.70883 -7.73737,-14.62679 -2.39313,-4.71265 -4.6883,-9.47512 -6.94242,-14.25582 -2.26892,-4.81208 -4.46959,-9.65658 -6.62445,-14.5208 -3.27888,-7.40149 -6.56017,-14.80517 -9.59221,-22.31116 -3.60792,-8.9316 -6.94088,-17.97325 -10.22816,-27.02777 -2.34882,-6.46963 -4.61538,-12.969957 -6.78344,-19.502385 -1.92,-5.785019 -3.67261,-11.624258 -5.51154,-17.435559 -1.80014,-5.688738 -3.64595,-11.363182 -5.40555,-17.06459 -1.04985,-3.40169 -2.08553,-6.808052 -3.07375,-10.228155 -1.66915,-5.776739 -4.8226,-17.382564 -4.8226,-17.382564"
         inkscape:path-effect="#path-effect32185"
         id="path32183"
         d="m 108.32305,30.028363 c 2.14884,6.075084 4.48208,12.084942 6.99542,18.018511 1.86373,4.39995 3.82621,8.757344 5.72353,13.142914 2.04837,4.734718 4.02099,9.502679 6.14749,14.202827 2.38413,5.269584 4.96023,10.450641 7.63137,15.580712 3.38717,6.505255 6.92748,12.929393 10.38714,19.396393 2.88645,5.39552 5.71787,10.82291 8.79728,16.11067 3.76416,6.46357 7.89195,12.70674 11.97701,18.97244 5.23112,8.02353 10.40577,16.10396 16.32265,23.63604 3.66986,4.67167 7.61492,9.11901 11.55304,13.56688 2.78715,3.14792 5.57218,6.29774 8.37331,9.43322 3.58099,4.00843 7.19084,7.9961 11.02309,11.76503 3.37087,3.31517 6.90878,6.4561 10.49313,9.53921 3.99565,3.43689 8.0516,6.8043 12.189,10.06917 4.5767,3.61152 9.2522,7.09687 13.99084,10.49313 4.15836,2.98036 8.36799,5.89388 12.71895,8.58529 4.38723,2.71384 8.91206,5.19809 13.46089,7.63137 5.16955,2.76532 10.37518,5.46761 15.6867,7.94935 4.95933,2.31718 10.01027,4.44154 15.15675,6.30648 4.81226,1.74383 9.70462,3.25968 14.62679,4.66361 4.38287,1.25011 8.80031,2.414 13.3019,3.12674 2.44181,0.38662 4.90295,0.63958 7.36639,0.84793 2.15051,0.18188 4.30826,0.33 6.46547,0.26498 1.5548,-0.0469 3.11561,-0.20636 4.61062,-0.63595 1.09039,-0.31332 2.13803,-0.7685 3.12674,-1.32489 0.67396,-0.37926 1.32827,-0.8115 1.85484,-1.37788 0.3546,-0.38141 0.64574,-0.81793 0.90093,-1.2719 0.44352,-0.789 0.78503,-1.64612 0.90093,-2.54379 0.13463,-1.04272 -0.0383,-2.1001 -0.26498,-3.12674 -0.4898,-2.21781 -1.23239,-4.37476 -2.11983,-6.46547 -1.08696,-2.56076 -2.39024,-5.0233 -3.70969,-7.47238 -1.81888,-3.3761 -3.67192,-6.73384 -5.56454,-10.06917 -2.74685,-4.84072 -5.57681,-9.63379 -8.4263,-14.41481 -1.63796,-2.74825 -3.28253,-5.4928 -4.8756,-8.26731 -2.27952,-3.97004 -4.45275,-7.99998 -6.62445,-12.03001 -2.61665,-4.85571 -5.23179,-9.71285 -7.73737,-14.62679 -2.40104,-4.70891 -4.70091,-9.46892 -6.94242,-14.25582 -2.25615,-4.81816 -4.45328,-9.66376 -6.62445,-14.5208 -3.30383,-7.39085 -6.54816,-14.80958 -9.59221,-22.31116 -3.62226,-8.92648 -6.9592,-17.96594 -10.22816,-27.02777 -2.33567,-6.47466 -4.63727,-12.962468 -6.78344,-19.502385 -1.90056,-5.791489 -3.67872,-11.622276 -5.51154,-17.435559 -1.79415,-5.690645 -3.64077,-11.364768 -5.40555,-17.06459 -1.05295,-3.400773 -2.07673,-6.810567 -3.07375,-10.228155 -1.68405,-5.772595 -3.29177,-11.567458 -4.8226,-17.382564"
         style="fill:none;stroke:#000000;stroke-width:1px;stroke-linecap:butt;stroke-linejoin:miter;stroke-opacity:1" /><text
         transform="matrix(0,1.0356869,0.96554278,0,0,0)"
         sodipodi:linespacing="125%"
         id="text46288-7"
         y="38.851376"
         x="152.51569"
         style="font-size:20.75273705px;font-style:normal;font-weight:normal;line-height:125%;letter-spacing:0px;word-spacing:0px;fill:#000000;fill-opacity:1;stroke:none;font-family:Sans"
         xml:space="preserve"><tspan
           y="38.851376"
           x="152.51569"
           id="tspan46290-8"
           sodipodi:role="line">C</tspan></text>
<text
         transform="scale(1,-1)"
         sodipodi:linespacing="125%"
         id="text46313-4"
         y="-6.5158358"
         x="212.371"
         style="font-size:20.99381447px;font-style:normal;font-weight:normal;line-height:125%;letter-spacing:0px;word-spacing:0px;fill:#000000;fill-opacity:1;stroke:none;font-family:Sans"
         xml:space="preserve"><tspan
           y="-6.5158358"
           x="212.371"
           id="tspan46315-5"
           sodipodi:role="line">μ</tspan></text>
<path
         sodipodi:nodetypes="cssssssssssssssssssssssssssssssssssssssssssssc"
         transform="matrix(0.8,0,0,-0.8,0,318)"
         inkscape:connector-curvature="0"
         inkscape:original-d="m 110.8468,30.109188 c 0,0 3.21632,8.426955 4.94651,12.591117 1.95726,4.71068 4.06591,9.357213 6.14566,14.015112 1.723,3.858896 3.49317,7.696559 5.2463,11.541858 2.26775,4.974069 4.44919,9.988787 6.82019,14.914478 2.06431,4.288549 4.23854,8.524075 6.44545,12.741011 2.72636,5.209486 5.50989,10.390256 8.39408,15.514056 3.25142,5.77619 6.56644,11.51929 10.04292,17.16289 2.74758,4.46033 5.64487,8.82733 8.54397,13.1907 3.41284,5.13658 6.7599,10.32405 10.41765,15.28921 4.61896,6.26993 9.56216,12.29789 14.53974,18.2871 4.01823,4.83489 8.09927,9.62314 12.36628,14.23995 4.2806,4.63151 8.67203,9.16922 13.26564,13.49048 3.52113,3.31237 7.25449,6.39254 10.94228,9.51829 3.83097,3.24711 7.63497,6.53301 11.61681,9.59323 3.91912,3.01202 7.95387,5.87698 12.06648,8.61892 5.5546,3.70334 11.18868,7.30478 17.013,10.56755 5.39022,3.01959 10.94818,5.74179 16.56331,8.31913 4.60036,2.11156 9.25717,4.11847 14.01512,5.84587 3.63943,1.32132 7.35329,2.44154 11.09217,3.44757 3.68692,0.99204 7.38686,2.01228 11.16712,2.5482 3.02264,0.42852 6.09246,0.62874 9.14355,0.52463 1.90593,-0.065 3.83028,-0.23697 5.6761,-0.71629 1.51132,-0.39246 3.05032,-0.87692 4.34564,-1.74886 0.61146,-0.4116 1.13963,-0.96898 1.53687,-1.58986 0.50035,-0.78202 0.78519,-1.69527 1.00692,-2.59679 0.26325,-1.0703 0.35042,-2.18372 0.37097,-3.28573 0.0307,-1.64722 -0.0776,-3.30741 -0.37097,-4.92859 -0.28171,-1.55682 -0.80097,-3.0648 -1.32489,-4.55763 -1.02555,-2.92212 -2.32995,-5.73919 -3.55071,-8.58529 -1.30307,-3.03799 -2.61044,-6.0758 -4.02766,-9.06225 -1.57835,-3.32598 -3.35065,-6.55667 -4.98159,-9.85718 -2.30311,-4.66078 -4.52035,-9.3635 -6.78344,-14.04384 -1.60616,-3.32173 -3.25337,-6.62385 -4.8226,-9.96318 -1.59365,-3.39128 -3.12023,-6.8137 -4.66362,-10.22815 -1.4591,-3.22798 -2.91091,-6.45931 -4.34564,-9.6982 -1.31996,-2.97981 -2.64926,-5.95584 -3.92168,-8.95626 -2.28874,-5.39697 -4.48537,-10.83271 -6.67744,-16.26966 -2.11717,-5.25117 -4.25177,-10.49643 -6.25349,-15.79269 -1.89849,-5.02311 -3.64572,-10.1021 -5.45855,-15.15675 -2.22797,-6.21218 -4.55149,-12.39138 -6.65926,-18.645367 -1.72338,-5.113477 -3.26268,-10.28716 -4.89378,-15.430818 -1.6077,-5.069863 -3.26328,-10.124794 -4.8226,-15.209743 -1.75013,-5.707167 -3.43184,-11.435321 -5.08758,-17.170582 -1.26734,-4.38987 -2.50792,-8.787641 -3.7097,-13.195909 -0.5094,-1.868546 -1.48387,-5.617536 -1.48387,-5.617536"
         inkscape:path-effect="#path-effect32207"
         id="path32205"
         d="m 110.8468,30.109188 c 1.56046,4.231046 3.20978,8.429319 4.94651,12.591117 1.96459,4.70784 4.04073,9.368322 6.14566,14.015112 1.74379,3.849547 3.50749,7.690058 5.2463,11.541858 2.24928,4.982607 4.45721,9.984774 6.82019,14.914478 2.05739,4.292176 4.23141,8.527504 6.44545,12.741011 2.73508,5.205086 5.53172,10.377866 8.39408,15.514056 3.22705,5.7906 6.53835,11.53591 10.04292,17.16289 2.76959,4.44689 5.6587,8.81798 8.54397,13.1907 3.39676,5.14791 6.79026,10.30112 10.41765,15.28921 4.58117,6.29964 9.52736,12.32483 14.53974,18.2871 4.04572,4.81243 8.1375,9.58755 12.36628,14.23995 4.24337,4.66845 8.62659,9.21499 13.26564,13.49048 3.55507,3.27646 7.25619,6.38996 10.94228,9.51829 3.82926,3.24984 7.6456,6.51847 11.61681,9.59323 3.90904,3.02662 7.96313,5.86146 12.06648,8.61892 5.54263,3.72467 11.18203,7.31275 17.013,10.56755 5.39619,3.01212 10.94959,5.73497 16.56331,8.31913 4.59957,2.11732 9.24607,4.14432 14.01512,5.84587 3.64749,1.30139 7.36096,2.41033 11.09217,3.44757 3.6809,1.02325 7.38927,1.97907 11.16712,2.5482 3.02356,0.4555 6.08894,0.66161 9.14355,0.52463 1.90749,-0.0855 3.81148,-0.30517 5.6761,-0.71629 1.53597,-0.33866 3.07466,-0.82231 4.34564,-1.74886 0.59889,-0.4366 1.13167,-0.9693 1.53687,-1.58986 0.51043,-0.78172 0.80828,-1.68456 1.00692,-2.59679 0.23485,-1.0785 0.33807,-2.18244 0.37097,-3.28573 0.0492,-1.65011 -0.0586,-3.30757 -0.37097,-4.92859 -0.29971,-1.55514 -0.78564,-3.0685 -1.32489,-4.55763 -1.05462,-2.91235 -2.31581,-5.74469 -3.55071,-8.58529 -1.31799,-3.03175 -2.60769,-6.0769 -4.02766,-9.06225 -1.58138,-3.3247 -3.32218,-6.57073 -4.98159,-9.85718 -2.34327,-4.64084 -4.52394,-9.36165 -6.78344,-14.04384 -1.60359,-3.32299 -3.24703,-6.62681 -4.8226,-9.96318 -1.6001,-3.38831 -3.1298,-6.80933 -4.66362,-10.22815 -1.45004,-3.23207 -2.90388,-6.46243 -4.34564,-9.6982 -1.32645,-2.97697 -2.64271,-5.95859 -3.92168,-8.95626 -2.30054,-5.39205 -4.47989,-10.83482 -6.67744,-16.26966 -2.12249,-5.2492 -4.26245,-10.49223 -6.25349,-15.79269 -1.88833,-5.02701 -3.64186,-10.10341 -5.45855,-15.15675 -2.23275,-6.21066 -4.5614,-12.38786 -6.65926,-18.645367 -1.71527,-5.116315 -3.27518,-10.283104 -4.89378,-15.430818 -1.59535,-5.073775 -3.2479,-10.129522 -4.8226,-15.209743 -1.76742,-5.701947 -3.43652,-11.433861 -5.08758,-17.170582 -1.26374,-4.390959 -2.51703,-8.785114 -3.7097,-13.195909 -0.50554,-1.869606 -1.00017,-3.742161 -1.48387,-5.617536"
         style="fill:none;stroke:#000000;stroke-width:1px;stroke-linecap:butt;stroke-linejoin:miter;stroke-opacity:1" /><path
         sodipodi:nodetypes="cssssssssssssssssssssssssc"
         transform="matrix(0.8,0,0,-0.8,0,318)"
         inkscape:connector-curvature="0"
         inkscape:original-d="m 434.56409,352.93068 c 0.0208,-0.0495 0.24109,-3.92517 -0.42396,-11.60603 -0.1711,-1.97616 -1.49936,-17.32262 -1.74886,-19.29041 -0.17696,-1.39566 -0.77631,-2.81598 -1.21824,-4.1516 -0.63876,-1.93048 -1.7886,-4.462 -2.82228,-6.21308 -1.98873,-3.36897 -2.62015,-4.94496 -5.01191,-8.04084 -2.90325,-3.75794 -6.11961,-7.26415 -9.25597,-10.82986 -2.81524,-3.20063 -5.71659,-6.3245 -8.58144,-9.48081 -3.79155,-4.1773 -7.62879,-8.31329 -11.39197,-12.51617 -3.3533,-3.74512 -6.69132,-7.50464 -9.96796,-11.31701 -3.02837,-3.52351 -6.04332,-7.0604 -8.95619,-10.67997 -2.47339,-3.07346 -4.86979,-6.20897 -7.23239,-9.36839 -2.94627,-3.93995 -5.83296,-7.92519 -8.6564,-11.95407 -3.06597,-4.37495 -6.09139,-8.78042 -8.99365,-13.26564 -2.99813,-4.63339 -5.87607,-9.34485 -8.69387,-14.09006 -3.04799,-5.13284 -6.0441,-10.2992 -8.88123,-15.55153 -2.32579,-4.30569 -4.4834,-8.70041 -6.6703,-13.07827 -2.85847,-5.72224 -5.75311,-11.42915 -8.43155,-17.23784 -2.23487,-4.84672 -4.24891,-9.79226 -6.3705,-14.68963 -1.85036,-4.27127 -3.76463,-8.5155 -5.54609,-12.81596 -2.05154,-4.95242 -3.9994,-9.94763 -5.92083,-14.95196 -1.3997,-3.64549 -2.75472,-7.30822 -4.08461,-10.97975 -1.72755,-4.769388 -3.40948,-9.555416 -5.05893,-14.352374 -2.21051,-6.428635 -4.38323,-12.870685 -6.48293,-19.336358 -1.98165,-6.102148 -3.89687,-12.226 -5.77093,-18.362046 -1.89907,-6.217941 -5.54609,-18.699308 -5.54609,-18.699308"
         inkscape:path-effect="#path-effect32211"
         id="path32209"
         d="m 434.56409,352.93068 c -0.17634,-3.86729 -0.31767,-7.73618 -0.42396,-11.60603 -0.17761,-6.46627 -0.26451,-12.99431 -1.74886,-19.29041 -0.33111,-1.40448 -0.73114,-2.79332 -1.21824,-4.1516 -0.76853,-2.14307 -1.75149,-4.2039 -2.82228,-6.21308 -1.48667,-2.78952 -3.14701,-5.48864 -5.01191,-8.04084 -2.80322,-3.83632 -6.0526,-7.32075 -9.25597,-10.82986 -2.87384,-3.14813 -5.71715,-6.32399 -8.58144,-9.48081 -3.79082,-4.17798 -7.61839,-8.32261 -11.39197,-12.51617 -3.36262,-3.73687 -6.6822,-7.51238 -9.96796,-11.31701 -3.03691,-3.51647 -6.04542,-7.05839 -8.95619,-10.67997 -2.4716,-3.07517 -4.87209,-6.20699 -7.23239,-9.36839 -2.94334,-3.94233 -5.82443,-7.93098 -8.6564,-11.95407 -3.07533,-4.3688 -6.09316,-8.77886 -8.99365,-13.26564 -2.99627,-4.63495 -5.86636,-9.35028 -8.69387,-14.09006 -3.05862,-5.12718 -6.06878,-10.2853 -8.88123,-15.55153 -2.30541,-4.31681 -4.47659,-8.70365 -6.6703,-13.07827 -2.86746,-5.71819 -5.77499,-11.41867 -8.43155,-17.23784 -2.21653,-4.85529 -4.25635,-9.78889 -6.3705,-14.68963 -1.84383,-4.27413 -3.74446,-8.52387 -5.54609,-12.81596 -2.07485,-4.94299 -4.01764,-9.94037 -5.92083,-14.95196 -1.38635,-3.65063 -2.75185,-7.30922 -4.08461,-10.97975 -1.73128,-4.768098 -3.40722,-9.55613 -5.05893,-14.352374 -2.21353,-6.427687 -4.38364,-12.870455 -6.48293,-19.336358 -1.98126,-6.102367 -3.89936,-12.22515 -5.77093,-18.362046 -1.89654,-6.21878 -3.74531,-12.452128 -5.54609,-18.699308"
         style="fill:none;stroke:#000000;stroke-width:1px;stroke-linecap:butt;stroke-linejoin:miter;stroke-opacity:1" /><path
         sodipodi:nodetypes="cssssssssssssssssssssssssc"
         transform="matrix(0.8,0,0,-0.8,0,318)"
         inkscape:connector-curvature="0"
         inkscape:original-d="m 479.82235,311.5411 c 0,0 -5.98762,-2.60515 -8.96703,-3.94018 -4.49907,-2.01598 -9.04008,-3.94751 -13.45301,-6.14566 -4.98281,-2.48202 -9.84603,-5.20063 -14.68964,-7.9444 -4.15663,-2.35462 -8.30811,-4.72744 -12.3288,-7.30734 -3.41495,-2.19122 -6.72939,-4.53869 -10.00544,-6.93261 -3.81866,-2.79042 -7.56085,-5.68701 -11.24207,-8.65639 -3.19431,-2.57663 -6.31662,-5.24269 -9.40586,-7.9444 -2.81585,-2.46262 -5.60651,-4.95629 -8.31913,-7.53219 -3.06796,-2.91333 -6.08385,-5.88488 -8.99366,-8.95618 -2.92655,-3.08897 -5.74147,-6.28392 -8.5065,-9.51828 -2.87263,-3.36022 -5.67291,-6.78375 -8.39408,-10.26776 -2.86796,-3.67195 -5.63032,-7.42626 -8.3566,-11.20459 -2.47776,-3.4339 -4.92274,-6.89318 -7.26987,-10.41766 -2.67371,-4.01488 -5.2418,-8.10036 -7.75703,-12.21638 -2.45532,-4.01798 -4.8191,-8.09174 -7.15745,-12.1789 -2.62686,-4.59144 -5.24396,-9.19048 -7.71955,-13.86522 -2.19866,-4.1518 -4.28781,-8.36163 -6.33304,-12.59112 -2.69809,-5.57959 -5.29566,-11.20813 -7.83197,-16.8631 -2.27812,-5.0793 -4.46531,-10.19922 -6.63282,-15.32669 -2.80446,-6.63424 -5.61797,-13.26661 -8.24418,-19.97341 -1.69036,-4.31683 -3.25169,-8.683239 -4.83409,-13.0408 -1.48879,-4.099783 -2.95664,-8.207371 -4.38441,-12.328802 -1.45852,-4.210219 -2.87617,-8.434643 -4.27199,-12.666065 -1.51715,-4.599235 -3.01224,-9.205994 -4.45935,-13.827744 -2.06744,-6.602948 -6.03325,-19.860989 -6.03325,-19.860989"
         inkscape:path-effect="#path-effect32215"
         id="path32213"
         d="m 479.82235,311.5411 c -2.98831,-1.31498 -5.97732,-2.62838 -8.96703,-3.94018 -4.51506,-1.98108 -9.03364,-3.95943 -13.45301,-6.14566 -4.9903,-2.46866 -9.84634,-5.19853 -14.68964,-7.9444 -4.15634,-2.35641 -8.30762,-4.72704 -12.3288,-7.30734 -3.41548,-2.19163 -6.73336,-4.53215 -10.00544,-6.93261 -3.81378,-2.79786 -7.5672,-5.67843 -11.24207,-8.65639 -3.18869,-2.58398 -6.31782,-5.24095 -9.40586,-7.9444 -2.81475,-2.4642 -5.59576,-4.96736 -8.31913,-7.53219 -3.08038,-2.90106 -6.08701,-5.88107 -8.99366,-8.95618 -2.92328,-3.09271 -5.74456,-6.28067 -8.5065,-9.51828 -2.86933,-3.3635 -5.67535,-6.7814 -8.39408,-10.26776 -2.86534,-3.67436 -5.63308,-7.42391 -8.3566,-11.20459 -2.47522,-3.436 -4.91445,-6.89846 -7.26987,-10.41766 -2.68325,-4.009 -5.25703,-8.09062 -7.75703,-12.21638 -2.4403,-4.02724 -4.81037,-8.09663 -7.15745,-12.1789 -2.63675,-4.58609 -5.24512,-9.18955 -7.71955,-13.86522 -2.19764,-4.15264 -4.28888,-8.36082 -6.33304,-12.59112 -2.69664,-5.58058 -5.31182,-11.20063 -7.83197,-16.8631 -2.26353,-5.08588 -4.45021,-10.20556 -6.63282,-15.32669 -2.82411,-6.62629 -5.64215,-13.25681 -8.24418,-19.97341 -1.67475,-4.323023 -3.25946,-8.680311 -4.83409,-13.0408 -1.48145,-4.10247 -2.95414,-8.208209 -4.38441,-12.328802 -1.46109,-4.209379 -2.87784,-8.434044 -4.27199,-12.666065 -1.51533,-4.59987 -3.004,-9.208547 -4.45935,-13.827744 -2.07924,-6.59937 -4.09046,-13.220168 -6.03325,-19.860989"
         style="fill:none;stroke:#000000;stroke-width:1px;stroke-linecap:butt;stroke-linejoin:miter;stroke-opacity:1" /><path
         sodipodi:nodetypes="cssssssssssssssssc"
         transform="matrix(0.8,0,0,-0.8,0,318)"
         inkscape:connector-curvature="0"
         inkscape:original-d="m 480.03434,294.05255 c 0,0 -7.21807,-3.22514 -10.75811,-4.98159 -4.15533,-2.06173 -8.24766,-4.25206 -12.29499,-6.51846 -4.54665,-2.546 -9.08143,-5.12543 -13.46089,-7.94935 -4.80668,-3.09939 -9.44273,-6.4601 -14.04384,-9.85718 -4.65915,-3.43993 -9.26403,-6.95986 -13.72586,-10.65212 -3.37485,-2.79276 -6.67166,-5.68436 -9.85719,-8.69128 -3.56082,-3.36116 -6.97859,-6.87404 -10.33414,-10.44014 -4.30378,-4.57384 -8.5401,-9.21858 -12.55997,-14.04384 -4.52113,-5.42695 -8.80064,-11.05518 -12.98392,-16.74662 -3.02125,-4.11047 -5.93624,-8.30099 -8.74428,-12.55996 -4.26306,-6.4658 -8.35236,-13.04833 -12.29498,-19.71437 -3.25718,-5.50712 -6.37377,-11.09872 -9.38023,-16.74662 -3.62682,-6.81331 -7.12606,-13.69751 -10.44014,-20.66829 -3.79598,-7.98439 -7.36313,-16.07827 -10.8111,-24.219 -2.7762,-6.55467 -5.39548,-13.175908 -7.94935,-19.820359 C 306.742,80.938382 303.1957,71.390059 299.84922,61.77274 296.18301,51.236563 289.40909,29.975367 289.40909,29.975367"
         inkscape:path-effect="#path-effect32219"
         id="path32217"
         d="m 480.03434,294.05255 c -3.6312,-1.56057 -7.21908,-3.22196 -10.75811,-4.98159 -4.15396,-2.06539 -8.23964,-4.2656 -12.29499,-6.51846 -4.55606,-2.53102 -9.07715,-5.13038 -13.46089,-7.94935 -4.81145,-3.09401 -9.45033,-6.44799 -14.04384,-9.85718 -4.65109,-3.45193 -9.26005,-6.96363 -13.72586,-10.65212 -3.37811,-2.79012 -6.67371,-5.68099 -9.85719,-8.69128 -3.55835,-3.36476 -6.97468,-6.87679 -10.33414,-10.44014 -4.30883,-4.57033 -8.52712,-9.22823 -12.55997,-14.04384 -4.53598,-5.4164 -8.83437,-11.02878 -12.98392,-16.74662 -2.99649,-4.12898 -5.91613,-8.31391 -8.74428,-12.55996 -4.29389,-6.44664 -8.37615,-13.0331 -12.29498,-19.71437 -3.23729,-5.51931 -6.36337,-11.1038 -9.38023,-16.74662 -3.63945,-6.80735 -7.11996,-13.69964 -10.44014,-20.66829 -3.80298,-7.982 -7.39541,-16.06375 -10.8111,-24.219 -2.75003,-6.56595 -5.38551,-13.179494 -7.94935,-19.820359 C 306.7277,80.94341 303.20638,71.386812 299.84922,61.77274 296.17126,51.239969 292.6904,40.63837 289.40909,29.975367"
         style="fill:none;stroke:#000000;stroke-width:1px;stroke-linecap:butt;stroke-linejoin:miter;stroke-opacity:1" /><path
         sodipodi:nodetypes="cssssssssssssssssssssc"
         transform="matrix(0.8,0,0,-0.8,0,318)"
         inkscape:connector-curvature="0"
         inkscape:original-d="m 480.11129,292.12434 c 0,0 -6.08176,-2.62009 -9.0686,-4.04714 -3.7704,-1.80141 -7.49977,-3.69312 -11.16712,-5.69599 -4.56901,-2.4953 -9.05977,-5.13611 -13.49049,-7.86944 -1.67485,-1.03322 -3.30952,-2.13052 -4.94651,-3.22273 -3.05785,-2.04022 -6.12915,-4.06401 -9.10607,-6.22061 -4.38643,-3.17771 -8.66457,-6.5053 -12.89091,-9.89302 -3.58401,-2.87284 -7.17899,-5.74279 -10.56754,-8.84376 -3.57075,-3.26771 -6.90576,-6.78564 -10.26776,-10.26776 -4.02092,-4.16459 -8.02003,-8.35534 -11.84165,-12.70354 -3.55495,-4.04478 -6.99047,-8.19737 -10.30523,-12.44122 -3.21723,-4.11898 -6.30771,-8.33884 -9.29344,-12.62859 -4.06517,-5.84064 -7.92578,-11.82306 -11.72922,-17.83742 -2.60947,-4.12633 -5.18245,-8.27863 -7.60714,-12.51617 -2.71172,-4.73917 -5.21432,-9.59535 -7.75702,-14.42732 -3.07509,-5.84368 -6.15863,-11.68495 -9.06861,-17.61257 -2.23604,-4.55481 -4.40723,-9.14358 -6.44545,-13.79028 -2.48414,-5.66332 -4.71365,-11.43499 -7.04503,-17.16289 -2.84373,-6.986668 -5.7164,-13.962135 -8.46903,-20.985192 -1.69228,-4.317668 -3.35504,-8.647494 -4.94651,-13.003327 -2.62656,-7.188887 -5.16821,-14.409808 -7.59427,-21.668812 -2.15958,-6.461649 -6.196,-19.47716 -6.196,-19.47716"
         inkscape:path-effect="#path-effect32223"
         id="path32221"
         d="m 480.11129,292.12434 c -3.05511,-1.2752 -6.07917,-2.62478 -9.0686,-4.04714 -3.77373,-1.79553 -7.49179,-3.70679 -11.16712,-5.69599 -4.57935,-2.47848 -9.09425,-5.07902 -13.49049,-7.86944 -1.6615,-1.0546 -3.30575,-2.13613 -4.94651,-3.22273 -3.06502,-2.02983 -6.11879,-4.07801 -9.10607,-6.22061 -4.40193,-3.15724 -8.65502,-6.51627 -12.89091,-9.89302 -3.59242,-2.86379 -7.17676,-5.74386 -10.56754,-8.84376 -3.5731,-3.26658 -6.92196,-6.76873 -10.26776,-10.26776 -4.001,-4.18425 -8.00323,-8.36966 -11.84165,-12.70354 -3.57095,-4.03189 -6.9982,-8.19018 -10.30523,-12.44122 -3.20956,-4.12573 -6.30619,-8.33915 -9.29344,-12.62859 -4.06712,-5.84004 -7.93046,-11.81937 -11.72922,-17.83742 -2.60624,-4.12884 -5.18323,-8.27772 -7.60714,-12.51617 -2.7108,-4.74011 -5.2277,-9.58794 -7.75702,-14.42732 -3.05877,-5.85239 -6.13726,-11.69532 -9.06861,-17.61257 -2.25264,-4.54719 -4.4183,-9.13818 -6.44545,-13.79028 -2.4705,-5.66954 -4.7339,-11.42654 -7.04503,-17.16289 -2.81894,-6.996749 -5.70971,-13.964717 -8.46903,-20.985192 -1.69641,-4.31614 -3.34301,-8.651813 -4.94651,-13.003327 -2.64648,-7.181917 -5.17555,-14.407022 -7.59427,-21.668812 -2.15301,-6.464059 -4.2186,-12.957237 -6.196,-19.47716"
         style="fill:none;stroke:#000000;stroke-width:1px;stroke-linecap:butt;stroke-linejoin:miter;stroke-opacity:1" /></g></g></svg>