<?xml version="1.0" encoding="UTF-8" standalone="no"?>
<!-- Created with Inkscape (http://www.inkscape.org/) -->

<svg
   xmlns:dc="http://purl.org/dc/elements/1.1/"
   xmlns:cc="http://creativecommons.org/ns#"
   xmlns:rdf="http://www.w3.org/1999/02/22-rdf-syntax-ns#"
   xmlns:svg="http://www.w3.org/2000/svg"
   xmlns="http://www.w3.org/2000/svg"
   xmlns:sodipodi="http://sodipodi.sourceforge.net/DTD/sodipodi-0.dtd"
   xmlns:inkscape="http://www.inkscape.org/namespaces/inkscape"
   id="svg2"
   version="1.1"
   inkscape:version="0.48.4 r9939"
   width="532.5"
   height="397.5"
   xml:space="preserve"
   sodipodi:docname="Fig_4_a.svg"><metadata
     id="metadata8"><rdf:RDF><cc:Work
         rdf:about=""><dc:format>image/svg+xml</dc:format><dc:type
           rdf:resource="http://purl.org/dc/dcmitype/StillImage" /><dc:title></dc:title></cc:Work></rdf:RDF></metadata><defs
     id="defs6"><inkscape:path-effect
       effect="spiro"
       id="path-effect37730"
       is_visible="true" /><inkscape:path-effect
       effect="spiro"
       id="path-effect37726"
       is_visible="true" /><inkscape:path-effect
       effect="spiro"
       id="path-effect37722"
       is_visible="true" /><inkscape:path-effect
       effect="spiro"
       id="path-effect37718"
       is_visible="true" /><inkscape:path-effect
       effect="spiro"
       id="path-effect37714"
       is_visible="true" /><inkscape:path-effect
       effect="spiro"
       id="path-effect37710"
       is_visible="true" /><inkscape:path-effect
       effect="spiro"
       id="path-effect37706"
       is_visible="true" /><inkscape:path-effect
       effect="spiro"
       id="path-effect37693"
       is_visible="true" /><inkscape:path-effect
       effect="spiro"
       id="path-effect37689"
       is_visible="true" /><inkscape:path-effect
       effect="spiro"
       id="path-effect37685"
       is_visible="true" /></defs><sodipodi:namedview
     pagecolor="#ffffff"
     bordercolor="#666666"
     borderopacity="1"
     objecttolerance="10"
     gridtolerance="10"
     guidetolerance="10"
     inkscape:pageopacity="0"
     inkscape:pageshadow="2"
     inkscape:window-width="1920"
     inkscape:window-height="1025"
     id="namedview4"
     showgrid="false"
     inkscape:zoom="1.1793427"
     inkscape:cx="85.99483"
     inkscape:cy="264.02774"
     inkscape:window-x="0"
     inkscape:window-y="30"
     inkscape:window-maximized="1"
     inkscape:current-layer="g10" /><g
     id="g10"
     inkscape:groupmode="layer"
     inkscape:label="ink_ext_XXXXXX"
     transform="matrix(1.25,0,0,-1.25,0,397.5)"><path
       inkscape:connector-curvature="0"
       id="path22"
       style="fill:none;stroke:#262626;stroke-width:0.75;stroke-linecap:square;stroke-linejoin:miter;stroke-miterlimit:10;stroke-opacity:1;stroke-dasharray:none"
       d="m 55.5,294 330,0" /><path
       inkscape:connector-curvature="0"
       id="path36"
       style="fill:none;stroke:#262626;stroke-width:0.75;stroke-linecap:square;stroke-linejoin:miter;stroke-miterlimit:10;stroke-opacity:1;stroke-dasharray:none"
       d="m 276.624,35.25 0,3.3" /><path
       inkscape:connector-curvature="0"
       id="path20"
       style="fill:none;stroke:#262626;stroke-width:0.75;stroke-linecap:square;stroke-linejoin:miter;stroke-miterlimit:10;stroke-opacity:1;stroke-dasharray:none"
       d="m 55.5,35.25 330,0" /><path
       inkscape:connector-curvature="0"
       id="path26"
       style="fill:none;stroke:#262626;stroke-width:0.75;stroke-linecap:square;stroke-linejoin:miter;stroke-miterlimit:10;stroke-opacity:1;stroke-dasharray:none"
       d="m 93.291,35.25 0,3.3" /><path
       inkscape:connector-curvature="0"
       id="path28"
       style="fill:none;stroke:#262626;stroke-width:0.75;stroke-linecap:square;stroke-linejoin:miter;stroke-miterlimit:10;stroke-opacity:1;stroke-dasharray:none"
       d="m 129.957,35.25 0,3.3" /><path
       inkscape:connector-curvature="0"
       id="path30"
       style="fill:none;stroke:#262626;stroke-width:0.75;stroke-linecap:square;stroke-linejoin:miter;stroke-miterlimit:10;stroke-opacity:1;stroke-dasharray:none"
       d="m 166.624,35.25 0,3.3" /><path
       inkscape:connector-curvature="0"
       id="path32"
       style="fill:none;stroke:#262626;stroke-width:0.75;stroke-linecap:square;stroke-linejoin:miter;stroke-miterlimit:10;stroke-opacity:1;stroke-dasharray:none"
       d="m 203.291,35.25 0,3.3" /><path
       inkscape:connector-curvature="0"
       id="path34"
       style="fill:none;stroke:#262626;stroke-width:0.75;stroke-linecap:square;stroke-linejoin:miter;stroke-miterlimit:10;stroke-opacity:1;stroke-dasharray:none"
       d="m 239.957,35.25 0,3.3" /><path
       inkscape:connector-curvature="0"
       id="path38"
       style="fill:none;stroke:#262626;stroke-width:0.75;stroke-linecap:square;stroke-linejoin:miter;stroke-miterlimit:10;stroke-opacity:1;stroke-dasharray:none"
       d="m 313.291,35.25 0,3.3" /><path
       inkscape:connector-curvature="0"
       id="path40"
       style="fill:none;stroke:#262626;stroke-width:0.75;stroke-linecap:square;stroke-linejoin:miter;stroke-miterlimit:10;stroke-opacity:1;stroke-dasharray:none"
       d="m 349.957,35.25 0,3.3" /><path
       inkscape:connector-curvature="0"
       id="path44"
       style="fill:none;stroke:#262626;stroke-width:0.75;stroke-linecap:square;stroke-linejoin:miter;stroke-miterlimit:10;stroke-opacity:1;stroke-dasharray:none"
       d="m 93.291,294 0,-3.3" /><path
       inkscape:connector-curvature="0"
       id="path46"
       style="fill:none;stroke:#262626;stroke-width:0.75;stroke-linecap:square;stroke-linejoin:miter;stroke-miterlimit:10;stroke-opacity:1;stroke-dasharray:none"
       d="m 129.957,294 0,-3.3" /><path
       inkscape:connector-curvature="0"
       id="path48"
       style="fill:none;stroke:#262626;stroke-width:0.75;stroke-linecap:square;stroke-linejoin:miter;stroke-miterlimit:10;stroke-opacity:1;stroke-dasharray:none"
       d="m 166.624,294 0,-3.3" /><path
       inkscape:connector-curvature="0"
       id="path50"
       style="fill:none;stroke:#262626;stroke-width:0.75;stroke-linecap:square;stroke-linejoin:miter;stroke-miterlimit:10;stroke-opacity:1;stroke-dasharray:none"
       d="m 203.291,294 0,-3.3" /><path
       inkscape:connector-curvature="0"
       id="path52"
       style="fill:none;stroke:#262626;stroke-width:0.75;stroke-linecap:square;stroke-linejoin:miter;stroke-miterlimit:10;stroke-opacity:1;stroke-dasharray:none"
       d="m 239.957,294 0,-3.3" /><path
       inkscape:connector-curvature="0"
       id="path54"
       style="fill:none;stroke:#262626;stroke-width:0.75;stroke-linecap:square;stroke-linejoin:miter;stroke-miterlimit:10;stroke-opacity:1;stroke-dasharray:none"
       d="m 276.624,294 0,-3.3" /><path
       inkscape:connector-curvature="0"
       id="path56"
       style="fill:none;stroke:#262626;stroke-width:0.75;stroke-linecap:square;stroke-linejoin:miter;stroke-miterlimit:10;stroke-opacity:1;stroke-dasharray:none"
       d="m 313.291,294 0,-3.3" /><path
       inkscape:connector-curvature="0"
       id="path58"
       style="fill:none;stroke:#262626;stroke-width:0.75;stroke-linecap:square;stroke-linejoin:miter;stroke-miterlimit:10;stroke-opacity:1;stroke-dasharray:none"
       d="m 349.957,294 0,-3.3" /><g
       id="g60"><text
         id="text62"
         transform="matrix(1,0,0,-1,51.7488,21.5)"><tspan
           id="tspan64"
           sodipodi:role="line"
           y="0"
           x="0 3.2467501 38.166763 74.833588 111.50002 148.16685 184.83368 221.50011 258.16693 294.83377"
           style="font-size:9.75px;font-variant:normal;font-weight:normal;writing-mode:lr-tb;fill:#262626;fill-opacity:1;fill-rule:nonzero;stroke:none;font-family:Helvetica;-inkscape-font-specification:Helvetica">-101234567           8</tspan></text>
</g><path
       inkscape:connector-curvature="0"
       id="path66"
       style="fill:none;stroke:#262626;stroke-width:0.75;stroke-linecap:square;stroke-linejoin:miter;stroke-miterlimit:10;stroke-opacity:1;stroke-dasharray:none"
       d="M 55.5,35.25 55.5,294" /><path
       inkscape:connector-curvature="0"
       id="path68"
       style="fill:none;stroke:#262626;stroke-width:0.75;stroke-linecap:square;stroke-linejoin:miter;stroke-miterlimit:10;stroke-opacity:1;stroke-dasharray:none"
       d="m 385.5,35.25 0,258.75" /><path
       inkscape:connector-curvature="0"
       id="path72"
       style="fill:none;stroke:#262626;stroke-width:0.75;stroke-linecap:square;stroke-linejoin:miter;stroke-miterlimit:10;stroke-opacity:1;stroke-dasharray:none"
       d="m 55.5,75.0359 3.3,0" /><path
       inkscape:connector-curvature="0"
       id="path74"
       style="fill:none;stroke:#262626;stroke-width:0.75;stroke-linecap:square;stroke-linejoin:miter;stroke-miterlimit:10;stroke-opacity:1;stroke-dasharray:none"
       d="m 55.5,114.605 3.3,0" /><path
       inkscape:connector-curvature="0"
       id="path76"
       style="fill:none;stroke:#262626;stroke-width:0.75;stroke-linecap:square;stroke-linejoin:miter;stroke-miterlimit:10;stroke-opacity:1;stroke-dasharray:none"
       d="m 55.5,154.175 3.3,0" /><path
       inkscape:connector-curvature="0"
       id="path78"
       style="fill:none;stroke:#262626;stroke-width:0.75;stroke-linecap:square;stroke-linejoin:miter;stroke-miterlimit:10;stroke-opacity:1;stroke-dasharray:none"
       d="m 55.5,193.745 3.3,0" /><path
       inkscape:connector-curvature="0"
       id="path80"
       style="fill:none;stroke:#262626;stroke-width:0.75;stroke-linecap:square;stroke-linejoin:miter;stroke-miterlimit:10;stroke-opacity:1;stroke-dasharray:none"
       d="m 55.5,233.314 3.3,0" /><path
       inkscape:connector-curvature="0"
       id="path82"
       style="fill:none;stroke:#262626;stroke-width:0.75;stroke-linecap:square;stroke-linejoin:miter;stroke-miterlimit:10;stroke-opacity:1;stroke-dasharray:none"
       d="m 55.5,272.883 3.3,0" /><path
       inkscape:connector-curvature="0"
       id="path84"
       style="fill:none;stroke:#262626;stroke-width:0.75;stroke-linecap:square;stroke-linejoin:miter;stroke-miterlimit:10;stroke-opacity:1;stroke-dasharray:none"
       d="m 385.5,35.466 -3.3,0" /><path
       inkscape:connector-curvature="0"
       id="path86"
       style="fill:none;stroke:#262626;stroke-width:0.75;stroke-linecap:square;stroke-linejoin:miter;stroke-miterlimit:10;stroke-opacity:1;stroke-dasharray:none"
       d="m 385.5,75.0359 -3.3,0" /><path
       inkscape:connector-curvature="0"
       id="path88"
       style="fill:none;stroke:#262626;stroke-width:0.75;stroke-linecap:square;stroke-linejoin:miter;stroke-miterlimit:10;stroke-opacity:1;stroke-dasharray:none"
       d="m 385.5,114.605 -3.3,0" /><path
       inkscape:connector-curvature="0"
       id="path90"
       style="fill:none;stroke:#262626;stroke-width:0.75;stroke-linecap:square;stroke-linejoin:miter;stroke-miterlimit:10;stroke-opacity:1;stroke-dasharray:none"
       d="m 385.5,154.175 -3.3,0" /><path
       inkscape:connector-curvature="0"
       id="path92"
       style="fill:none;stroke:#262626;stroke-width:0.75;stroke-linecap:square;stroke-linejoin:miter;stroke-miterlimit:10;stroke-opacity:1;stroke-dasharray:none"
       d="m 385.5,193.745 -3.3,0" /><path
       inkscape:connector-curvature="0"
       id="path94"
       style="fill:none;stroke:#262626;stroke-width:0.75;stroke-linecap:square;stroke-linejoin:miter;stroke-miterlimit:10;stroke-opacity:1;stroke-dasharray:none"
       d="m 385.5,233.314 -3.3,0" /><path
       inkscape:connector-curvature="0"
       id="path96"
       style="fill:none;stroke:#262626;stroke-width:0.75;stroke-linecap:square;stroke-linejoin:miter;stroke-miterlimit:10;stroke-opacity:1;stroke-dasharray:none"
       d="m 385.5,272.883 -3.3,0" /><g
       id="g98"><text
         id="text100"
         transform="matrix(1,0,0,-1,44.75,32.0914)"><tspan
           id="tspan102"
           y="0"
           x="0"
           style="font-size:9.75px;font-variant:normal;font-weight:normal;writing-mode:lr-tb;fill:#262626;fill-opacity:1;fill-rule:nonzero;stroke:none;font-family:Helvetica;-inkscape-font-specification:Helvetica">0</tspan><tspan
           id="tspan104"
           sodipodi:role="line"
           y="-39.5695"
           x="-6 -0.579"
           style="font-size:9.75px;font-variant:normal;font-weight:normal;writing-mode:lr-tb;fill:#262626;fill-opacity:1;fill-rule:nonzero;stroke:none;font-family:Helvetica;-inkscape-font-specification:Helvetica">10</tspan><tspan
           id="tspan106"
           sodipodi:role="line"
           y="-79.138603"
           x="-6 -0.579"
           style="font-size:9.75px;font-variant:normal;font-weight:normal;writing-mode:lr-tb;fill:#262626;fill-opacity:1;fill-rule:nonzero;stroke:none;font-family:Helvetica;-inkscape-font-specification:Helvetica">20</tspan><tspan
           id="tspan108"
           sodipodi:role="line"
           y="-118.7081"
           x="-6 -0.579"
           style="font-size:9.75px;font-variant:normal;font-weight:normal;writing-mode:lr-tb;fill:#262626;fill-opacity:1;fill-rule:nonzero;stroke:none;font-family:Helvetica;-inkscape-font-specification:Helvetica">30</tspan><tspan
           id="tspan110"
           sodipodi:role="line"
           y="-158.2776"
           x="-6 -0.579"
           style="font-size:9.75px;font-variant:normal;font-weight:normal;writing-mode:lr-tb;fill:#262626;fill-opacity:1;fill-rule:nonzero;stroke:none;font-family:Helvetica;-inkscape-font-specification:Helvetica">40</tspan><tspan
           id="tspan112"
           sodipodi:role="line"
           y="-197.84711"
           x="-6 -0.579"
           style="font-size:9.75px;font-variant:normal;font-weight:normal;writing-mode:lr-tb;fill:#262626;fill-opacity:1;fill-rule:nonzero;stroke:none;font-family:Helvetica;-inkscape-font-specification:Helvetica">50</tspan><tspan
           id="tspan114"
           sodipodi:role="line"
           y="-237.4166"
           x="-6 -0.579"
           style="font-size:9.75px;font-variant:normal;font-weight:normal;writing-mode:lr-tb;fill:#262626;fill-opacity:1;fill-rule:nonzero;stroke:none;font-family:Helvetica;-inkscape-font-specification:Helvetica">60</tspan></text>
</g><path
       style="fill:none;stroke:#000000;stroke-width:1px;stroke-linecap:butt;stroke-linejoin:miter;stroke-opacity:1"
       d="m 162.48537,353.2812 c -0.14925,-2.45205 -0.34917,-4.90102 -0.59958,-7.34482 -0.22713,-2.21661 -0.49721,-4.43661 -1.04926,-6.59535 -0.52484,-2.05235 -1.30058,-4.0329 -2.16764,-5.96573 -1.19068,-2.65423 -2.55631,-5.22783 -4.02767,-7.73736 -1.46502,-2.49872 -3.04481,-4.94764 -4.98159,-7.10142 -2.47279,-2.74984 -5.48204,-4.96738 -8.611,-6.93865 -3.49551,-2.2022 -7.17383,-4.12458 -11.02309,-5.62508 -4.53822,-1.76907 -9.28836,-2.94282 -14.07112,-3.86491 -5.08876,-0.98108 -10.22715,-1.68206 -15.36873,-2.33181 -7.122731,-0.90011 -14.258446,-1.70295 -21.410232,-2.3318 -3.212236,-0.28245 -6.42756,-0.52978 -9.645203,-0.74194"
       id="path37683"
       inkscape:path-effect="#path-effect37685"
       inkscape:original-d="m 162.48537,353.2812 c 0,0 -0.30647,-4.90595 -0.59958,-7.34482 -0.26563,-2.21019 -0.49174,-4.4402 -1.04926,-6.59535 -0.52989,-2.04835 -1.31606,-4.0289 -2.16764,-5.96573 -1.17029,-2.66172 -2.51822,-5.25223 -4.02767,-7.73736 -1.50107,-2.47133 -3.06212,-4.93893 -4.98159,-7.10142 -2.42491,-2.73193 -5.54264,-4.95653 -8.611,-6.93865 -3.37482,-2.18009 -7.21751,-4.33676 -11.02309,-5.62508 -5.11095,-1.73023 -9.14737,-2.77768 -14.07112,-3.86491 -5.05966,-1.11724 -10.2306,-1.66252 -15.36873,-2.33181 -7.118806,-0.92729 -14.262062,-1.66778 -21.410232,-2.3318 -3.210742,-0.29826 -9.645203,-0.74194 -9.645203,-0.74194"
       inkscape:connector-curvature="0"
       transform="matrix(0.8,0,0,-0.8,0,318)"
       sodipodi:nodetypes="cssssssssssc" /><path
       style="fill:none;stroke:#000000;stroke-width:1px;stroke-linecap:butt;stroke-linejoin:miter;stroke-opacity:1"
       d="m 254.21999,353.51363 c -0.11399,-1.96414 -0.27303,-3.92566 -0.47696,-5.88251 -0.33408,-3.20568 -0.78964,-6.40399 -1.53687,-9.53921 -0.71674,-3.0073 -1.69901,-5.94496 -2.75577,-8.85027 -1.13206,-3.11235 -2.35291,-6.19695 -3.81569,-9.16824 -1.0969,-2.2281 -2.3276,-4.38792 -3.6037,-6.51846 -1.42084,-2.37221 -2.90243,-4.71497 -4.61062,-6.88943 -1.40723,-1.79135 -2.96258,-3.46121 -4.55762,-5.08758 -2.54931,-2.59937 -5.20861,-5.09663 -8.05534,-7.3664 -2.59177,-2.06648 -5.33394,-3.94033 -8.16132,-5.67053 -3.52743,-2.1586 -7.18811,-4.09451 -10.9171,-5.88251 -3.01666,-1.44645 -6.07892,-2.79669 -9.16824,-4.08066 -1.87981,-0.78128 -3.76982,-1.5381 -5.67043,-2.26733 -4.42659,-1.6984 -8.90957,-3.24671 -13.41554,-4.72167 -3.6799,-1.20456 -7.37588,-2.36046 -11.09217,-3.44757 -5.22902,-1.52962 -10.4969,-2.92267 -15.76906,-4.29622 -5.82114,-1.51657 -11.6485,-3.00964 -17.48856,-4.45163 -4.58412,-1.13188 -9.17608,-2.23229 -13.77886,-3.28573 -6.58924,-1.50809 -13.20016,-2.9198 -19.816356,-4.30489 -10.080221,-2.11028 -20.173353,-4.15888 -30.278639,-6.14567"
       id="path37687"
       inkscape:path-effect="#path-effect37689"
       inkscape:original-d="m 254.21999,353.51363 c 0,0 -0.24083,-3.92946 -0.47696,-5.88251 -0.38659,-3.19745 -0.80011,-6.40387 -1.53687,-9.53921 -0.70681,-3.00787 -1.70174,-5.94581 -2.75577,-8.85027 -1.12921,-3.11163 -2.37676,-6.18716 -3.81569,-9.16824 -1.07925,-2.23592 -2.3115,-4.39848 -3.6037,-6.51846 -1.43821,-2.35952 -2.91609,-4.70669 -4.61062,-6.88943 -1.39621,-1.79848 -2.95593,-3.46939 -4.55762,-5.08758 -2.55964,-2.586 -5.2124,-5.09553 -8.05534,-7.3664 -2.58828,-2.06745 -5.33848,-3.93699 -8.16132,-5.67053 -3.5225,-2.16321 -7.20668,-4.06036 -10.9171,-5.88251 -3.00259,-1.47455 -6.08662,-2.77934 -9.16824,-4.08066 -1.87529,-0.79191 -3.76485,-1.55137 -5.67043,-2.26733 -4.43784,-1.66736 -8.91529,-3.23093 -13.41554,-4.72167 -3.67546,-1.21752 -7.37504,-2.36392 -11.09217,-3.44757 -5.23022,-1.52476 -10.50091,-2.90819 -15.76906,-4.29622 -5.8169,-1.53261 -11.64796,-3.01199 -17.48856,-4.45163 -4.58452,-1.13003 -9.17509,-2.23687 -13.77886,-3.28573 -6.59064,-1.50152 -13.20125,-2.91509 -19.816356,-4.30489 -10.078647,-2.11747 -30.278639,-6.14567 -30.278639,-6.14567"
       inkscape:connector-curvature="0"
       transform="matrix(0.8,0,0,-0.8,0,318)"
       sodipodi:nodetypes="cssssssssssssssssssc" /><path
       style="fill:none;stroke:#000000;stroke-width:1px;stroke-linecap:butt;stroke-linejoin:miter;stroke-opacity:1"
       d="m 345.88099,353.43109 c -0.48875,-2.30637 -1.01347,-4.60513 -1.57389,-6.89514 -0.84619,-3.4577 -1.77465,-6.8983 -2.92294,-10.26775 -1.11075,-3.25931 -2.42516,-6.44603 -3.8223,-9.59323 -1.75981,-3.96415 -3.65467,-7.87381 -5.84588,-11.61681 -0.95267,-1.62734 -1.96059,-3.22186 -2.99788,-4.79661 -2.31266,-3.51092 -4.77324,-6.92618 -7.41977,-10.19281 -2.5841,-3.18956 -5.34628,-6.23787 -8.31913,-9.06861 -2.48692,-2.36805 -5.11688,-4.57999 -7.71956,-6.82018 -3.50851,-3.01986 -6.97338,-6.09615 -10.64249,-8.91871 -4.16472,-3.20382 -8.57831,-6.06966 -13.0408,-8.84376 -4.36679,-2.71461 -8.78604,-5.34532 -13.26564,-7.86945 -4.74249,-2.67226 -9.55174,-5.22458 -14.38985,-7.71956 -4.51821,-2.33001 -9.0622,-4.61033 -13.64037,-6.82018 -5.22512,-2.52213 -10.49478,-4.95245 -15.81385,-7.26988 -4.70085,-2.04808 -9.43966,-4.00772 -14.18002,-5.96263 -6.16843,-2.54384 -12.34033,-5.08003 -18.54846,-7.52538 -6.63706,-2.6143 -13.31512,-5.12459 -20.03235,-7.52538 -5.74493,-2.05328 -11.51815,-4.02636 -17.27657,-6.0415 -4.69306,-1.64232 -9.37672,-3.31274 -14.09684,-4.8756 -6.77893,-2.24455 -13.62921,-4.26599 -20.45631,-6.35947 -5.90807,-1.81167 -11.79938,-3.67748 -17.70053,-5.51155 -4.579249,-1.42322 -9.164871,-2.82746 -13.778864,-4.13366 -4.370919,-1.23739 -8.766328,-2.38651 -13.142914,-3.6037 -1.982451,-0.55135 -3.96102,-1.11665 -5.93551,-1.69586"
       id="path37691"
       inkscape:path-effect="#path-effect37693"
       inkscape:original-d="m 345.88099,353.43109 c 0,0 -0.98864,-4.61144 -1.57389,-6.89514 -0.88342,-3.44716 -1.77572,-6.89918 -2.92294,-10.26775 -1.10972,-3.25844 -2.41024,-6.45396 -3.8223,-9.59323 -1.77826,-3.9534 -3.72055,-7.83864 -5.84588,-11.61681 -0.92441,-1.6433 -1.94275,-3.23402 -2.99788,-4.79661 -2.35175,-3.48282 -4.75846,-6.94041 -7.41977,-10.19281 -2.59778,-3.17475 -5.39149,-6.19521 -8.31913,-9.06861 -2.45052,-2.40511 -5.11691,-4.58058 -7.71956,-6.82018 -3.50837,-3.01897 -6.94863,-6.12975 -10.64249,-8.91871 -4.19166,-3.16481 -8.6067,-6.02866 -13.0408,-8.84376 -4.34052,-2.75569 -8.78835,-5.34204 -13.26564,-7.86945 -4.74015,-2.67579 -9.55675,-5.21556 -14.38985,-7.71956 -4.51365,-2.33849 -9.05697,-4.62153 -13.64037,-6.82018 -5.23091,-2.50926 -10.50347,-4.93351 -15.81385,-7.26988 -4.69339,-2.06492 -9.44089,-4.00497 -14.18002,-5.96263 -6.16686,-2.54744 -12.33347,-5.09773 -18.54846,-7.52538 -6.64418,-2.59529 -13.32656,-5.0937 -20.03235,-7.52538 -5.73537,-2.07978 -11.51428,-4.0375 -17.27657,-6.0415 -4.69616,-1.63322 -9.37282,-3.32479 -14.09684,-4.8756 -6.78445,-2.22721 -13.63802,-4.2381 -20.45631,-6.35947 -5.90059,-1.83585 -11.79088,-3.70509 -17.70053,-5.51155 -4.585724,-1.40176 -9.169811,-2.81062 -13.778864,-4.13366 -4.366341,-1.25337 -8.768422,-2.37908 -13.142914,-3.6037 -1.981495,-0.55471 -5.93551,-1.69586 -5.93551,-1.69586"
       inkscape:connector-curvature="0"
       sodipodi:nodetypes="csssssssssssssssssssssssc"
       transform="matrix(0.8,0,0,-0.8,0,318)" /><path
       style="fill:none;stroke:#000000;stroke-width:1px;stroke-linecap:butt;stroke-linejoin:miter;stroke-opacity:1"
       d="m 437.84073,353.23047 c -0.0808,-5.32503 -0.13396,-10.65048 -0.15935,-15.97607 -0.0225,-4.71396 -0.0234,-9.43267 -0.36148,-14.13454 -0.18673,-2.59693 -0.47621,-5.18611 -0.84793,-7.76307 -0.46216,-3.20391 -1.0517,-6.39026 -1.80186,-9.53921 -1.06247,-4.45995 -2.44593,-8.83965 -4.02766,-13.14292 -1.37382,-3.73763 -2.90201,-7.42875 -4.8226,-10.9171 -1.52612,-2.77188 -3.29511,-5.40627 -5.21655,-7.92032 -1.85083,-2.42168 -3.8454,-4.73503 -5.99577,-6.89513 -2.26363,-2.27387 -4.69861,-4.37641 -7.26987,-6.29556 -2.44454,-1.82457 -5.01081,-3.48264 -7.64461,-5.02146 -4.69043,-2.74042 -9.59211,-5.10184 -14.53974,-7.34482 -6.13702,-2.78218 -12.35299,-5.38665 -18.58689,-7.94439 -6.42922,-2.63788 -12.87877,-5.22659 -19.28608,-7.91724 -4.90859,-2.06129 -9.79252,-4.18246 -14.6268,-6.41247 -5.46706,-2.52191 -10.86898,-5.18223 -16.26965,-7.84335 -5.11653,-2.52111 -10.23274,-5.04332 -15.31574,-7.63137 -5.41467,-2.75692 -10.79107,-5.58826 -16.16366,-8.42631 -5.47071,-2.88989 -10.93776,-5.7869 -16.42864,-8.63828 -7.24878,-3.76425 -14.53864,-7.44875 -21.82483,-11.14006 -8.52843,-4.32065 -17.05271,-8.65106 -25.65925,-12.81396 -7.80509,-3.77524 -15.67657,-7.4121 -23.58305,-10.9701 -11.73221,-5.27962 -23.54282,-10.38619 -35.44795,-15.26339 -10.067,-4.12417 -20.20057,-8.08394 -30.35359,-11.99154 -20.69903,-7.96645 -41.481161,-15.71697 -62.341873,-23.24989"
       id="path37704"
       inkscape:path-effect="#path-effect37706"
       inkscape:original-d="m 437.84073,353.23047 c 1.78723,2.45715 10.13942,-13.16917 -0.15935,-15.97607 -5.38385,-1.46735 -0.26798,-4.90688 -0.36148,-14.13454 -0.025,-2.454 -0.47862,-5.33689 -0.84793,-7.76307 -0.48696,-3.19911 -1.02629,-6.39756 -1.80186,-9.53921 -1.09819,-4.44852 -2.42782,-8.84922 -4.02766,-13.14292 -1.38903,-3.72791 -2.91813,-7.42429 -4.8226,-10.9171 -1.51337,-2.77552 -3.30569,-5.40191 -5.21655,-7.92032 -1.84105,-2.42641 -3.83986,-4.74363 -5.99577,-6.89513 -2.26905,-2.26441 -4.71296,-4.36209 -7.26987,-6.29556 -2.43179,-1.83886 -5.00563,-3.49476 -7.64461,-5.02146 -4.70002,-2.71904 -9.61749,-5.05248 -14.53974,-7.34482 -6.10795,-2.84453 -12.37238,-5.34087 -18.58689,-7.94439 -6.40955,-2.68523 -12.88902,-5.20239 -19.28608,-7.91724 -4.90052,-2.07973 -9.79051,-4.18747 -14.6268,-6.41247 -5.46945,-2.5163 -10.86361,-5.19357 -16.26965,-7.84335 -5.12174,-2.51043 -10.23397,-5.041 -15.31574,-7.63137 -5.41335,-2.75938 -10.78074,-5.60804 -16.16366,-8.42631 -5.48128,-2.86976 -10.93508,-5.7921 -16.42864,-8.63828 -7.2523,-3.75738 -14.53362,-7.45875 -21.82483,-11.14006 -8.53421,-4.3089 -17.0477,-8.66178 -25.65925,-12.81396 -7.8095,-3.76547 -15.67019,-7.42699 -23.58305,-10.9701 -11.74149,-5.25744 -23.55612,-10.35548 -35.44795,-15.26339 -10.05604,-4.15026 -20.19767,-8.09207 -30.35359,-11.99154 -20.70496,-7.94989 -62.341873,-23.24989 -62.341873,-23.24989"
       inkscape:connector-curvature="0"
       sodipodi:nodetypes="csssssssssssssssssssssssc"
       transform="matrix(0.8,0,0,-0.8,0,318)" /><path
       style="fill:none;stroke:#000000;stroke-width:1px;stroke-linecap:butt;stroke-linejoin:miter;stroke-opacity:1"
       d="m 69.401039,175.20682 c 5.441455,0.83573 10.890369,1.62289 16.345876,2.36135 5.046179,0.68305 10.098075,1.32445 15.156745,1.90784 4.51932,0.52119 9.04384,0.99605 13.56688,1.48388 7.41367,0.7996 14.825,1.63419 22.25816,2.22582 5.0095,0.39872 10.02799,0.68698 15.05076,0.84793 4.8031,0.15391 9.61001,0.19139 14.41481,0.10599 4.21273,-0.0749 8.42902,-0.24461 12.61296,-0.74194 3.18194,-0.37822 6.34513,-0.94657 9.43322,-1.80185 2.22209,-0.61543 4.42778,-1.39081 6.35947,-2.64978 1.50727,-0.98236 2.85274,-2.28676 3.6037,-3.92168 0.63362,-1.37945 0.8164,-2.94438 0.63595,-4.45163 -0.14405,-1.20321 -0.51132,-2.36962 -0.95392,-3.49771 -0.72849,-1.85676 -1.66529,-3.62949 -2.75577,-5.29956 -1.71716,-2.62984 -3.80887,-4.99832 -6.0415,-7.20741 -2.61629,-2.58871 -5.43122,-4.96755 -8.26732,-7.31339 -4.33048,-3.5819 -8.72343,-7.09798 -13.3549,-10.28115 -3.07327,-2.11223 -6.24643,-4.07435 -9.40267,-6.06046 -4.23617,-2.66568 -8.44485,-5.37651 -12.74101,-7.94439 -5.05967,-3.02424 -10.23653,-5.84773 -15.43911,-8.61892 -6.65818,-3.54653 -13.36091,-7.0088 -20.07644,-10.4455 C 104.34946,101.11138 98.883158,98.335189 93.378284,95.636942 85.401067,91.726861 77.343463,87.980782 69.212281,84.40187"
       id="path37708"
       inkscape:path-effect="#path-effect37710"
       inkscape:original-d="m 69.401039,175.20682 c 0,0 10.890294,1.62399 16.345876,2.36135 5.046234,0.68203 10.099489,1.31302 15.156745,1.90784 4.51812,0.53141 9.04234,1.01023 13.56688,1.48388 7.41587,0.77633 14.82442,1.64501 22.25816,2.22582 5.00961,0.39141 10.02843,0.68809 15.05076,0.84793 4.80263,0.15285 9.61133,0.22947 14.41481,0.10599 4.2102,-0.10823 8.43358,-0.2221 12.61296,-0.74194 3.17678,-0.39513 6.36726,-0.88103 9.43322,-1.80185 2.19942,-0.66056 4.47876,-1.33193 6.35947,-2.64978 1.45392,-1.01879 2.84345,-2.31737 3.6037,-3.92168 0.64189,-1.35455 0.72909,-2.95558 0.63595,-4.45163 -0.0751,-1.20615 -0.51366,-2.37227 -0.95392,-3.49771 -0.72536,-1.85425 -1.65038,-3.64351 -2.75577,-5.29956 -1.74039,-2.60738 -3.85452,-4.96141 -6.0415,-7.20741 -2.56678,-2.63605 -5.43007,-4.97092 -8.26732,-7.31339 -4.33226,-3.57677 -8.76403,-7.043 -13.3549,-10.28115 -3.04712,-2.14928 -6.25339,-4.06386 -9.40267,-6.06046 -4.22703,-2.67989 -8.43119,-5.39977 -12.74101,-7.94439 -5.07537,-2.99662 -10.25105,-5.82194 -15.43911,-8.61892 -6.64022,-3.57987 -13.36091,-7.00898 -20.07644,-10.4455 C 104.34947,101.11153 98.896607,98.307397 93.378284,95.636942 85.382039,91.767358 69.212281,84.40187 69.212281,84.40187"
       inkscape:connector-curvature="0"
       transform="matrix(0.8,0,0,-0.8,0,318)"
       sodipodi:nodetypes="csssssssssssssssssssssc" /><path
       style="fill:none;stroke:#000000;stroke-width:1px;stroke-linecap:butt;stroke-linejoin:miter;stroke-opacity:1"
       d="m 69.212281,111.8536 c 7.189227,1.97565 14.397058,3.88361 21.622214,5.72353 7.805702,1.98776 15.631685,3.89614 23.424065,5.93551 10.52206,2.75377 20.98017,5.7457 31.4794,8.58529 9.24898,2.50145 18.52978,4.88467 27.7697,7.41939 8.74718,2.39955 17.4565,4.93455 26.17984,7.41938 9.60642,2.73638 19.23017,5.412 28.82629,8.18429 7.90593,2.28399 15.79275,4.63349 23.68329,6.97009 5.72224,1.69451 11.4465,3.38225 17.16289,5.0964 7.97175,2.39045 15.92811,4.83224 23.90813,7.19493 6.58088,1.94844 13.17765,3.84302 19.78605,5.69598 3.93705,1.10393 7.87828,2.19309 11.80901,3.3193 3.98007,1.14035 7.95121,2.31915 11.97701,3.28573 3.99274,0.95864 8.03311,1.707 12.083,2.3848 1.442,0.24134 2.88765,0.47405 4.34564,0.58295 1.15998,0.0866 2.32685,0.0946 3.48596,-0.003 0.82689,-0.0696 1.65164,-0.1934 2.44955,-0.4213 0.81329,-0.2323 1.61251,-0.58345 2.22582,-1.1659 0.37888,-0.35982 0.67721,-0.7997 0.90092,-1.2719 0.1975,-0.41689 0.33916,-0.86468 0.37097,-1.32489 0.032,-0.46315 -0.0475,-0.92722 -0.15899,-1.37789 -0.22182,-0.89647 -0.57018,-1.75678 -0.95392,-2.59678 -0.70355,-1.54005 -1.52951,-3.02273 -2.4378,-4.45163 -1.63144,-2.56654 -3.52593,-4.95691 -5.51154,-7.2604 -1.9397,-2.25024 -3.96884,-4.42144 -5.96201,-6.62446 -1.639,-1.81157 -3.25432,-3.64536 -4.94456,-5.40922 -2.36575,-2.46879 -4.87401,-4.79613 -7.38229,-7.11997 -3.30137,-3.05862 -6.60594,-6.11427 -9.96797,-9.10608 -3.25514,-2.89669 -6.56356,-5.73302 -9.89302,-8.54397 -3.09935,-2.61668 -6.21763,-5.21195 -9.40587,-7.71956 -3.93921,-3.09826 -7.98282,-6.06083 -11.99154,-9.0686 -2.02627,-1.52033 -4.04378,-3.05232 -6.07071,-4.57177 -5.23461,-3.92403 -10.53249,-7.76471 -15.92627,-11.46691 -2.97359,-2.04102 -5.97596,-4.039704 -8.97228,-6.047211 -2.98356,-1.99896 -5.96124,-4.006754 -8.95626,-5.988505 -3.94129,-2.607882 -7.91237,-5.170513 -11.89752,-7.710863 -3.69881,-2.357822 -7.40981,-4.696494 -11.12908,-7.02192 -8.58405,-5.367072 -17.21279,-10.663995 -25.94135,-15.792695 -5.12344,-3.010413 -10.28105,-5.962737 -15.47473,-8.850269 -6.59934,-3.669034 -13.25633,-7.233144 -19.89413,-10.832129 -4.78153,-2.592523 -9.5532,-5.203206 -14.3149,-7.831974"
       id="path37712"
       inkscape:path-effect="#path-effect37714"
       inkscape:original-d="m 69.212281,111.8536 c 0,0 14.404798,3.85392 21.622214,5.72353 7.797425,2.01986 15.634245,3.8865 23.424065,5.93551 10.51858,2.76678 20.9789,5.75068 31.4794,8.58529 9.25014,2.49707 18.53205,4.87653 27.7697,7.41939 8.74501,2.40725 17.45382,4.94417 26.17984,7.41938 9.60942,2.7258 19.23071,5.41017 28.82629,8.18429 7.90547,2.2855 15.79168,4.63715 23.68329,6.97009 5.72302,1.69186 11.44505,3.38711 17.16289,5.0964 7.97376,2.38368 15.92448,4.84456 23.90813,7.19493 6.58382,1.93826 13.18476,3.81806 19.78605,5.69598 3.93284,1.1188 7.86923,2.2252 11.80901,3.3193 3.98889,1.10774 7.94742,2.33667 11.97701,3.28573 3.99603,0.94115 8.03279,1.7141 12.083,2.3848 1.44189,0.23877 2.88453,0.54835 4.34564,0.58295 1.02809,0.0243 2.46015,0.07 3.48596,-0.003 0.953,-0.0675 1.52852,-0.16741 2.44955,-0.4213 0.80744,-0.2226 1.59531,-0.61456 2.22582,-1.1659 0.39111,-0.342 0.67744,-0.80287 0.90092,-1.2719 0.19727,-0.41402 0.33475,-0.86771 0.37097,-1.32489 0.0365,-0.4609 -0.052,-0.92809 -0.15899,-1.37789 -0.21334,-0.89713 -0.57241,-1.75725 -0.95392,-2.59678 -0.69992,-1.54023 -1.5175,-3.03203 -2.4378,-4.45163 -1.65284,-2.54959 -3.57495,-4.91906 -5.51154,-7.2604 -1.89344,-2.28918 -3.96615,-4.42401 -5.96201,-6.62446 -1.6412,-1.80943 -3.24046,-3.65889 -4.94456,-5.40922 -2.38488,-2.44957 -4.88963,-4.78017 -7.38229,-7.11997 -3.28127,-3.08005 -6.60332,-6.11734 -9.96797,-9.10608 -3.25765,-2.89369 -6.55985,-5.73761 -9.89302,-8.54397 -3.10274,-2.61235 -6.22005,-5.2092 -9.40587,-7.71956 -3.9363,-3.10172 -7.99132,-6.04976 -11.99154,-9.0686 -2.02203,-1.52596 -4.03091,-3.06964 -6.07071,-4.57177 -5.26746,-3.87902 -10.55897,-7.72726 -15.92627,-11.46691 -2.95919,-2.061803 -5.97781,-4.036992 -8.97228,-6.047211 -2.98173,-2.001669 -5.95662,-4.013769 -8.95626,-5.988505 -3.94733,-2.598624 -7.91611,-5.164765 -11.89752,-7.710863 -3.69538,-2.363179 -7.40076,-4.711059 -11.12908,-7.02192 -8.60469,-5.333302 -17.22308,-10.647154 -25.94135,-15.792695 -5.11744,-3.020323 -10.28592,-5.954276 -15.47473,-8.850269 -6.59326,-3.679851 -13.26642,-7.214698 -19.89413,-10.832129 -4.77428,-2.605819 -14.3149,-7.831974 -14.3149,-7.831974"
       inkscape:connector-curvature="0"
       transform="matrix(0.8,0,0,-0.8,0,318)"
       sodipodi:nodetypes="csssssssssssssssssssssssssssssssssssssssc" /><path
       style="fill:none;stroke:#000000;stroke-width:1px;stroke-linecap:butt;stroke-linejoin:miter;stroke-opacity:1"
       d="m 481.91002,95.837817 c -8.40074,-3.56481 -16.76395,-7.218076 -25.08777,-10.958986 -5.47412,-2.460194 -10.93137,-4.958362 -16.42864,-7.366392 -7.39384,-3.238804 -14.85846,-6.313832 -22.25816,-9.539211 -7.52406,-3.279582 -14.9795,-6.713955 -22.47014,-10.069168 -7.00939,-3.139651 -14.04958,-6.209986 -21.09226,-9.274234 -5.1941,-2.259937 -10.38962,-4.516598 -15.58071,-6.78344 -8.95188,-3.909104 -17.89055,-7.848475 -26.81579,-11.818023"
       id="path37716"
       inkscape:path-effect="#path-effect37718"
       inkscape:original-d="M 481.91002,95.837817 456.82225,84.878831 440.39361,77.512439 418.13545,67.973228 395.66531,57.90406 374.57305,48.629826 358.99234,41.846386 332.17655,30.028363"
       inkscape:connector-curvature="0"
       transform="matrix(0.8,0,0,-0.8,0,318)" /><path
       style="fill:none;stroke:#000000;stroke-width:1px;stroke-linecap:butt;stroke-linejoin:miter;stroke-opacity:1"
       d="m 481.88918,143.43899 c -7.90978,-3.89456 -15.80618,-7.81627 -23.68904,-11.76503 -6.51973,-3.26593 -13.0307,-6.55062 -19.60838,-9.69819 -6.82356,-3.26523 -13.71701,-6.38199 -20.6153,-9.48622 -7.07273,-3.18273 -14.15135,-6.35267 -21.19824,-9.59221 -6.35621,-2.92203 -12.68672,-5.900747 -19.07843,-8.744276 -6.53599,-2.907717 -13.13409,-5.673236 -19.71437,-8.479299 -7.06029,-3.010757 -14.10048,-6.068372 -21.14525,-9.115247 -5.74614,-2.485214 -11.49557,-4.963381 -17.27657,-7.366391 -4.95271,-2.058711 -9.9282,-4.062096 -14.89177,-6.094497 -3.92853,-1.608591 -7.8496,-3.235366 -11.76503,-4.875597 -6.24542,-2.616303 -12.47689,-5.267015 -18.76045,-7.790356 -4.90099,-1.968133 -9.83295,-3.858485 -14.73278,-5.829518 -3.7191,-1.496066 -7.41935,-3.038479 -11.12908,-4.557624 -8.44873,-3.459781 -16.94685,-6.798958 -25.4909,-10.016172"
       id="path37720"
       inkscape:path-effect="#path-effect37722"
       inkscape:original-d="m 481.88918,143.43899 c 0,0 -15.78947,-7.84985 -23.68904,-11.76503 -6.53346,-3.23811 -13.02756,-6.55744 -19.60838,-9.69819 -6.82675,-3.25813 -13.73355,-6.34593 -20.6153,-9.48622 -7.05592,-3.21977 -14.1399,-6.37775 -21.19824,-9.59221 -6.3665,-2.899389 -12.68504,-5.904675 -19.07843,-8.744276 -6.53769,-2.90369 -13.14407,-5.650177 -19.71437,-8.479299 -7.04966,-3.035531 -14.09082,-6.090821 -21.14525,-9.115247 -5.75397,-2.466884 -11.49996,-4.95298 -17.27657,-7.366391 -4.94898,-2.067637 -9.93234,-4.05205 -14.89177,-6.094497 -3.92525,-1.616542 -7.84394,-3.248993 -11.76503,-4.875597 -6.25441,-2.594545 -12.48537,-5.246214 -18.76045,-7.790356 -4.89442,-1.984373 -9.83351,-3.857136 -14.73278,-5.829518 -3.71867,-1.49709 -7.40863,-3.064963 -11.12908,-4.557624 -8.47289,-3.399356 -25.4909,-10.016172 -25.4909,-10.016172"
       inkscape:connector-curvature="0"
       transform="matrix(0.8,0,0,-0.8,0,318)"
       sodipodi:nodetypes="csssssssssssssc" /><path
       style="fill:none;stroke:#000000;stroke-width:1px;stroke-linecap:butt;stroke-linejoin:miter;stroke-opacity:1"
       d="m 481.78319,243.22975 -5.88251,-6.30648 -8.42631,-7.94935 c -3.15566,-2.62608 -6.33558,-5.22301 -9.53921,-7.79035 -3.1463,-2.52139 -6.31676,-5.01521 -9.5922,-7.36639 -3.1902,-2.28999 -6.47655,-4.44221 -9.75238,-6.60793 -4.28292,-2.83154 -8.54969,-5.68741 -12.81596,-8.54398 -5.18781,-3.4736 -10.37584,-6.94884 -15.66395,-10.26775 -4.83043,-3.03166 -9.74245,-5.93166 -14.68963,-8.76882 -4.6183,-2.64856 -9.26773,-5.24266 -13.94017,-7.7945 -8.44788,-4.61378 -16.97176,-9.08978 -25.59709,-13.36264 -7.03558,-3.48532 -14.13772,-6.83503 -21.17097,-10.32505 -4.75945,-2.36172 -9.48692,-4.78749 -14.24829,-7.14532 -6.15358,-3.04725 -12.36305,-5.98067 -18.60146,-8.85027 -5.61703,-2.58377 -11.25767,-5.11588 -16.90561,-7.63136 -4.84829,-2.15933 -9.70209,-4.30648 -14.57379,-6.41247 -6.198,-2.67934 -12.42461,-5.29192 -18.65446,-7.89635 -5.77211,-2.41307 -11.54713,-4.81921 -17.32957,-7.20741 C 217.04229,95.834586 199.61818,88.827488 182.13034,81.983251 164.41105,74.562607 146.5588,67.464191 128.67577,60.44733 L 69.506116,37.230614"
       id="path37724"
       inkscape:path-effect="#path-effect37726"
       inkscape:original-d="m 481.78319,243.22975 -5.88251,-6.30648 -8.42631,-7.94935 -9.53921,-7.79035 -9.5922,-7.36639 -9.75238,-6.60793 -12.81596,-8.54398 -15.66395,-10.26775 -14.68963,-8.76882 -13.94017,-7.7945 -25.59709,-13.36264 -21.17097,-10.32505 -14.24829,-7.14532 -18.60146,-8.85027 -16.90561,-7.63136 -14.57379,-6.41247 -18.65446,-7.89635 -17.32957,-7.20741 -52.26929,-21.020079 C 162.65335,60.900916 150.59107,68.525336 128.67577,60.44733 L 69.506116,37.230614"
       inkscape:connector-curvature="0"
       sodipodi:nodetypes="ccccccccccccccccccccc"
       transform="matrix(0.8,0,0,-0.8,0,318)" /><path
       style="fill:none;stroke:#000000;stroke-width:1px;stroke-linecap:butt;stroke-linejoin:miter;stroke-opacity:1"
       d="m 248.54946,30.028363 c 3.7796,2.528214 7.59582,5.001689 11.44706,7.419387 3.86029,2.423385 7.75655,4.791236 11.55304,7.313396 4.04565,2.687686 7.97353,5.547607 11.92402,8.373308 5.17951,3.704789 10.40034,7.352465 15.52771,11.12908 4.28167,3.15371 8.49722,6.396645 12.66596,9.698199 4.02202,3.185357 8.0026,6.427072 11.81802,9.857185 3.01125,2.707151 5.91679,5.529082 8.85027,8.320313 2.09126,1.989848 4.20106,3.968557 6.0945,6.147492 1.35404,1.558203 2.59221,3.212907 3.81568,4.875597 1.15668,1.57194 2.3052,3.15845 3.23274,4.87559 0.70401,1.30332 1.27992,2.68515 1.58986,4.13367 0.16394,0.76617 0.25281,1.54838 0.26498,2.3318 0.0167,1.07348 -0.11183,2.15251 -0.42396,3.17974 -0.22394,0.73699 -0.54488,1.45053 -1.00692,2.06683 -0.61616,0.82188 -1.4666,1.44737 -2.3848,1.90784 -1.33874,0.67137 -2.8188,1.00597 -4.29265,1.2719 -2.24043,0.40425 -4.50817,0.66385 -6.78344,0.74194 -3.93121,0.13492 -7.85972,-0.2717 -11.76503,-0.74194 -5.24647,-0.63173 -10.47943,-1.37944 -15.6867,-2.27881 -5.91347,-1.02134 -11.79188,-2.23791 -17.64754,-3.55071 -5.50656,-1.23453 -10.9936,-2.55425 -16.48164,-3.86868 -6.61672,-1.58476 -13.23581,-3.16206 -19.82036,-4.8756 -6.9468,-1.80781 -13.85317,-3.76676 -20.77429,-5.67053 -8.7272,-2.40057 -17.47879,-4.713682 -26.17983,-7.207405 -4.20804,-1.206025 -8.40391,-2.454199 -12.61296,-3.656698 -4.44247,-1.269186 -8.8993,-2.487404 -13.3549,-3.709693 -5.94387,-1.63056 -11.88593,-3.268475 -17.80653,-4.981589 -4.66652,-1.350249 -9.31951,-2.747156 -13.99084,-4.080663 -4.16267,-1.188301 -8.33956,-2.326157 -12.50697,-3.497711 -4.88215,-1.372483 -9.75116,-2.791177 -14.62679,-4.186654 -6.13553,-1.75608 -12.28164,-3.475425 -18.44247,-5.140575 -6.065077,-1.63927 -12.145013,-3.226183 -18.177502,-4.981588 -4.318856,-1.256752 -8.61264,-2.599663 -12.877936,-4.027667"
       id="path37728"
       inkscape:path-effect="#path-effect37730"
       inkscape:original-d="m 248.54946,30.028363 c 0,0 7.61817,4.966747 11.44706,7.419387 3.83789,2.458406 7.76147,4.784141 11.55304,7.313396 4.04033,2.69519 7.96285,5.563067 11.92402,8.373308 5.19374,3.684686 10.41107,7.33806 15.52771,11.12908 4.27254,3.165614 8.51231,6.378122 12.66596,9.698199 4.00701,3.202861 7.97793,6.455993 11.81802,9.857185 3.0311,2.684664 5.94942,5.49541 8.85027,8.320313 2.06723,2.013112 4.21832,3.955225 6.0945,6.147492 1.29798,1.516656 6.24663,4.252117 3.81568,4.875597 -2.14057,0.54899 2.1967,2.92365 3.23274,4.87559 0.59376,1.11868 1.26771,2.90884 1.58986,4.13367 0.19898,0.75654 0.23577,1.55008 0.26498,2.3318 0.0343,0.91863 -0.18439,2.29223 -0.42396,3.17974 -0.24507,0.90792 -0.40653,1.34301 -1.00692,2.06683 -0.64993,0.78354 -1.48249,1.43648 -2.3848,1.90784 -1.32276,0.691 -2.82958,0.97761 -4.29265,1.2719 -2.22997,0.44855 -4.50941,0.68967 -6.78344,0.74194 -3.92843,0.0903 -7.85664,-0.3355 -11.76503,-0.74194 -5.25544,-0.54653 -10.48034,-1.37757 -15.6867,-2.27881 -5.91247,-1.02347 -11.78472,-2.27317 -17.64754,-3.55071 -5.51381,-1.20149 -10.9947,-2.54989 -16.48164,-3.86868 -6.61535,-1.59 -13.23463,-3.16706 -19.82036,-4.8756 -6.94809,-1.80254 -13.85159,-3.7728 -20.77429,-5.67053 -8.72922,-2.39295 -17.46967,-4.745951 -26.17983,-7.207405 -4.21247,-1.190427 -8.40186,-2.461432 -12.61296,-3.656698 -4.44462,-1.261548 -8.90441,-2.469031 -13.3549,-3.709693 -5.93704,-1.655065 -11.88025,-3.288421 -17.80653,-4.981589 -4.67103,-1.334536 -9.31975,-2.746346 -13.99084,-4.080663 -4.16246,-1.189023 -8.34155,-2.319131 -12.50697,-3.497711 -4.87982,-1.380714 -9.74638,-2.808035 -14.62679,-4.186654 -6.14151,-1.734853 -12.29127,-3.440428 -18.44247,-5.140575 C 94.689139,64.550665 88.595799,63.011001 82.567178,61.242784 78.251295,59.97692 69.689242,57.215117 69.689242,57.215117"
       inkscape:connector-curvature="0"
       transform="matrix(0.8,0,0,-0.8,0,318)"
       sodipodi:nodetypes="cssssssssssssssssssssssssssssssssc" /><text
       xml:space="preserve"
       style="font-size:20.75273705px;font-style:normal;font-weight:normal;line-height:125%;letter-spacing:0px;word-spacing:0px;fill:#000000;fill-opacity:1;stroke:none;font-family:Sans"
       x="161.50801"
       y="34.545082"
       id="text46288"
       sodipodi:linespacing="125%"
       transform="matrix(0,1.0356869,0.96554278,0,0,0)"><tspan
         sodipodi:role="line"
         id="tspan46290"
         x="161.50801"
         y="34.545082">N</tspan></text>
<text
       xml:space="preserve"
       style="font-size:20.99381447px;font-style:normal;font-weight:normal;line-height:125%;letter-spacing:0px;word-spacing:0px;fill:#000000;fill-opacity:1;stroke:none;font-family:Sans"
       x="215.77016"
       y="-8.7646742"
       id="text46313"
       sodipodi:linespacing="125%"
       transform="scale(1,-1)"><tspan
         sodipodi:role="line"
         id="tspan46315"
         x="215.77016"
         y="-8.7646742">μ</tspan></text>
</g></svg>