<?xml version="1.0" encoding="UTF-8" standalone="no"?>
<!-- Created with Inkscape (http://www.inkscape.org/) -->

<svg
   xmlns:dc="http://purl.org/dc/elements/1.1/"
   xmlns:cc="http://creativecommons.org/ns#"
   xmlns:rdf="http://www.w3.org/1999/02/22-rdf-syntax-ns#"
   xmlns:svg="http://www.w3.org/2000/svg"
   xmlns="http://www.w3.org/2000/svg"
   xmlns:sodipodi="http://sodipodi.sourceforge.net/DTD/sodipodi-0.dtd"
   xmlns:inkscape="http://www.inkscape.org/namespaces/inkscape"
   id="svg2"
   version="1.1"
   inkscape:version="0.48.4 r9939"
   width="532.5"
   height="397.5"
   xml:space="preserve"
   sodipodi:docname="many_other_cmode_on_mu.svg"><metadata
     id="metadata8"><rdf:RDF><cc:Work
         rdf:about=""><dc:format>image/svg+xml</dc:format><dc:type
           rdf:resource="http://purl.org/dc/dcmitype/StillImage" /><dc:title></dc:title></cc:Work></rdf:RDF></metadata><defs
     id="defs6"><inkscape:path-effect
       effect="spiro"
       id="path-effect45278"
       is_visible="true" /><inkscape:path-effect
       effect="spiro"
       id="path-effect45274"
       is_visible="true" /><inkscape:path-effect
       effect="spiro"
       id="path-effect45270"
       is_visible="true" /><inkscape:path-effect
       effect="spiro"
       id="path-effect45266"
       is_visible="true" /><inkscape:path-effect
       effect="spiro"
       id="path-effect45262"
       is_visible="true" /><inkscape:path-effect
       effect="spiro"
       id="path-effect45258"
       is_visible="true" /><inkscape:path-effect
       effect="spiro"
       id="path-effect45250"
       is_visible="true" /><inkscape:path-effect
       effect="spiro"
       id="path-effect45246"
       is_visible="true" /><inkscape:path-effect
       effect="spiro"
       id="path-effect45242"
       is_visible="true" /><inkscape:path-effect
       effect="spiro"
       id="path-effect45238"
       is_visible="true" /><inkscape:path-effect
       effect="spiro"
       id="path-effect45234"
       is_visible="true" /><inkscape:path-effect
       effect="spiro"
       id="path-effect45230"
       is_visible="true" /><inkscape:path-effect
       effect="spiro"
       id="path-effect45226"
       is_visible="true" /><inkscape:path-effect
       effect="spiro"
       id="path-effect45222"
       is_visible="true" /><inkscape:path-effect
       effect="spiro"
       id="path-effect45218"
       is_visible="true" /><inkscape:path-effect
       effect="spiro"
       id="path-effect45195"
       is_visible="true" /><inkscape:path-effect
       effect="spiro"
       id="path-effect45179"
       is_visible="true" /></defs><sodipodi:namedview
     pagecolor="#ffffff"
     bordercolor="#666666"
     borderopacity="1"
     objecttolerance="10"
     gridtolerance="10"
     guidetolerance="10"
     inkscape:pageopacity="0"
     inkscape:pageshadow="2"
     inkscape:window-width="1920"
     inkscape:window-height="1025"
     id="namedview4"
     showgrid="false"
     inkscape:zoom="2.3586854"
     inkscape:cx="290.10912"
     inkscape:cy="202.31795"
     inkscape:window-x="0"
     inkscape:window-y="30"
     inkscape:window-maximized="1"
     inkscape:current-layer="g10" /><g
     id="g10"
     inkscape:groupmode="layer"
     inkscape:label="ink_ext_XXXXXX"
     transform="matrix(1.25,0,0,-1.25,0,397.5)"><path
       inkscape:connector-curvature="0"
       id="path22"
       style="fill:none;stroke:#262626;stroke-width:0.75;stroke-linecap:square;stroke-linejoin:miter;stroke-miterlimit:10;stroke-opacity:1;stroke-dasharray:none"
       d="m 55.5,294 330,0" /><path
       inkscape:connector-curvature="0"
       id="path24"
       style="fill:none;stroke:#262626;stroke-width:0.75;stroke-linecap:square;stroke-linejoin:miter;stroke-miterlimit:10;stroke-opacity:1;stroke-dasharray:none"
       d="m 55.5,35.25 0,3.3" /><path
       inkscape:connector-curvature="0"
       id="path28"
       style="fill:none;stroke:#262626;stroke-width:0.75;stroke-linecap:square;stroke-linejoin:miter;stroke-miterlimit:10;stroke-opacity:1;stroke-dasharray:none"
       d="m 128.834,35.25 0,3.3" /><path
       inkscape:connector-curvature="0"
       id="path32"
       style="fill:none;stroke:#262626;stroke-width:0.75;stroke-linecap:square;stroke-linejoin:miter;stroke-miterlimit:10;stroke-opacity:1;stroke-dasharray:none"
       d="m 202.167,35.25 0,3.3" /><path
       inkscape:connector-curvature="0"
       id="path36"
       style="fill:none;stroke:#262626;stroke-width:0.75;stroke-linecap:square;stroke-linejoin:miter;stroke-miterlimit:10;stroke-opacity:1;stroke-dasharray:none"
       d="m 275.5,35.25 0,3.3" /><path
       inkscape:connector-curvature="0"
       id="path40"
       style="fill:none;stroke:#262626;stroke-width:0.75;stroke-linecap:square;stroke-linejoin:miter;stroke-miterlimit:10;stroke-opacity:1;stroke-dasharray:none"
       d="m 348.833,35.25 0,3.3" /><path
       inkscape:connector-curvature="0"
       id="path42"
       style="fill:none;stroke:#262626;stroke-width:0.75;stroke-linecap:square;stroke-linejoin:miter;stroke-miterlimit:10;stroke-opacity:1;stroke-dasharray:none"
       d="m 385.5,35.25 0,3.3" /><path
       inkscape:connector-curvature="0"
       id="path44"
       style="fill:none;stroke:#262626;stroke-width:0.75;stroke-linecap:square;stroke-linejoin:miter;stroke-miterlimit:10;stroke-opacity:1;stroke-dasharray:none"
       d="m 55.5,294 0,-3.3" /><path
       inkscape:connector-curvature="0"
       id="path46"
       style="fill:none;stroke:#262626;stroke-width:0.75;stroke-linecap:square;stroke-linejoin:miter;stroke-miterlimit:10;stroke-opacity:1;stroke-dasharray:none"
       d="m 92.1668,294 0,-3.3" /><path
       inkscape:connector-curvature="0"
       id="path48"
       style="fill:none;stroke:#262626;stroke-width:0.75;stroke-linecap:square;stroke-linejoin:miter;stroke-miterlimit:10;stroke-opacity:1;stroke-dasharray:none"
       d="m 128.834,294 0,-3.3" /><path
       inkscape:connector-curvature="0"
       id="path50"
       style="fill:none;stroke:#262626;stroke-width:0.75;stroke-linecap:square;stroke-linejoin:miter;stroke-miterlimit:10;stroke-opacity:1;stroke-dasharray:none"
       d="m 165.5,294 0,-3.3" /><path
       inkscape:connector-curvature="0"
       id="path52"
       style="fill:none;stroke:#262626;stroke-width:0.75;stroke-linecap:square;stroke-linejoin:miter;stroke-miterlimit:10;stroke-opacity:1;stroke-dasharray:none"
       d="m 202.167,294 0,-3.3" /><path
       inkscape:connector-curvature="0"
       id="path54"
       style="fill:none;stroke:#262626;stroke-width:0.75;stroke-linecap:square;stroke-linejoin:miter;stroke-miterlimit:10;stroke-opacity:1;stroke-dasharray:none"
       d="m 238.833,294 0,-3.3" /><path
       inkscape:connector-curvature="0"
       id="path56"
       style="fill:none;stroke:#262626;stroke-width:0.75;stroke-linecap:square;stroke-linejoin:miter;stroke-miterlimit:10;stroke-opacity:1;stroke-dasharray:none"
       d="m 275.5,294 0,-3.3" /><path
       inkscape:connector-curvature="0"
       id="path58"
       style="fill:none;stroke:#262626;stroke-width:0.75;stroke-linecap:square;stroke-linejoin:miter;stroke-miterlimit:10;stroke-opacity:1;stroke-dasharray:none"
       d="m 312.166,294 0,-3.3" /><path
       inkscape:connector-curvature="0"
       id="path60"
       style="fill:none;stroke:#262626;stroke-width:0.75;stroke-linecap:square;stroke-linejoin:miter;stroke-miterlimit:10;stroke-opacity:1;stroke-dasharray:none"
       d="m 348.833,294 0,-3.3" /><path
       inkscape:connector-curvature="0"
       id="path62"
       style="fill:none;stroke:#262626;stroke-width:0.75;stroke-linecap:square;stroke-linejoin:miter;stroke-miterlimit:10;stroke-opacity:1;stroke-dasharray:none"
       d="m 385.5,294 0,-3.3" /><g
       id="g64"><text
         id="text66"
         transform="matrix(1,0,0,-1,50.625,21.5)"><tspan
           id="tspan68"
           sodipodi:role="line"
           y="0"
           x="0 3.2467501 38.166763 74.833199 111.50002 148.16685 184.83328 221.50011 258.16693 294.83337 331.50018"
           style="font-size:9.75px;font-variant:normal;font-weight:normal;writing-mode:lr-tb;fill:#262626;fill-opacity:1;fill-rule:nonzero;stroke:none;font-family:Helvetica;-inkscape-font-specification:Helvetica">-1012345678</tspan></text>
</g><path
       inkscape:connector-curvature="0"
       id="path70"
       style="fill:none;stroke:#262626;stroke-width:0.75;stroke-linecap:square;stroke-linejoin:miter;stroke-miterlimit:10;stroke-opacity:1;stroke-dasharray:none"
       d="M 55.5,35.25 55.5,294" /><path
       inkscape:connector-curvature="0"
       id="path72"
       style="fill:none;stroke:#262626;stroke-width:0.75;stroke-linecap:square;stroke-linejoin:miter;stroke-miterlimit:10;stroke-opacity:1;stroke-dasharray:none"
       d="m 385.5,35.25 0,258.75" /><path
       inkscape:connector-curvature="0"
       id="path74"
       style="fill:none;stroke:#262626;stroke-width:0.75;stroke-linecap:square;stroke-linejoin:miter;stroke-miterlimit:10;stroke-opacity:1;stroke-dasharray:none"
       d="m 55.5,35.25 3.3,0" /><path
       inkscape:connector-curvature="0"
       id="path76"
       style="fill:none;stroke:#262626;stroke-width:0.75;stroke-linecap:square;stroke-linejoin:miter;stroke-miterlimit:10;stroke-opacity:1;stroke-dasharray:none"
       d="m 55.5,87 3.3,0" /><path
       inkscape:connector-curvature="0"
       id="path78"
       style="fill:none;stroke:#262626;stroke-width:0.75;stroke-linecap:square;stroke-linejoin:miter;stroke-miterlimit:10;stroke-opacity:1;stroke-dasharray:none"
       d="m 55.5,138.75 3.3,0" /><path
       inkscape:connector-curvature="0"
       id="path80"
       style="fill:none;stroke:#262626;stroke-width:0.75;stroke-linecap:square;stroke-linejoin:miter;stroke-miterlimit:10;stroke-opacity:1;stroke-dasharray:none"
       d="m 55.5,190.5 3.3,0" /><path
       inkscape:connector-curvature="0"
       id="path82"
       style="fill:none;stroke:#262626;stroke-width:0.75;stroke-linecap:square;stroke-linejoin:miter;stroke-miterlimit:10;stroke-opacity:1;stroke-dasharray:none"
       d="m 55.5,242.25 3.3,0" /><path
       inkscape:connector-curvature="0"
       id="path84"
       style="fill:none;stroke:#262626;stroke-width:0.75;stroke-linecap:square;stroke-linejoin:miter;stroke-miterlimit:10;stroke-opacity:1;stroke-dasharray:none"
       d="m 55.5,294 3.3,0" /><path
       inkscape:connector-curvature="0"
       id="path86"
       style="fill:none;stroke:#262626;stroke-width:0.75;stroke-linecap:square;stroke-linejoin:miter;stroke-miterlimit:10;stroke-opacity:1;stroke-dasharray:none"
       d="m 385.5,35.25 -3.3,0" /><path
       inkscape:connector-curvature="0"
       id="path88"
       style="fill:none;stroke:#262626;stroke-width:0.75;stroke-linecap:square;stroke-linejoin:miter;stroke-miterlimit:10;stroke-opacity:1;stroke-dasharray:none"
       d="m 385.5,87 -3.3,0" /><path
       inkscape:connector-curvature="0"
       id="path90"
       style="fill:none;stroke:#262626;stroke-width:0.75;stroke-linecap:square;stroke-linejoin:miter;stroke-miterlimit:10;stroke-opacity:1;stroke-dasharray:none"
       d="m 385.5,138.75 -3.3,0" /><path
       inkscape:connector-curvature="0"
       id="path92"
       style="fill:none;stroke:#262626;stroke-width:0.75;stroke-linecap:square;stroke-linejoin:miter;stroke-miterlimit:10;stroke-opacity:1;stroke-dasharray:none"
       d="m 385.5,190.5 -3.3,0" /><path
       inkscape:connector-curvature="0"
       id="path94"
       style="fill:none;stroke:#262626;stroke-width:0.75;stroke-linecap:square;stroke-linejoin:miter;stroke-miterlimit:10;stroke-opacity:1;stroke-dasharray:none"
       d="m 385.5,242.25 -3.3,0" /><path
       inkscape:connector-curvature="0"
       id="path96"
       style="fill:none;stroke:#262626;stroke-width:0.75;stroke-linecap:square;stroke-linejoin:miter;stroke-miterlimit:10;stroke-opacity:1;stroke-dasharray:none"
       d="m 385.5,294 -3.3,0" /><g
       id="g98"><text
         id="text100"
         transform="matrix(1,0,0,-1,44.75,31.875)"><tspan
           id="tspan102"
           y="0"
           x="0"
           style="font-size:9.75px;font-variant:normal;font-weight:normal;writing-mode:lr-tb;fill:#262626;fill-opacity:1;fill-rule:nonzero;stroke:none;font-family:Helvetica;-inkscape-font-specification:Helvetica">0</tspan><tspan
           id="tspan104"
           y="-51.75"
           x="0"
           style="font-size:9.75px;font-variant:normal;font-weight:normal;writing-mode:lr-tb;fill:#262626;fill-opacity:1;fill-rule:nonzero;stroke:none;font-family:Helvetica;-inkscape-font-specification:Helvetica">5</tspan><tspan
           id="tspan106"
           sodipodi:role="line"
           y="-103.5"
           x="-6 -0.579"
           style="font-size:9.75px;font-variant:normal;font-weight:normal;writing-mode:lr-tb;fill:#262626;fill-opacity:1;fill-rule:nonzero;stroke:none;font-family:Helvetica;-inkscape-font-specification:Helvetica">10</tspan><tspan
           id="tspan108"
           sodipodi:role="line"
           y="-155.25"
           x="-6 -0.579"
           style="font-size:9.75px;font-variant:normal;font-weight:normal;writing-mode:lr-tb;fill:#262626;fill-opacity:1;fill-rule:nonzero;stroke:none;font-family:Helvetica;-inkscape-font-specification:Helvetica">15</tspan><tspan
           id="tspan110"
           sodipodi:role="line"
           y="-207"
           x="-6 -0.579"
           style="font-size:9.75px;font-variant:normal;font-weight:normal;writing-mode:lr-tb;fill:#262626;fill-opacity:1;fill-rule:nonzero;stroke:none;font-family:Helvetica;-inkscape-font-specification:Helvetica">20</tspan><tspan
           id="tspan112"
           sodipodi:role="line"
           y="-258.75"
           x="-6 -0.579"
           style="font-size:9.75px;font-variant:normal;font-weight:normal;writing-mode:lr-tb;fill:#262626;fill-opacity:1;fill-rule:nonzero;stroke:none;font-family:Helvetica;-inkscape-font-specification:Helvetica">25</tspan></text>
</g><path
       inkscape:connector-curvature="0"
       id="path20"
       style="fill:none;stroke:#262626;stroke-width:0.75;stroke-linecap:square;stroke-linejoin:miter;stroke-miterlimit:10;stroke-opacity:1;stroke-dasharray:none"
       d="m 55.5,35.25 330,0" /><path
       inkscape:connector-curvature="0"
       id="path26"
       style="fill:none;stroke:#262626;stroke-width:0.75;stroke-linecap:square;stroke-linejoin:miter;stroke-miterlimit:10;stroke-opacity:1;stroke-dasharray:none"
       d="m 92.1668,35.25 0,3.3" /><path
       inkscape:connector-curvature="0"
       id="path30"
       style="fill:none;stroke:#262626;stroke-width:0.75;stroke-linecap:square;stroke-linejoin:miter;stroke-miterlimit:10;stroke-opacity:1;stroke-dasharray:none"
       d="m 165.5,35.25 0,3.3" /><path
       inkscape:connector-curvature="0"
       id="path34"
       style="fill:none;stroke:#262626;stroke-width:0.75;stroke-linecap:square;stroke-linejoin:miter;stroke-miterlimit:10;stroke-opacity:1;stroke-dasharray:none"
       d="m 238.833,35.25 0,3.3" /><path
       inkscape:connector-curvature="0"
       id="path38"
       style="fill:none;stroke:#262626;stroke-width:0.75;stroke-linecap:square;stroke-linejoin:miter;stroke-miterlimit:10;stroke-opacity:1;stroke-dasharray:none"
       d="m 312.166,35.25 0,3.3" /><path
       style="fill:none;stroke:#000000;stroke-width:1px;stroke-linecap:butt;stroke-linejoin:miter;stroke-opacity:1"
       d="m 69.318272,337.82693 c 6.113167,0.0297 12.225962,0.13575 18.336485,0.31797 4.382676,0.1307 8.764292,0.30061 13.142913,0.52996 5.14881,0.26969 10.29467,0.62169 15.42173,1.16591 4.02265,0.42699 8.03219,0.97215 12.03,1.58986 3.97292,0.61387 7.93553,1.2996 11.87102,2.11983 2.86095,0.59627 5.70711,1.26354 8.53497,2.00097 2.45215,0.70593 4.84662,1.6121 7.15174,2.70654 0.8652,0.41078 1.71831,0.8483 2.54379,1.33399 0.52507,0.30893 1.04242,0.64008 1.48387,1.05991 0.76394,0.72653 1.27612,1.71294 1.43089,2.75577"
       id="path45177"
       inkscape:path-effect="#path-effect45179"
       inkscape:original-d="m 69.318272,337.82693 18.336485,0.31797 13.142913,0.52996 15.42173,1.16591 12.03,1.58986 11.87102,2.11983 8.53497,2.00097 c 0,0 4.94519,1.702 7.15174,2.70654 0.89342,0.40674 2.54379,1.33399 2.54379,1.33399 0,0 1.07305,0.61191 1.48387,1.05991 0.61018,0.66542 1.43089,2.75577 1.43089,2.75577"
       inkscape:connector-curvature="0"
       transform="matrix(0.8,0,0,-0.8,0,318)"
       sodipodi:nodetypes="cccccccscsc" /><path
       style="fill:none;stroke:#000000;stroke-width:1px;stroke-linecap:butt;stroke-linejoin:miter;stroke-opacity:1"
       d="m 69.401039,302.16726 c 5.361265,1.26724 10.732706,2.49143 16.113632,3.6724 4.934177,1.08292 9.876756,2.1296 14.839529,3.07284 9.33292,1.77385 18.73097,3.18077 28.10517,4.72167 6.52083,1.07187 13.03112,2.20876 19.5612,3.22272 8.88537,1.37968 17.8055,2.53148 26.68118,3.9722 6.0512,0.98224 12.08205,2.09892 18.06226,3.44757 4.32101,0.97447 8.61407,2.06969 12.8909,3.22272 4.48967,1.21041 8.96212,2.48469 13.41554,3.82231 l 9.89302,3.52252 c 3.52308,1.45661 6.97598,3.08298 10.3427,4.87156 2.48846,1.32201 4.9364,2.73689 7.19493,4.42188 1.29261,0.96436 2.52417,2.01903 3.59746,3.22272 0.73098,0.8198 1.38978,1.71207 1.87368,2.6981 0.49414,1.0069 0.80072,2.10546 0.89936,3.22273"
       id="path45193"
       inkscape:path-effect="#path-effect45195"
       inkscape:original-d="m 69.401039,302.16726 16.113632,3.6724 14.839529,3.07284 28.10517,4.72167 19.5612,3.22272 26.68118,3.9722 18.06226,3.44757 12.8909,3.22272 13.41554,3.82231 9.89302,3.52252 c 0,0 7.05801,3.16069 10.3427,4.87156 2.49667,1.30042 4.93833,2.73897 7.19493,4.42188 1.29058,0.96248 2.53148,2.01622 3.59746,3.22272 0.72499,0.82056 1.40772,1.70723 1.87368,2.6981 0.47461,1.00927 0.89936,3.22273 0.89936,3.22273"
       inkscape:connector-curvature="0"
       sodipodi:nodetypes="ccccccccccssssc"
       transform="matrix(0.8,0,0,-0.8,0,318)" /><path
       style="fill:none;stroke:#000000;stroke-width:1px;stroke-linecap:butt;stroke-linejoin:miter;stroke-opacity:1"
       d="m 69.401039,275.63597 12.441223,1.04926 7.194924,0 c 2.103332,-0.20691 4.202435,-0.4568 6.295558,-0.74947 2.001073,-0.2798 4.03167,-0.60942 5.845876,-1.49894 1.44689,-0.70942 2.71471,-1.7608 3.74736,-2.99789 0.95308,-1.14177 1.71809,-2.45944 2.09852,-3.89725 0.25782,-0.9744 0.3362,-1.9906 0.29978,-2.99788 -0.055,-1.52167 -0.36844,-3.02261 -0.74947,-4.49683 -0.7724,-2.98844 -1.82791,-5.90365 -3.14778,-8.69387 -2.56864,-5.16355 -5.267889,-10.26212 -8.094286,-15.28921 C 91.985471,230.11036 88.46085,224.25874 84.990041,218.37637 79.667505,209.35568 74.4705,200.26092 69.401039,191.09561"
       id="path45216"
       inkscape:path-effect="#path-effect45218"
       inkscape:original-d="m 69.401039,275.63597 12.441223,1.04926 7.194924,0 c 0,0 4.218183,-0.36126 6.295558,-0.74947 1.97743,-0.36954 4.045893,-0.60069 5.845876,-1.49894 1.43133,-0.71428 2.72297,-1.76927 3.74736,-2.99789 0.94485,-1.13322 1.667,-2.48632 2.09852,-3.89725 0.29372,-0.96037 0.33266,-1.99414 0.29978,-2.99788 -0.0498,-1.5188 -0.36429,-3.02684 -0.74947,-4.49683 -0.78121,-2.98141 -3.14778,-8.69387 -3.14778,-8.69387 L 95.332744,236.06389 84.990041,218.37637 69.401039,191.09561"
       inkscape:connector-curvature="0"
       transform="matrix(0.8,0,0,-0.8,0,318)"
       sodipodi:nodetypes="cccsssssscccc" /><path
       style="fill:none;stroke:#000000;stroke-width:1px;stroke-linecap:butt;stroke-linejoin:miter;stroke-opacity:1"
       d="m 69.326092,154.37152 c 1.978676,3.26644 4.027867,6.49017 6.145664,9.66818 0.976136,1.46481 1.967001,2.92013 2.997885,4.34694 0.658419,0.91129 1.333086,1.81085 2.023573,2.69809 0.774425,0.9951 1.515191,2.02291 2.398308,2.92294 0.410735,0.4186 0.859383,0.80147 1.349048,1.12421 0.167947,0.11069 0.34339,0.21548 0.537238,0.26917 0.193848,0.0537 0.410215,0.0517 0.586969,-0.0443 0.173709,-0.0943 0.292755,-0.27129 0.348026,-0.46109 0.05527,-0.1898 0.05226,-0.39215 0.02671,-0.58817 -0.07596,-0.58264 -0.342449,-1.12052 -0.599577,-1.64884 -2.455792,-5.04593 -4.593447,-10.24123 -7.04503,-15.28921 -2.250115,-4.63314 -4.523549,-9.25496 -6.820188,-13.86522 -0.672535,-1.35004 -1.34706,-2.6991 -2.023572,-4.04715"
       id="path45220"
       inkscape:path-effect="#path-effect45222"
       inkscape:original-d="m 69.326092,154.37152 6.145664,9.66818 2.997885,4.34694 2.023573,2.69809 c 0,0 1.510533,2.02838 2.398308,2.92294 0.41233,0.41548 0.820968,0.87168 1.349048,1.12421 0.344763,0.16487 0.791654,0.41313 1.124207,0.22484 0.323183,-0.18298 0.375802,-0.67787 0.374735,-1.04926 -0.0017,-0.58482 -0.377083,-1.10799 -0.599577,-1.64884 -2.134841,-5.18946 -7.04503,-15.28921 -7.04503,-15.28921 l -6.820188,-13.86522 -2.023572,-4.04715"
       inkscape:connector-curvature="0"
       transform="matrix(0.8,0,0,-0.8,0,318)"
       sodipodi:nodetypes="ccccsssssccc" /><path
       style="fill:none;stroke:#000000;stroke-width:1px;stroke-linecap:butt;stroke-linejoin:miter;stroke-opacity:1"
       d="m 481.6242,217.52687 c -2.59945,-4.25649 -5.10866,-8.56809 -7.52537,-12.93093 -2.75303,-4.96998 -5.38583,-10.00608 -7.93116,-15.08557 -1.6653,-3.32329 -3.29336,-6.66557 -4.84832,-10.04189 -1.31618,-2.85785 -2.57979,-5.73963 -3.82478,-8.6292 -2.90461,-6.74147 -5.70839,-13.52639 -8.40968,-20.35187 -1.62982,-4.11815 -3.22236,-8.2511 -4.7696,-12.40098 -2.25259,-6.04169 -4.40916,-12.11921 -6.46547,-18.23049 -1.31654,-3.91272 -2.59195,-7.83914 -3.86868,-11.76503 -2.60414,-8.00758 -5.14893,-16.034931 -7.52538,-24.113005 -2.04832,-6.962695 -4.04456,-13.940712 -5.9885,-20.93327 -1.93968,-6.977241 -3.82734,-13.969186 -5.61754,-20.986266 -1.02101,-4.002077 -2.0103,-8.012247 -2.96775,-12.030006"
       id="path45224"
       inkscape:path-effect="#path-effect45226"
       inkscape:original-d="m 481.6242,217.52687 c 0,0 -5.11021,-8.56766 -7.52537,-12.93093 -2.75127,-4.97049 -5.37388,-10.01254 -7.93116,-15.08557 -1.67316,-3.31915 -3.28696,-6.66871 -4.84832,-10.04189 -1.32162,-2.85525 -2.58644,-5.73686 -3.82478,-8.6292 -2.88905,-6.74785 -5.69035,-13.53385 -8.40968,-20.35187 -1.64074,-4.11373 -3.23435,-8.24672 -4.7696,-12.40098 -2.23506,-6.0479 -4.38071,-12.12915 -6.46547,-18.23049 -1.33481,-3.90651 -2.60893,-7.83368 -3.86868,-11.76503 -2.5694,-8.0184 -7.52538,-24.113005 -7.52538,-24.113005 l -5.9885,-20.93327 -5.61754,-20.986266 -2.96775,-12.030006"
       inkscape:connector-curvature="0"
       transform="matrix(0.8,0,0,-0.8,0,318)"
       sodipodi:nodetypes="csssssssscccc" /><path
       style="fill:none;stroke:#000000;stroke-width:1px;stroke-linecap:butt;stroke-linejoin:miter;stroke-opacity:1"
       d="m 481.94218,215.46004 c -2.0006,-3.3227 -3.94416,-6.67975 -5.82952,-10.06917 -1.97865,-3.55713 -3.89308,-7.14966 -5.77652,-10.75811 -1.71088,-3.27785 -3.39659,-6.56964 -4.98159,-9.91018 -1.75234,-3.69323 -3.38051,-7.4438 -5.03458,-11.18208 -2.61499,-5.90998 -5.29583,-11.79171 -7.79036,-17.75353 -2.06021,-4.9238 -3.99247,-9.90018 -5.88251,-14.89177 -1.42699,-3.76866 -2.8301,-7.54648 -4.18666,-11.34106 -1.90507,-5.32888 -3.71809,-10.69019 -5.51154,-16.05767 -1.88543,-5.64278 -3.74938,-11.29283 -5.56454,-16.958603 -1.71659,-5.358117 -3.3895,-10.730167 -5.03459,-16.110668 -2.13039,-6.967752 -4.21427,-13.950196 -6.1732,-20.968082 -1.7256,-6.181969 -3.35403,-12.390711 -4.93769,-18.610555 -0.9039,-3.550069 -1.79323,-7.103847 -2.66797,-10.661212"
       id="path45228"
       inkscape:path-effect="#path-effect45230"
       inkscape:original-d="m 481.94218,215.46004 c 0,0 -3.94035,-6.68209 -5.82952,-10.06917 -1.98269,-3.55474 -3.89956,-7.14642 -5.77652,-10.75811 -1.70494,-3.28069 -3.39202,-6.57206 -4.98159,-9.91018 -1.75745,-3.69065 -3.37419,-7.44675 -5.03458,-11.18208 -2.625,-5.90538 -5.30439,-11.78829 -7.79036,-17.75353 -2.05307,-4.92649 -3.9778,-9.90604 -5.88251,-14.89177 -1.43811,-3.76437 -2.83468,-7.5449 -4.18666,-11.34106 -1.89863,-5.33107 -3.71074,-10.69276 -5.51154,-16.05767 -1.89318,-5.64014 -3.74979,-11.29274 -5.56454,-16.958603 -1.7162,-5.358198 -3.40093,-10.72673 -5.03459,-16.110668 -2.11555,-6.972078 -4.20993,-13.951601 -6.1732,-20.968082 -1.72942,-6.180753 -3.33565,-12.395565 -4.93769,-18.610555 -0.9144,-3.547367 -2.66797,-10.661212 -2.66797,-10.661212"
       inkscape:connector-curvature="0"
       transform="matrix(0.8,0,0,-0.8,0,318)"
       sodipodi:nodetypes="cssssssssssssc" /><path
       style="fill:none;stroke:#000000;stroke-width:1px;stroke-linecap:butt;stroke-linejoin:miter;stroke-opacity:1"
       d="m 371.81269,30.03424 c 2.45006,10.429125 4.94834,20.846924 7.49472,31.252952 1.54821,6.326904 3.11421,12.649508 4.72166,18.961623 2.36579,9.289978 4.82129,18.557011 7.34482,27.805385 1.75703,6.43924 3.54721,12.87005 5.47114,19.26141 1.23676,4.10857 2.52863,8.20032 3.82231,12.29133 2.05097,6.48581 4.10678,12.97069 6.29556,19.4113 3.3018,9.71574 6.90519,19.32762 10.71743,28.85465 2.26329,5.6561 4.60044,11.28296 7.04503,16.8631 1.4179,3.23657 2.87187,6.45726 4.34694,9.66818 2.57508,5.60543 5.21462,11.18147 7.94439,16.71321 1.44865,2.93561 2.92268,5.85869 4.42188,8.76881 2.59076,5.02897 5.24582,10.02686 8.09429,14.91448 3.45531,5.92888 7.20932,11.6944 10.26776,17.83742 1.62876,3.27144 3.05726,6.64568 4.19704,10.11786 0.46189,1.4071 0.88088,2.8718 0.74947,4.34693 -0.0688,0.77256 -0.29637,1.54396 -0.74947,2.17347 -0.64854,0.90105 -1.70091,1.43567 -2.77305,1.72378 -1.48131,0.39807 -3.04025,0.38461 -4.57177,0.29979 -1.83271,-0.1015 -3.66002,-0.30125 -5.47114,-0.59957 -3.08273,-0.50777 -6.11634,-1.30101 -9.0686,-2.32337 -3.86375,-1.33801 -7.57935,-3.06375 -11.31702,-4.72166 -3.91459,-1.73639 -7.8626,-3.40218 -11.70671,-5.28948 -4.73833,-2.32633 -9.3037,-4.99097 -13.77886,-7.79035 -3.43964,-2.15162 -6.83243,-4.37814 -10.17516,-6.67745 -2.90013,-1.99487 -5.76257,-4.04452 -8.58529,-6.14749 -4.54558,-3.53362 -8.96559,-7.22875 -13.2489,-11.07609 -2.73383,-2.45557 -5.41175,-4.9729 -8.05534,-7.52538 -3.46025,-3.34099 -6.86309,-6.74363 -10.12216,-10.28115 -2.87601,-3.12173 -5.63812,-6.34637 -8.37331,-9.5922 -2.65454,-3.15012 -5.28523,-6.32202 -7.79036,-9.59221 -2.31427,-3.02105 -4.51962,-6.12368 -6.73044,-9.22124 -2.81664,-3.94636 -5.64308,-7.88571 -8.4793,-11.81802 -3.13976,-4.9296 -6.19642,-9.91214 -9.16824,-14.94477 -2.50241,-4.23772 -4.94472,-8.51105 -7.3134,-12.82494 -3.00455,-5.47197 -5.89035,-11.00869 -8.69128,-16.58763 -3.27604,-6.52528 -6.43643,-13.10921 -9.43322,-19.76736 -1.19775,-2.66112 -2.3693,-5.33393 -3.55071,-8.00234 -1.88287,-4.25279 -3.79091,-8.4947 -5.61753,-12.77195 -0.68419,-1.6021 -1.35693,-3.20912 -2.01384,-4.8226 -2.76167,-6.783148 -5.24189,-13.67677 -7.73736,-20.562301 -2.36661,-6.529977 -4.74776,-13.054875 -7.04842,-19.608379 -1.60619,-4.575284 -3.17316,-9.164577 -4.66361,-13.778862 -1.58893,-4.919167 -3.09078,-9.866458 -4.50463,-14.838774"
       id="path45232"
       inkscape:path-effect="#path-effect45234"
       inkscape:original-d="m 371.81269,30.03424 7.49472,31.252952 4.72166,18.961623 7.34482,27.805385 5.47114,19.26141 3.82231,12.29133 6.29556,19.4113 10.71743,28.85465 7.04503,16.8631 4.34694,9.66818 7.94439,16.71321 4.42188,8.76881 c 0,0 5.33407,9.97721 8.09429,14.91448 3.34777,5.98825 7.23582,11.68323 10.26776,17.83742 1.61364,3.27536 3.18107,6.61078 4.19704,10.11786 0.40913,1.41229 0.86794,2.88136 0.74947,4.34693 -0.0618,0.76386 -0.27157,1.57438 -0.74947,2.17347 -0.67872,0.85083 -1.73682,1.39091 -2.77305,1.72378 -1.45402,0.46708 -3.04494,0.33314 -4.57177,0.29979 -1.83419,-0.0401 -3.66614,-0.27116 -5.47114,-0.59957 -3.07009,-0.5586 -6.1095,-1.33279 -9.0686,-2.32337 -3.87608,-1.29755 -7.56799,-3.09302 -11.31702,-4.72166 -3.92749,-1.70616 -7.88793,-3.35218 -11.70671,-5.28948 -4.70536,-2.38707 -13.77886,-7.79035 -13.77886,-7.79035 l -10.17516,-6.67745 -8.58529,-6.14749 -13.2489,-11.07609 -8.05534,-7.52538 -10.12216,-10.28115 -8.37331,-9.5922 -7.79036,-9.59221 -6.73044,-9.22124 -8.4793,-11.81802 -9.16824,-14.94477 -7.3134,-12.82494 -8.69128,-16.58763 -9.43322,-19.76736 -3.55071,-8.00234 -5.61753,-12.77195 -2.01384,-4.8226 -7.73736,-20.562301 -7.04842,-19.608379 -4.66361,-13.778862 -4.50463,-14.838774"
       inkscape:connector-curvature="0"
       transform="matrix(0.8,0,0,-0.8,0,318)"
       sodipodi:nodetypes="ccccccccccccsssssssssssccccccccccccccccccccc" /><path
       style="fill:none;stroke:#000000;stroke-width:1px;stroke-linecap:butt;stroke-linejoin:miter;stroke-opacity:1"
       d="m 481.99517,307.40745 c -1.95554,-0.21134 -3.90141,-0.51207 -5.82951,-0.90093 -3.23933,-0.65331 -6.4232,-1.55407 -9.59221,-2.4908 -4.91881,-1.45395 -9.81342,-2.99758 -14.62679,-4.7696 -4.75103,-1.74907 -9.42122,-3.71184 -14.04384,-5.77652 -3.34827,-1.4955 -6.67003,-3.05036 -9.96318,-4.66362 -3.17155,-1.55369 -6.31657,-3.16153 -9.43322,-4.8226 -4.71071,-2.61408 -9.34186,-5.37156 -13.88485,-8.26732 -4.45049,-2.8368 -8.81638,-5.80631 -13.08992,-8.90326 -3.31375,-2.46142 -6.56553,-5.00629 -9.7512,-7.63137 -2.63964,-2.17513 -5.23379,-4.40524 -7.79035,-6.67745 -3.78374,-3.3629 -7.4857,-6.81854 -11.07609,-10.38714 -2.88027,-2.86279 -5.68844,-5.79799 -8.4263,-8.79727 -4.4689,-4.8956 -8.74932,-9.9606 -12.93093,-15.10376 -2.63526,-3.24123 -5.23209,-6.51446 -7.73736,-9.85718 -3.10144,-4.13816 -6.06115,-8.38091 -8.95626,-12.66596 -2.67475,-3.95891 -5.29538,-7.95541 -7.79036,-12.03 -3.05868,-4.99518 -5.92646,-10.10427 -8.79727,-15.20974 -3.63436,-6.46338 -7.27655,-12.92633 -10.59913,-19.55539 -2.81201,-5.61039 -5.39199,-11.33364 -7.94934,-17.06459 -2.75924,-6.18339 -5.49328,-12.37818 -8.16132,-18.60146 -2.61515,-6.09991 -5.16688,-12.22716 -7.63137,-18.389482 -2.35643,-5.892129 -4.6334,-11.817176 -6.73045,-17.806529 -2.36848,-6.764594 -4.50615,-13.607478 -6.78344,-20.403314 -1.89567,-5.657023 -3.88819,-11.281713 -5.72352,-16.958599 -1.04002,-3.216905 -2.02944,-6.450171 -2.96776,-9.698199"
       id="path45236"
       inkscape:path-effect="#path-effect45238"
       inkscape:original-d="m 481.99517,307.40745 c 0,0 -3.90604,-0.53036 -5.82951,-0.90093 -3.24379,-0.62494 -6.42169,-1.56317 -9.59221,-2.4908 -4.92193,-1.44006 -9.81424,-2.99803 -14.62679,-4.7696 -4.75019,-1.74862 -14.04384,-5.77652 -14.04384,-5.77652 l -9.96318,-4.66362 -9.43322,-4.8226 -13.88485,-8.26732 -13.08992,-8.90326 -9.7512,-7.63137 -7.79035,-6.67745 -11.07609,-10.38714 -8.4263,-8.79727 -12.93093,-15.10376 -7.73736,-9.85718 -8.95626,-12.66596 -7.79036,-12.03 -8.79727,-15.20974 -10.59913,-19.55539 -7.94934,-17.06459 -8.16132,-18.60146 -7.63137,-18.389482 -6.73045,-17.806529 -6.78344,-20.403314 -5.72352,-16.958599 -2.96776,-9.698199"
       inkscape:connector-curvature="0"
       transform="matrix(0.8,0,0,-0.8,0,318)"
       sodipodi:nodetypes="cssscccccccccccccccccccccc" /><path
       style="fill:none;stroke:#000000;stroke-width:1px;stroke-linecap:butt;stroke-linejoin:miter;stroke-opacity:1"
       d="m 481.83507,288.60183 -11.54185,-13.64038 c -4.04359,-5.14253 -7.91863,-10.41758 -11.61681,-15.81384 -2.60108,-3.79541 -5.11449,-7.65046 -7.56966,-11.54186 -1.98683,-3.14909 -3.93564,-6.32216 -5.84587,-9.51829 -2.7863,-5.26429 -5.55936,-10.53559 -8.31913,-15.81384 -2.63527,-5.04013 -5.25843,-10.08659 -7.86945,-15.13932 -3.34825,-7.35369 -6.54688,-14.7755 -9.59323,-22.2593 -1.67384,-4.11202 -3.30165,-8.24258 -4.94652,-12.36627 -1.36839,-3.43054 -2.74912,-6.85772 -3.97219,-10.34271 -0.95231,-2.71348 -1.80836,-5.46013 -2.77305,-8.16923 -0.99463,-2.79318 -2.10386,-5.54399 -3.14778,-8.31913 -2.59289,-6.89292 -4.7809,-13.93073 -6.89513,-20.9852 -2.09055,-6.97545 -4.11058,-13.97198 -6.07072,-20.98519 -1.87438,-6.70637 -3.69398,-13.427998 -5.47114,-20.160782 -2.3289,-8.82305 -4.58497,-17.665437 -6.74524,-26.531282 -2.19788,-9.020181 -4.29657,-18.06453 -6.29556,-27.13086"
       id="path45240"
       inkscape:path-effect="#path-effect45242"
       inkscape:original-d="m 481.83507,288.60183 -11.54185,-13.64038 -11.61681,-15.81384 -7.56966,-11.54186 -5.84587,-9.51829 -8.31913,-15.81384 -7.86945,-15.13932 -9.59323,-22.2593 -4.94652,-12.36627 -3.97219,-10.34271 -2.77305,-8.16923 -3.14778,-8.31913 -6.89513,-20.9852 -6.07072,-20.98519 -5.47114,-20.160782 -6.74524,-26.531282 -6.29556,-27.13086"
       inkscape:connector-curvature="0"
       transform="matrix(0.8,0,0,-0.8,0,318)" /><path
       style="fill:none;stroke:#000000;stroke-width:1px;stroke-linecap:butt;stroke-linejoin:miter;stroke-opacity:1"
       d="m 481.94218,259.97636 -8.4793,-11.60604 c -2.38043,-3.66102 -4.71251,-7.35347 -6.99542,-11.07608 -2.33942,-3.81475 -4.62734,-7.66138 -6.83644,-11.55305 -2.06439,-3.63674 -4.05982,-7.31259 -5.9885,-11.02309 -4.04912,-7.78992 -7.80304,-15.73062 -11.39406,-23.74204 -2.72597,-6.08153 -5.35883,-12.20538 -7.84335,-18.38948 -1.70973,-4.25561 -3.34899,-8.53915 -4.98159,-12.82494 -2.4909,-6.53892 -4.96716,-13.08539 -7.20741,-19.71437 -1.71167,-5.06491 -3.28469,-10.17543 -4.92859,-15.26274 -1.58202,-4.89584 -3.2298,-9.7705 -4.7696,-14.67978 -1.75678,-5.60106 -3.37249,-11.245507 -4.9286,-16.905607 -1.42108,-5.168963 -2.79259,-10.351401 -4.18665,-15.527717 -1.90099,-7.058596 -3.84412,-14.106527 -5.61754,-21.198248 -1.30869,-5.233298 -2.52466,-10.489238 -3.76269,-15.7397 -0.8378,-3.553114 -1.68574,-7.10384 -2.54379,-10.652119"
       id="path45244"
       inkscape:path-effect="#path-effect45246"
       inkscape:original-d="m 481.94218,259.97636 -8.4793,-11.60604 -6.99542,-11.07608 -6.83644,-11.55305 -5.9885,-11.02309 -11.39406,-23.74204 -7.84335,-18.38948 -4.98159,-12.82494 -7.20741,-19.71437 -4.92859,-15.26274 -4.7696,-14.67978 -4.9286,-16.905607 -4.18665,-15.527717 -5.61754,-21.198248 -3.76269,-15.7397 -2.54379,-10.652119"
       inkscape:connector-curvature="0"
       transform="matrix(0.8,0,0,-0.8,0,318)" /><path
       style="fill:none;stroke:#000000;stroke-width:1px;stroke-linecap:butt;stroke-linejoin:miter;stroke-opacity:1"
       d="m 481.78319,251.23209 c -1.33524,-1.7098 -2.64269,-3.4413 -3.92167,-5.19358 -2.14091,-2.93318 -4.20186,-5.92435 -6.20049,-8.95626 -2.23341,-3.38806 -4.38894,-6.82684 -6.51846,-10.28115 -1.91266,-3.10253 -3.80476,-6.21829 -5.61754,-9.38022 -2.66146,-4.64223 -5.1504,-9.38132 -7.57837,-14.14983 -2.64927,-5.20314 -5.22698,-10.44323 -7.68437,-15.7397 -1.88732,-4.06777 -3.7035,-8.16843 -5.45855,-12.29499 -1.83219,-4.30794 -3.59768,-8.64391 -5.35255,-12.98392 -2.33166,-5.7665 -4.64515,-11.5416 -6.78344,-17.38257 -1.41552,-3.86665 -2.75385,-7.76106 -4.08067,-11.65903 -2.10787,-6.19259 -4.18696,-12.39495 -6.25348,-18.60147 -1.45064,-4.3568 -2.89513,-8.71577 -4.29265,-13.08991 -2.08724,-6.532934 -4.06977,-13.100015 -5.88251,-19.714375 -2.09737,-7.652914 -3.96667,-15.366112 -5.93551,-23.053095 -1.62863,-6.358663 -3.32557,-12.700148 -4.8756,-19.078424 -0.77919,-3.206318 -1.5212,-6.421674 -2.22581,-9.645203"
       id="path45248"
       inkscape:path-effect="#path-effect45250"
       inkscape:original-d="m 481.78319,251.23209 -3.92167,-5.19358 -6.20049,-8.95626 -6.51846,-10.28115 -5.61754,-9.38022 -7.57837,-14.14983 -7.68437,-15.7397 -5.45855,-12.29499 -5.35255,-12.98392 -6.78344,-17.38257 -4.08067,-11.65903 -6.25348,-18.60147 -4.29265,-13.08991 -5.88251,-19.714375 -5.93551,-23.053095 -4.8756,-19.078424 -2.22581,-9.645203"
       inkscape:connector-curvature="0"
       transform="matrix(0.8,0,0,-0.8,0,318)" /><path
       style="fill:none;stroke:#000000;stroke-width:1px;stroke-linecap:butt;stroke-linejoin:miter;stroke-opacity:1"
       d="m 245.15205,30.184134 c 1.43256,4.594099 2.85656,9.190867 4.27199,13.790272 1.14126,3.708484 2.27694,7.41868 3.41009,11.129648 1.22999,4.028099 2.45705,8.057303 3.74736,12.066487 1.32879,4.128756 2.7245,8.235772 4.15956,12.328803 1.48127,4.224811 3.00454,8.434909 4.57177,12.628591 1.95872,5.241254 3.98603,10.456625 6.03325,15.663945 0.67302,1.71189 1.34819,3.42292 2.02357,5.13388 1.59774,4.0476 3.19661,8.09474 4.79662,12.14144 0.6279,1.58806 1.2048,3.19554 1.79873,4.79661 0.41148,1.10923 0.8476,2.20937 1.31158,3.29768 0.0902,0.21162 0.18339,0.43378 0.1634,0.66296 -0.01,0.11459 -0.05,0.22838 -0.12468,0.31584 -0.0747,0.0875 -0.18599,0.1461 -0.30101,0.1454 -0.0605,-3.7e-4 -0.12039,-0.0167 -0.17449,-0.0438 -0.0541,-0.0271 -0.10254,-0.0647 -0.14503,-0.10775 -0.085,-0.0861 -0.14567,-0.19272 -0.20511,-0.29811 -1.55199,-2.75146 -2.87194,-5.62701 -4.08462,-8.54397 -0.90296,-2.17198 -1.80234,-4.34545 -2.69813,-6.5204 -1.82681,-4.43545 -3.63874,-8.8772 -5.39619,-13.34059 -1.53837,-3.90701 -3.03493,-7.830437 -4.49683,-11.7667 -1.52152,-4.096799 -3.00549,-8.207507 -4.45935,-12.328802 -1.736,-4.921097 -3.42907,-9.857271 -5.0964,-14.802057 -1.7935,-5.318958 -3.55732,-10.648147 -5.2463,-16.001211 -1.48758,-4.714738 -2.91707,-9.447921 -4.27199,-14.202481 -0.57558,-2.019795 -1.1377,-4.043428 -1.68631,-6.070717"
       id="path45256"
       inkscape:path-effect="#path-effect45258"
       inkscape:original-d="m 245.15205,30.184134 4.27199,13.790272 3.41009,11.129648 3.74736,12.066487 4.15956,12.328803 4.57177,12.628591 6.03325,15.663945 2.02357,5.13388 4.79662,12.14144 c 0,0 1.25105,3.17923 1.79873,4.79661 0.41444,1.2239 1.09663,2.02352 1.31158,3.29768 0.052,0.30817 -0.0113,0.93805 -0.26229,1.1242 -0.24434,0.18117 -0.37449,-0.18513 -0.52463,-0.44968 -1.549,-2.72925 -4.08462,-8.54397 -4.08462,-8.54397 l -2.69813,-6.5204 -5.39619,-13.34059 -4.49683,-11.7667 -4.45935,-12.328802 -5.0964,-14.802057 -5.2463,-16.001211 -4.27199,-14.202481 -1.68631,-6.070717"
       inkscape:connector-curvature="0"
       transform="matrix(0.8,0,0,-0.8,0,318)"
       sodipodi:nodetypes="cssssccccscccccccccccc" /><path
       style="fill:none;stroke:#000000;stroke-width:1px;stroke-linecap:butt;stroke-linejoin:miter;stroke-opacity:1"
       d="m 436.04238,353.50604 c -0.12984,-0.65395 -0.27983,-1.30391 -0.44968,-1.94863 -0.224,-0.85026 -0.48511,-1.69768 -0.89937,-2.47325 -0.47973,-0.89814 -1.15357,-1.67842 -1.87368,-2.39831 -0.97806,-0.97776 -2.0497,-1.85736 -3.14778,-2.6981 -2.83479,-2.17045 -5.86723,-4.06734 -8.9187,-5.92082 -3.4678,-2.10636 -6.94037,-4.20489 -10.41765,-6.29556 -4.2603,-2.56145 -8.52968,-5.11237 -12.66607,-7.86945 -2.92429,-1.94916 -5.77961,-3.99972 -8.61892,-6.07072 -4.16609,-3.03876 -8.2996,-6.12287 -12.36627,-9.29344 -3.2496,-2.53354 -6.4566,-5.12238 -9.59324,-7.7945 -3.48771,-2.97121 -6.88802,-6.04509 -10.19281,-9.2185 -3.35139,-3.21816 -6.60381,-6.5379 -9.81807,-9.89302 -3.59615,-3.75374 -7.14602,-7.55333 -10.56754,-11.46691 -2.92867,-3.34985 -5.76192,-6.78163 -8.61892,-10.19281 -1.60611,-1.91765 -3.21993,-3.82903 -4.79662,-5.77093 -4.36955,-5.38166 -8.45016,-10.99311 -12.36627,-16.7132 -1.54615,-2.25839 -3.06694,-4.53407 -4.57178,-6.82019 -4.80684,-7.30244 -9.45167,-14.71265 -13.86522,-22.2593 -3.62413,-6.19682 -7.09239,-12.48587 -10.3427,-18.88668 -2.08933,-4.11449 -4.08815,-8.27424 -6.07072,-12.44122 -3.77987,-7.94457 -7.50186,-15.91799 -11.01723,-23.98308 -3.67616,-8.43398 -7.12532,-16.96588 -10.41765,-25.55697 -3.21569,-8.39112 -6.28203,-16.83927 -9.21849,-25.33213 -3.29163,-9.520071 -6.42001,-19.0961 -9.44334,-28.704746 -2.23437,-7.101202 -4.41144,-14.22048 -6.5204,-21.359931 -2.17084,-7.348951 -4.2695,-14.719226 -6.29556,-22.109403"
       id="path45260"
       inkscape:path-effect="#path-effect45262"
       inkscape:original-d="m 436.04238,353.50604 c 0,0 -0.26048,-1.30943 -0.44968,-1.94863 -0.24898,-0.84116 -0.4742,-1.70594 -0.89937,-2.47325 -0.49169,-0.88736 -1.17281,-1.66486 -1.87368,-2.39831 -0.95475,-0.99913 -2.04541,-1.86468 -3.14778,-2.6981 -2.84645,-2.15198 -8.9187,-5.92082 -8.9187,-5.92082 l -10.41765,-6.29556 -12.66607,-7.86945 -8.61892,-6.07072 -12.36627,-9.29344 -9.59324,-7.7945 -10.19281,-9.2185 -9.81807,-9.89302 -10.56754,-11.46691 -8.61892,-10.19281 -4.79662,-5.77093 -12.36627,-16.7132 -4.57178,-6.82019 -13.86522,-22.2593 -10.3427,-18.88668 -6.07072,-12.44122 -11.01723,-23.98308 -10.41765,-25.55697 -9.21849,-25.33213 -9.44334,-28.704746 -6.5204,-21.359931 -6.29556,-22.109403"
       inkscape:connector-curvature="0"
       transform="matrix(0.8,0,0,-0.8,0,318)"
       sodipodi:nodetypes="csssscccccccccccccccccccccc" /><path
       style="fill:none;stroke:#000000;stroke-width:1px;stroke-linecap:butt;stroke-linejoin:miter;stroke-opacity:1"
       d="m 481.88918,333.11032 c -1.96674,-0.5811 -3.92771,-1.18176 -5.88251,-1.80185 -3.33876,-1.05911 -6.65946,-2.17491 -9.96318,-3.33872 -4.53419,-1.59728 -9.03627,-3.28495 -13.51388,-5.03459 -4.23784,-1.65595 -8.45377,-3.36739 -12.66595,-5.08758 -5.14545,-2.10132 -10.28627,-4.21608 -15.36873,-6.46546 -5.51377,-2.44026 -10.95763,-5.03847 -16.32266,-7.79036 -6.23308,-3.25651 -12.36672,-6.70337 -18.38948,-10.33415 -5.00734,-3.01864 -9.93805,-6.1644 -14.78577,-9.43322 l -17.85953,-13.51388 c -4.08625,-3.57189 -8.09744,-7.22967 -12.03001,-10.97009 -2.16341,-2.0577 -4.30307,-4.14046 -6.41247,-6.25349 -3.71699,-3.72339 -7.3399,-7.54069 -10.8641,-11.44705 -2.5881,-3.00414 -5.11492,-6.06107 -7.57837,-9.16824 -3.08633,-3.89281 -6.07277,-7.86397 -9.00926,-11.87102 -3.04488,-4.15496 -6.03745,-8.35052 -8.85027,-12.66596 -2.62077,-4.02079 -5.08319,-8.14207 -7.57837,-12.24199 -1.6727,-2.74847 -3.36056,-5.48806 -4.98159,-8.26731 -1.88461,-3.23116 -3.67806,-6.51452 -5.45855,-9.80419 -3.49786,-6.46272 -6.94858,-12.95529 -10.06916,-19.60838 -1.94385,-4.14429 -3.75825,-8.34802 -5.67054,-12.50697 -1.5025,-3.26772 -3.06555,-6.50805 -4.50462,-9.80419 -1.39141,-3.18697 -2.66577,-6.42347 -3.97468,-9.6452 -2.18556,-5.37949 -4.46813,-10.71939 -6.62445,-16.11067 -3.21306,-8.03338 -6.14444,-16.177506 -8.90326,-24.377986 -2.23737,-6.650481 -4.36146,-13.338478 -6.46547,-20.032345 -1.74239,-5.543371 -3.47109,-11.091036 -5.19357,-16.640625 -1.95115,-6.286344 -3.89433,-12.575164 -5.82952,-18.866441"
       id="path45264"
       inkscape:path-effect="#path-effect45266"
       inkscape:original-d="m 481.88918,333.11032 -5.88251,-1.80185 -9.96318,-3.33872 -13.51388,-5.03459 -12.66595,-5.08758 -15.36873,-6.46546 -16.32266,-7.79036 -18.38948,-10.33415 -14.78577,-9.43322 -17.85953,-13.51388 -12.03001,-10.97009 -6.41247,-6.25349 -10.8641,-11.44705 -7.57837,-9.16824 -9.00926,-11.87102 -8.85027,-12.66596 -7.57837,-12.24199 -4.98159,-8.26731 -5.45855,-9.80419 -10.06916,-19.60838 -5.67054,-12.50697 -4.50462,-9.80419 -3.97468,-9.6452 -6.62445,-16.11067 -8.90326,-24.377986 -6.46547,-20.032345 -5.19357,-16.640625 -5.82952,-18.866441"
       inkscape:connector-curvature="0"
       transform="matrix(0.8,0,0,-0.8,0,318)" /><path
       style="fill:none;stroke:#000000;stroke-width:1px;stroke-linecap:butt;stroke-linejoin:miter;stroke-opacity:1"
       d="m 344.38204,353.2812 c -0.2254,-1.13374 -0.57807,-2.24214 -1.04926,-3.29768 -0.73767,-1.65251 -1.76531,-3.1718 -2.99788,-4.49683 -2.57103,-2.7639 -5.94871,-4.62063 -9.29344,-6.3705 -5.3857,-2.81765 -10.8497,-5.48313 -16.33848,-8.09429 -7.00472,-3.33234 -14.14923,-6.35907 -21.35993,-9.2185 -6.29747,-2.49729 -12.54474,-5.12114 -18.73678,-7.86945 -5.32358,-2.36285 -10.60587,-4.81746 -15.88879,-7.26987 -6.66972,-3.09618 -13.34173,-6.18944 -19.93594,-9.44333 -6.47405,-3.1946 -12.87196,-6.54351 -19.18646,-10.04292 -5.09971,-3.06129 -10.14713,-6.20968 -15.13932,-9.44334 -3.62895,-2.35063 -7.22878,-4.74636 -10.79239,-7.19492 -5.35493,-3.67937 -10.62795,-7.47794 -15.81384,-11.39196 -5.22947,-4.21741 -10.35301,-8.56618 -15.36416,-13.0408 -5.16824,-4.6149 -10.21694,-9.36367 -15.13932,-14.23996 -4.27761,-4.39734 -8.45122,-8.89584 -12.51617,-13.49048 -4.02959,-4.55467 -7.95237,-9.20377 -11.7667,-13.94017 -3.03734,-3.77158 -6.00583,-7.5984 -8.91871,-11.46691 -3.94518,-5.23948 -7.78989,-10.55765 -11.39196,-16.03868 -1.56551,-2.38213 -3.084722,-4.7943 -4.60462,-7.20579 -3.066332,-4.86508 -6.136435,-9.72893 -9.062251,-14.67979 -4.485082,-7.58934 -8.627009,-15.37621 -12.665953,-23.21208 -2.457708,-4.76815 -4.877941,-9.55562 -7.2604,-14.36181"
       id="path45268"
       inkscape:path-effect="#path-effect45270"
       inkscape:original-d="m 344.38204,353.2812 c 0,0 -0.54957,-2.258 -1.04926,-3.29768 -0.78039,-1.6237 -1.73228,-3.21477 -2.99788,-4.49683 -2.63852,-2.67281 -6.05379,-4.4704 -9.29344,-6.3705 -5.24266,-3.07489 -10.82333,-5.54018 -16.33848,-8.09429 -7.0368,-3.2588 -21.35993,-9.2185 -21.35993,-9.2185 l -18.73678,-7.86945 -15.88879,-7.26987 -19.93594,-9.44333 -19.18646,-10.04292 -15.13932,-9.44334 -10.79239,-7.19492 -15.81384,-11.39196 -15.36416,-13.0408 -15.13932,-14.23996 -12.51617,-13.49048 -11.7667,-13.94017 -8.91871,-11.46691 -11.39196,-16.03868 -4.60462,-7.20579 -9.062251,-14.67979 -12.665953,-23.21208 -7.2604,-14.36181"
       inkscape:connector-curvature="0"
       transform="matrix(0.8,0,0,-0.8,0,318)"
       sodipodi:nodetypes="csssscccccccccccccccccc" /><path
       style="fill:none;stroke:#000000;stroke-width:1px;stroke-linecap:butt;stroke-linejoin:miter;stroke-opacity:1"
       d="m 69.424264,39.408588 c 2.262732,6.533755 4.845984,12.956498 7.73736,19.23741 2.256567,4.901921 4.699653,9.715377 7.048418,14.573796 3.366893,6.964417 6.540564,14.022465 10.016172,20.93327 3.150482,6.264336 6.546336,12.402226 10.016176,18.495476 3.38987,5.95282 6.8516,11.86532 10.44013,17.70053 4.85977,7.90233 9.9536,15.66484 15.42173,23.15909 4.39805,6.02767 9.03582,11.87847 13.83186,17.59455 3.81457,4.54633 7.72955,9.0079 11.71203,13.40789 4.80522,5.30899 9.71503,10.53466 14.99776,15.36873 3.05926,2.79944 6.23927,5.46359 9.43322,8.10833 4.86772,4.03071 9.77578,8.02272 14.94477,11.65904 3.25098,2.28702 6.60162,4.43073 10.01617,6.46546 2.80667,1.6725 5.65672,3.27155 8.53229,4.8226 1.78033,0.96029 3.57145,1.90269 5.40556,2.75577 2.60932,1.21365 5.29983,2.24383 8.00234,3.23274 2.41578,0.88399 4.8514,1.73822 7.36639,2.27881 2.2447,0.48249 4.54066,0.71178 6.83643,0.74194 2.21948,0.0292 4.49794,-0.14098 6.51846,-1.05991 1.07761,-0.4901 2.06908,-1.19555 2.80877,-2.11983 0.59491,-0.74337 1.01549,-1.61034 1.37789,-2.49079 0.38778,-0.9421 0.71583,-1.91293 0.90092,-2.91476 0.219,-1.18536 0.23532,-2.3985 0.21198,-3.6037 -0.0285,-1.47064 -0.11521,-2.94177 -0.31797,-4.39864 -0.15335,-1.10187 -0.37272,-2.19329 -0.58295,-3.28573 -0.57555,-2.99072 -1.08401,-5.99647 -1.80185,-8.95626 -0.83537,-3.44436 -1.95111,-6.81345 -3.07375,-10.17516 -2.39584,-7.1743 -4.82914,-14.33608 -7.2074,-21.51622 -2.04456,-6.17268 -4.04859,-12.35938 -6.20049,-18.49547 -2.16511,-6.17375 -4.48043,-12.29786 -6.41247,-18.54847 -1.54958,-5.01326 -2.99537,-10.05827 -4.61062,-15.05076 -1.54446,-4.77367 -3.04608,-9.5612 -4.50463,-14.36181 -2.07676,-6.83537 -4.06609,-13.696957 -6.0415,-20.562301 -2.29557,-7.978049 -4.57279,-15.962788 -6.62445,-24.007016 -1.74605,-6.845982 -3.32836,-13.733537 -5.14058,-20.562301 -1.18483,-4.464638 -2.46812,-8.90492 -3.49771,-13.407893 -0.3259,-1.42535 -0.62627,-2.856538 -0.90092,-4.292645"
       id="path45272"
       inkscape:path-effect="#path-effect45274"
       inkscape:original-d="m 69.424264,39.408588 c 0,0 4.941539,12.916412 7.73736,19.23741 2.182813,4.935064 4.709119,9.710957 7.048418,14.573796 3.353323,6.970753 6.503908,14.041234 10.016172,20.93327 3.183426,6.246766 6.565286,12.392396 10.016176,18.495476 3.37158,5.96282 6.8004,11.8975 10.44013,17.70053 4.92804,7.85708 9.98121,15.64776 15.42173,23.15909 4.37614,6.04182 9.07103,11.85096 13.83186,17.59455 3.78706,4.56881 7.68619,9.04802 11.71203,13.40789 4.85599,5.2589 9.77899,10.46963 14.99776,15.36873 3.02305,2.83787 6.22552,5.48099 9.43322,8.10833 4.8879,4.00355 9.79466,7.99894 14.94477,11.65904 3.23919,2.30204 6.61558,4.40931 10.01617,6.46546 2.79565,1.69038 5.6543,3.27657 8.53229,4.8226 1.78169,0.95711 3.56524,1.91689 5.40556,2.75577 2.61775,1.19325 5.29204,2.26799 8.00234,3.23274 2.42144,0.86193 4.84945,1.75795 7.36639,2.27881 2.24463,0.4645 4.54505,0.80277 6.83643,0.74194 2.20058,-0.0584 4.49419,-0.19486 6.51846,-1.05991 1.07862,-0.46094 2.03993,-1.23396 2.80877,-2.11983 0.62192,-0.71659 1.00618,-1.61779 1.37789,-2.49079 0.39839,-0.93566 0.74906,-1.90922 0.90092,-2.91476 0.16355,-1.08296 0.22428,-2.50853 0.21198,-3.6037 -0.0177,-1.5725 -0.16248,-2.83374 -0.31797,-4.39864 -0.10998,-1.1069 -0.37608,-2.19279 -0.58295,-3.28573 -0.56633,-2.99211 -1.0604,-6.00266 -1.80185,-8.95626 -0.86267,-3.43647 -1.99864,-6.79911 -3.07375,-10.17516 -2.29512,-7.20714 -4.80407,-14.34444 -7.2074,-21.51622 -2.06609,-6.16541 -4.10476,-12.34008 -6.20049,-18.49547 -2.10846,-6.19278 -4.38534,-12.32859 -6.41247,-18.54847 -1.6259,-4.98878 -4.61062,-15.05076 -4.61062,-15.05076 l -4.50463,-14.36181 -6.0415,-20.562301 -6.62445,-24.007016 -5.14058,-20.562301 -3.49771,-13.407893 -0.90092,-4.292645"
       inkscape:connector-curvature="0"
       transform="matrix(0.8,0,0,-0.8,0,318)"
       sodipodi:nodetypes="csssssssssssssssssssssssssssssccccccc" /><path
       style="fill:none;stroke:#000000;stroke-width:1px;stroke-linecap:butt;stroke-linejoin:miter;stroke-opacity:1"
       d="m 200.32345,30.028363 3.92167,15.315734 c 1.08353,4.231624 2.34086,8.415705 3.55071,12.612958 1.08012,3.747181 2.03015,7.530554 3.07375,11.288068 1.63016,5.869404 3.48777,11.672653 5.29956,17.488555 2.89468,9.291999 5.75275,18.596342 8.85027,27.822702 2.26704,6.75265 4.59899,13.48351 6.99542,20.19133 2.71019,7.58603 5.50316,15.14343 8.4793,22.62913 2.33801,5.88066 4.78858,11.71587 7.2604,17.54155 3.6397,8.57819 7.32642,17.13786 11.23507,25.59689 1.69037,3.65826 3.42211,7.2974 5.19357,10.91709 2.85114,5.82583 5.80492,11.60074 8.74428,17.38257 2.23405,4.39446 4.45988,8.79311 6.67745,13.19591 1.08087,2.14597 2.14412,4.30277 3.07374,6.51846 0.43284,1.03164 0.83892,2.07449 1.2189,3.12674 0.61688,1.70826 1.16497,3.44135 1.64287,5.19357 0.24816,0.90988 0.47764,1.82604 0.63594,2.75577 0.15787,0.9272 0.24462,1.86879 0.21199,2.80877 -0.0267,0.76789 -0.1331,1.53303 -0.31798,2.27881 -0.18385,0.74164 -0.44764,1.46899 -0.84793,2.11983 -0.52187,0.84854 -1.26835,1.54975 -2.11982,2.06683 -1.09094,0.66251 -2.34224,1.02453 -3.6037,1.2189 -1.74995,0.26963 -3.53323,0.22869 -5.29957,0.10599 -2.65102,-0.18415 -5.28814,-0.55091 -7.89634,-1.05991 -3.98501,-0.7777 -7.899,-1.88623 -11.76503,-3.12675 -3.97004,-1.27389 -7.89498,-2.68829 -11.76503,-4.23965 l -17.06459,-8.4793 c -4.95253,-2.46088 -9.89818,-4.96674 -14.5208,-8.00233 -2.29009,-1.50386 -4.49839,-3.12788 -6.73044,-4.71661 -4.97588,-3.54175 -10.07551,-6.91218 -14.94477,-10.59913 -4.89925,-3.70966 -9.55464,-7.73184 -14.09683,-11.87102 -4.4516,-4.05662 -8.79807,-8.22853 -13.03693,-12.50696 -2.36539,-2.38747 -4.69729,-4.80812 -6.99542,-7.2604 -3.90291,-4.1647 -7.70936,-8.42174 -11.34106,-12.82494 -2.50326,-3.03504 -4.92245,-6.13822 -7.36639,-9.22124 -2.50255,-3.15695 -5.03215,-6.29419 -7.41939,-9.53921 -2.09095,-2.84227 -4.07064,-5.76446 -6.0415,-8.69129 -2.98292,-4.42979 -5.94715,-8.8724 -8.85027,-13.35489 -1.99319,-3.07753 -3.95785,-6.17431 -5.82952,-9.32723 -1.97869,-3.33321 -3.85241,-6.72741 -5.72352,-10.12217 -2.24037,-4.06472 -4.477537,-8.13121 -6.730449,-12.18899 -2.74724,-4.94812 -5.518963,-9.88531 -8.055334,-14.944764 -2.716721,-5.419209 -5.159335,-10.970502 -7.684365,-16.481638 -1.975498,-4.311726 -4.002065,-8.600186 -5.93551,-12.930932 -1.775027,-3.975904 -3.47133,-7.986954 -5.08758,-12.030006"
       id="path45276"
       inkscape:path-effect="#path-effect45278"
       inkscape:original-d="m 200.32345,30.028363 3.92167,15.315734 c 0,0 2.38514,8.403614 3.55071,12.612958 1.04067,3.758272 1.99588,7.540296 3.07375,11.288068 1.68363,5.853997 3.49303,11.67131 5.29956,17.488555 2.88631,9.294282 8.85027,27.822702 8.85027,27.822702 l 6.99542,20.19133 8.4793,22.62913 7.2604,17.54155 11.23507,25.59689 5.19357,10.91709 8.74428,17.38257 6.67745,13.19591 c 0,0 2.12462,4.31163 3.07374,6.51846 0.44197,1.02763 0.84686,2.07178 1.2189,3.12674 0.60388,1.71238 1.16454,3.44197 1.64287,5.19357 0.24835,0.90943 0.49407,1.82377 0.63594,2.75577 0.1413,0.92823 0.24171,1.87032 0.21199,2.80877 -0.0243,0.76658 -0.12112,1.53754 -0.31798,2.27881 -0.19534,0.73555 -0.42497,1.48714 -0.84793,2.11983 -0.54847,0.82044 -1.27819,1.55146 -2.11982,2.06683 -1.08144,0.66222 -2.35456,1.00052 -3.6037,1.2189 -1.74048,0.30428 -3.53553,0.20615 -5.29957,0.10599 -2.65145,-0.15054 -5.29178,-0.54116 -7.89634,-1.05991 -3.97965,-0.79262 -7.89185,-1.91666 -11.76503,-3.12675 -3.97887,-1.24311 -11.76503,-4.23965 -11.76503,-4.23965 l -17.06459,-8.4793 c 0,0 -9.83093,-5.07853 -14.5208,-8.00233 -2.32476,-1.44932 -4.4914,-3.13809 -6.73044,-4.71661 -4.99152,-3.519 -10.11406,-6.86244 -14.94477,-10.59913 -4.85908,-3.75864 -9.52846,-7.76396 -14.09683,-11.87102 -4.47833,-4.02611 -8.7741,-8.25333 -13.03693,-12.50696 -2.37894,-2.37381 -4.71586,-4.79099 -6.99542,-7.2604 -3.87084,-4.19322 -7.66882,-8.45674 -11.34106,-12.82494 -2.53158,-3.01137 -4.93095,-6.1316 -7.36639,-9.22124 -2.49374,-3.1636 -5.03235,-6.29434 -7.41939,-9.53921 -2.09074,-2.84209 -4.05994,-5.77203 -6.0415,-8.69129 -2.99931,-4.41862 -5.95976,-8.86434 -8.85027,-13.35489 -1.98443,-3.08291 -3.95517,-6.17618 -5.82952,-9.32723 -1.98156,-3.33129 -3.83276,-6.73851 -5.72352,-10.12217 -2.264,-4.0516 -4.507608,-8.11466 -6.730449,-12.18899 -2.710351,-4.9679 -5.516023,-9.8873 -8.055334,-14.944764 -2.71992,-5.417176 -5.139261,-10.980165 -7.684365,-16.481638 -1.991314,-4.304407 -4.02238,-8.59121 -5.93551,-12.930932 -1.756274,-3.983912 -5.08758,-12.030006 -5.08758,-12.030006"
       inkscape:connector-curvature="0"
       transform="matrix(0.8,0,0,-0.8,0,318)"
       sodipodi:nodetypes="ccsssccccccccssssssssssssccsssssssssssssssssc" /></g></svg>