<?xml version="1.0" encoding="UTF-8" standalone="no"?>
<!-- Created with Inkscape (http://www.inkscape.org/) -->

<svg
   xmlns:dc="http://purl.org/dc/elements/1.1/"
   xmlns:cc="http://creativecommons.org/ns#"
   xmlns:rdf="http://www.w3.org/1999/02/22-rdf-syntax-ns#"
   xmlns:svg="http://www.w3.org/2000/svg"
   xmlns="http://www.w3.org/2000/svg"
   xmlns:sodipodi="http://sodipodi.sourceforge.net/DTD/sodipodi-0.dtd"
   xmlns:inkscape="http://www.inkscape.org/namespaces/inkscape"
   id="svg2"
   version="1.1"
   inkscape:version="0.48.4 r9939"
   width="441.25"
   height="256.25"
   xml:space="preserve"
   sodipodi:docname="norm_on_chemical_potential_processed.pdf"><metadata
     id="metadata8"><rdf:RDF><cc:Work
         rdf:about=""><dc:format>image/svg+xml</dc:format><dc:type
           rdf:resource="http://purl.org/dc/dcmitype/StillImage" /><dc:title></dc:title></cc:Work></rdf:RDF></metadata><defs
     id="defs6" /><sodipodi:namedview
     pagecolor="#ffffff"
     bordercolor="#666666"
     borderopacity="1"
     objecttolerance="10"
     gridtolerance="10"
     guidetolerance="10"
     inkscape:pageopacity="0"
     inkscape:pageshadow="2"
     inkscape:window-width="1920"
     inkscape:window-height="1025"
     id="namedview4"
     showgrid="false"
     inkscape:zoom="2.0127504"
     inkscape:cx="305.50577"
     inkscape:cy="157.06022"
     inkscape:window-x="0"
     inkscape:window-y="30"
     inkscape:window-maximized="1"
     inkscape:current-layer="g10" /><g
     id="g10"
     inkscape:groupmode="layer"
     inkscape:label="ink_ext_XXXXXX"
     transform="matrix(1.25,0,0,-1.25,0,256.25)"><path
       inkscape:connector-curvature="0"
       id="path14"
       style="fill:#ffffff;fill-opacity:1;fill-rule:nonzero;stroke:none"
       d="m 0,0 353.25,0 0,204.75 L 0,204.75 0,0 z" /><path
       inkscape:connector-curvature="0"
       id="path16"
       style="fill:#ffffff;fill-opacity:1;fill-rule:nonzero;stroke:none"
       d="m 0,0 353.25,0 0,204.75 L 0,204.75 0,0 z" /><path
       inkscape:connector-curvature="0"
       id="path18"
       style="fill:#ffffff;fill-opacity:1;fill-rule:nonzero;stroke:none"
       d="m 45.75,31.5 273.75,0 0,158.25 -273.75,0 0,-158.25 z" /><path
       inkscape:connector-curvature="0"
       id="path22"
       style="fill:none;stroke:#dfdfdf;stroke-width:0.75;stroke-linecap:square;stroke-linejoin:miter;stroke-miterlimit:10;stroke-opacity:1;stroke-dasharray:none"
       d="m 85.6664,31.5 0,158.25" /><path
       inkscape:connector-curvature="0"
       id="path24"
       style="fill:none;stroke:#dfdfdf;stroke-width:0.75;stroke-linecap:square;stroke-linejoin:miter;stroke-miterlimit:10;stroke-opacity:1;stroke-dasharray:none"
       d="m 124.454,31.5 0,158.25" /><path
       inkscape:connector-curvature="0"
       id="path26"
       style="fill:none;stroke:#dfdfdf;stroke-width:0.75;stroke-linecap:square;stroke-linejoin:miter;stroke-miterlimit:10;stroke-opacity:1;stroke-dasharray:none"
       d="m 163.243,31.5 0,158.25" /><path
       inkscape:connector-curvature="0"
       id="path28"
       style="fill:none;stroke:#dfdfdf;stroke-width:0.75;stroke-linecap:square;stroke-linejoin:miter;stroke-miterlimit:10;stroke-opacity:1;stroke-dasharray:none"
       d="m 202.031,31.5 0,158.25" /><path
       inkscape:connector-curvature="0"
       id="path30"
       style="fill:none;stroke:#dfdfdf;stroke-width:0.75;stroke-linecap:square;stroke-linejoin:miter;stroke-miterlimit:10;stroke-opacity:1;stroke-dasharray:none"
       d="m 240.82,31.5 0,158.25" /><path
       inkscape:connector-curvature="0"
       id="path32"
       style="fill:none;stroke:#dfdfdf;stroke-width:0.75;stroke-linecap:square;stroke-linejoin:miter;stroke-miterlimit:10;stroke-opacity:1;stroke-dasharray:none"
       d="m 279.608,31.5 0,158.25" /><path
       inkscape:connector-curvature="0"
       id="path34"
       style="fill:none;stroke:#dfdfdf;stroke-width:0.75;stroke-linecap:square;stroke-linejoin:miter;stroke-miterlimit:10;stroke-opacity:1;stroke-dasharray:none"
       d="m 318.396,31.5 0,158.25" /><path
       inkscape:connector-curvature="0"
       id="path36"
       style="fill:none;stroke:#dfdfdf;stroke-width:0.75;stroke-linecap:square;stroke-linejoin:miter;stroke-miterlimit:10;stroke-opacity:1;stroke-dasharray:none"
       d="m 319.5,67.4355 -273.75,0" /><path
       inkscape:connector-curvature="0"
       id="path38"
       style="fill:none;stroke:#dfdfdf;stroke-width:0.75;stroke-linecap:square;stroke-linejoin:miter;stroke-miterlimit:10;stroke-opacity:1;stroke-dasharray:none"
       d="m 319.5,105.596 -273.75,0" /><path
       inkscape:connector-curvature="0"
       id="path40"
       style="fill:none;stroke:#dfdfdf;stroke-width:0.75;stroke-linecap:square;stroke-linejoin:miter;stroke-miterlimit:10;stroke-opacity:1;stroke-dasharray:none"
       d="m 319.5,143.758 -273.75,0" /><path
       inkscape:connector-curvature="0"
       id="path42"
       style="fill:none;stroke:#dfdfdf;stroke-width:0.75;stroke-linecap:square;stroke-linejoin:miter;stroke-miterlimit:10;stroke-opacity:1;stroke-dasharray:none"
       d="m 319.5,181.918 -273.75,0" /><text
       transform="scale(1,-1)"
       id="text46"
       x="179.25"
       y="-3"><tspan
         style="font-size:11.25px;font-variant:normal;font-weight:normal;writing-mode:lr-tb;fill:#262626;fill-opacity:1;fill-rule:nonzero;stroke:none;font-family:mwb_cmmi10;-inkscape-font-specification:mwb_cmmi10"
         x="179.25"
         y="-3"
         id="tspan48">µ</tspan></text>
<path
       inkscape:connector-curvature="0"
       id="path50"
       style="fill:none;stroke:#262626;stroke-width:0.75;stroke-linecap:square;stroke-linejoin:miter;stroke-miterlimit:10;stroke-opacity:1;stroke-dasharray:none"
       d="m 45.75,31.5 273.75,0" /><path
       inkscape:connector-curvature="0"
       id="path54"
       style="fill:none;stroke:#262626;stroke-width:0.75;stroke-linecap:square;stroke-linejoin:miter;stroke-miterlimit:10;stroke-opacity:1;stroke-dasharray:none"
       d="m 85.6664,31.5 0,2.7375" /><path
       inkscape:connector-curvature="0"
       id="path56"
       style="fill:none;stroke:#262626;stroke-width:0.75;stroke-linecap:square;stroke-linejoin:miter;stroke-miterlimit:10;stroke-opacity:1;stroke-dasharray:none"
       d="m 124.454,31.5 0,2.7375" /><path
       inkscape:connector-curvature="0"
       id="path58"
       style="fill:none;stroke:#262626;stroke-width:0.75;stroke-linecap:square;stroke-linejoin:miter;stroke-miterlimit:10;stroke-opacity:1;stroke-dasharray:none"
       d="m 163.243,31.5 0,2.7375" /><path
       inkscape:connector-curvature="0"
       id="path60"
       style="fill:none;stroke:#262626;stroke-width:0.75;stroke-linecap:square;stroke-linejoin:miter;stroke-miterlimit:10;stroke-opacity:1;stroke-dasharray:none"
       d="m 202.031,31.5 0,2.7375" /><path
       inkscape:connector-curvature="0"
       id="path62"
       style="fill:none;stroke:#262626;stroke-width:0.75;stroke-linecap:square;stroke-linejoin:miter;stroke-miterlimit:10;stroke-opacity:1;stroke-dasharray:none"
       d="m 240.82,31.5 0,2.7375" /><path
       inkscape:connector-curvature="0"
       id="path64"
       style="fill:none;stroke:#262626;stroke-width:0.75;stroke-linecap:square;stroke-linejoin:miter;stroke-miterlimit:10;stroke-opacity:1;stroke-dasharray:none"
       d="m 279.608,31.5 0,2.7375" /><path
       inkscape:connector-curvature="0"
       id="path66"
       style="fill:none;stroke:#262626;stroke-width:0.75;stroke-linecap:square;stroke-linejoin:miter;stroke-miterlimit:10;stroke-opacity:1;stroke-dasharray:none"
       d="m 318.396,31.5 0,2.7375" /><text
       transform="scale(1,-1)"
       id="text70"
       x="42.003101"
       y="-17.75"><tspan
         style="font-size:9.75px;font-variant:normal;font-weight:normal;writing-mode:lr-tb;fill:#262626;fill-opacity:1;fill-rule:nonzero;stroke:none;font-family:Helvetica;-inkscape-font-specification:Helvetica"
         x="42.003101 45.249851 80.791428 84.038177 121.07969 159.86803 198.65634 237.44467 276.233 315.02173"
         y="-17.75"
         sodipodi:role="line"
         id="tspan72">-2-1012345</tspan></text>
<text
       transform="matrix(0,1,1,0,0,0)"
       id="text74"
       x="106.125"
       y="29"><tspan
         style="font-size:11.25px;font-variant:normal;font-weight:normal;writing-mode:lr-tb;fill:#262626;fill-opacity:1;fill-rule:nonzero;stroke:none;font-family:Helvetica;-inkscape-font-specification:Helvetica"
         x="106.125"
         y="29"
         id="tspan76">N</tspan></text>
<path
       inkscape:connector-curvature="0"
       id="path78"
       style="fill:none;stroke:#262626;stroke-width:0.75;stroke-linecap:square;stroke-linejoin:miter;stroke-miterlimit:10;stroke-opacity:1;stroke-dasharray:none"
       d="m 45.75,31.5 0,158.25" /><path
       inkscape:connector-curvature="0"
       id="path80"
       style="fill:none;stroke:#262626;stroke-width:0.75;stroke-linecap:square;stroke-linejoin:miter;stroke-miterlimit:10;stroke-opacity:1;stroke-dasharray:none"
       d="m 45.75,67.4355 2.7375,0" /><path
       inkscape:connector-curvature="0"
       id="path82"
       style="fill:none;stroke:#262626;stroke-width:0.75;stroke-linecap:square;stroke-linejoin:miter;stroke-miterlimit:10;stroke-opacity:1;stroke-dasharray:none"
       d="m 45.75,105.596 2.7375,0" /><path
       inkscape:connector-curvature="0"
       id="path84"
       style="fill:none;stroke:#262626;stroke-width:0.75;stroke-linecap:square;stroke-linejoin:miter;stroke-miterlimit:10;stroke-opacity:1;stroke-dasharray:none"
       d="m 45.75,143.758 2.7375,0" /><path
       inkscape:connector-curvature="0"
       id="path86"
       style="fill:none;stroke:#262626;stroke-width:0.75;stroke-linecap:square;stroke-linejoin:miter;stroke-miterlimit:10;stroke-opacity:1;stroke-dasharray:none"
       d="m 45.75,181.918 2.7375,0" /><text
       transform="scale(1,-1)"
       id="text90"
       x="35"
       y="-64.060501"><tspan
         style="font-size:9.75px;font-variant:normal;font-weight:normal;writing-mode:lr-tb;fill:#262626;fill-opacity:1;fill-rule:nonzero;stroke:none;font-family:Helvetica;-inkscape-font-specification:Helvetica"
         x="35"
         y="-64.060501"
         id="tspan92">2</tspan><tspan
         style="font-size:9.75px;font-variant:normal;font-weight:normal;writing-mode:lr-tb;fill:#262626;fill-opacity:1;fill-rule:nonzero;stroke:none;font-family:Helvetica;-inkscape-font-specification:Helvetica"
         x="35"
         y="-102.2214"
         id="tspan94">4</tspan><tspan
         style="font-size:9.75px;font-variant:normal;font-weight:normal;writing-mode:lr-tb;fill:#262626;fill-opacity:1;fill-rule:nonzero;stroke:none;font-family:Helvetica;-inkscape-font-specification:Helvetica"
         x="35"
         y="-140.38229"
         id="tspan96">6</tspan><tspan
         style="font-size:9.75px;font-variant:normal;font-weight:normal;writing-mode:lr-tb;fill:#262626;fill-opacity:1;fill-rule:nonzero;stroke:none;font-family:Helvetica;-inkscape-font-specification:Helvetica"
         x="35"
         y="-178.5432"
         id="tspan98">8</tspan></text>
<path
       inkscape:connector-curvature="0"
       id="path100"
       style="fill:none;stroke:#000000;stroke-width:2.0002501;stroke-linecap:butt;stroke-linejoin:bevel;stroke-miterlimit:10;stroke-opacity:1;stroke-dasharray:none"
       d="m 161.303,31.6539 -0.387,0.4723 -0.388,0.4726 -0.388,0.4703 -0.388,0.47 -0.388,0.4687 -0.388,0.4684 -0.388,0.4664 -0.388,0.4664 -0.387,0.4648 -0.388,0.4637 -0.389,0.4629 -0.387,0.4617 -0.388,0.4613 -0.388,0.4606 -0.387,0.459 -0.388,0.4574 -0.389,0.4578 -0.388,0.4559 -0.387,0.455 -0.388,0.4547 -0.388,0.4532 -0.388,0.4519 -0.388,0.4516 -0.388,0.45 -0.387,0.45 -0.388,0.4484 -0.388,0.4473 -0.388,0.4468 -0.388,0.4454 -0.388,0.4449 -0.388,0.4433 -0.388,0.4422 -0.387,0.4418 -0.389,0.441 -0.388,0.4403 -0.387,0.439 -0.388,0.4379 -0.388,0.4371 -0.388,0.436 -0.388,0.4347 -0.388,0.4344 -0.387,0.4336 -0.388,0.4328 -0.388,0.4313 -0.389,0.4304 -0.387,0.4289 -0.388,0.429 -0.388,0.4277 -0.387,0.4266" /><path
       inkscape:connector-curvature="0"
       id="path102"
       style="fill:none;stroke:#000000;stroke-width:2.0002501;stroke-linecap:butt;stroke-linejoin:bevel;stroke-miterlimit:10;stroke-opacity:1;stroke-dasharray:none"
       d="m 142.298,53.6813 -0.389,0.4261 -0.388,0.425 -0.387,0.4239 -0.388,0.423 -0.388,0.4223 -0.388,0.4214 -0.388,0.42 -0.388,0.4191 -0.388,0.4188 -0.388,0.4175 -0.387,0.4172 -0.388,0.4153 -0.388,0.4148 -0.388,0.4141 -0.388,0.4132 -0.388,0.4125 -0.387,0.411 -0.389,0.4101 -0.388,0.4098 -0.388,0.4086 -0.387,0.4082 -0.388,0.4063 -0.388,0.4066 -0.388,0.4051 -0.388,0.4039 -0.388,0.4027 -0.387,0.4031 -0.388,0.4012 -0.388,0.4012 -0.388,0.3996 -0.388,0.3984 -0.388,0.3981 -0.388,0.3976 -0.388,0.3961 -0.388,0.3957 -0.388,0.3946 -0.388,0.3937 -0.387,0.3926 -0.388,0.3922 -0.388,0.3914 -0.388,0.3898 -0.388,0.3895 -0.388,0.389 -0.388,0.3879 -0.387,0.3871 -0.389,0.3856 -0.388,0.3851 -0.387,0.3848 -0.388,0.3836" /><path
       inkscape:connector-curvature="0"
       id="path104"
       style="fill:none;stroke:#000000;stroke-width:2.0002501;stroke-linecap:butt;stroke-linejoin:bevel;stroke-miterlimit:10;stroke-opacity:1;stroke-dasharray:none"
       d="m 123.291,73.4957 -0.388,0.3824 -0.387,0.3817 -0.389,0.3816 -0.388,0.3805 -0.387,0.3785 -0.388,0.3789 -0.388,0.3781 -0.388,0.3762 -0.388,0.3766 -0.388,0.375 -0.388,0.375 -0.388,0.3734 -0.387,0.373 -0.389,0.3719 -0.387,0.3711 -0.388,0.3707 -0.388,0.3695 -0.388,0.3692 -0.388,0.3683 -0.388,0.3668 -0.388,0.3668 -0.388,0.3653 -0.387,0.3652 -0.388,0.3637 -0.388,0.3637 -0.388,0.3621 -0.388,0.3617 -0.388,0.3613 -0.387,0.3602 -0.388,0.3593 -0.389,0.3582 -0.387,0.3586 -0.388,0.3571 -0.388,0.3562 -0.388,0.3555 -0.388,0.3547 -0.388,0.3539 -0.388,0.3535 -0.387,0.3523 -0.388,0.352 -0.388,0.3508 -0.388,0.3504 -0.388,0.3496 -0.388,0.3484 -0.388,0.3481 -0.388,0.3472 -0.387,0.3465 -0.389,0.3457 -0.388,0.3461" /><path
       inkscape:connector-curvature="0"
       id="path106"
       style="fill:none;stroke:#000000;stroke-width:2.0002501;stroke-linecap:butt;stroke-linejoin:bevel;stroke-miterlimit:10;stroke-opacity:1;stroke-dasharray:none"
       d="m 104.284,91.3082 -0.387,0.3441 -0.388,0.3434 -0.388,0.343 -0.387,0.3418 -0.389,0.3414 -0.388,0.341 -0.387,0.3398 -0.388,0.3391 -0.388,0.3391 -0.389,0.3375 -0.387,0.3375 -0.3879,0.3359 -0.3879,0.3359 -0.3875,0.3352 -0.3879,0.334 -0.3887,0.3336 -0.3875,0.3332 -0.3879,0.332 -0.3879,0.3316 -0.3875,0.3309 -0.3878,0.3297 -0.3883,0.3301 -0.3879,0.3285 -0.3879,0.3277 -0.3875,0.3278 -0.3879,0.326 -0.3887,0.327 -0.3875,0.325 -0.3879,0.325 -0.3875,0.324 -0.3879,0.323 -0.3878,0.323 -0.3883,0.322 -0.3879,0.321 -0.3879,0.321 -0.3875,0.32 -0.3879,0.319 -0.3879,0.319 -0.3883,0.318 -0.3879,0.317 -0.3875,0.317 -0.3878,0.316 -0.3879,0.316 -0.3883,0.315 -0.3879,0.314 -0.3875,0.313 -0.3879,0.313 -0.3879,0.312 -0.3875,0.312" /><path
       inkscape:connector-curvature="0"
       id="path108"
       style="fill:none;stroke:#000000;stroke-width:2.0002501;stroke-linecap:butt;stroke-linejoin:bevel;stroke-miterlimit:10;stroke-opacity:1;stroke-dasharray:none"
       d="m 85.2789,107.36 -0.3887,0.311 -0.3879,0.31 -0.3875,0.31 -0.3878,0.309 -0.3879,0.309 -0.3883,0.307 -0.3879,0.308 -0.3875,0.307 -0.3879,0.306 -0.3879,0.305 -0.3875,0.305 -0.3887,0.304 -0.3875,0.304 -0.3879,0.303 -0.3878,0.302 -0.3875,0.302 -0.3879,0.301 -0.3887,0.301 -0.3875,0.3 -0.3879,0.299 -0.3879,0.299 -0.3875,0.299 -0.3887,0.297 -0.3875,0.297 -0.3878,0.297 -0.3879,0.295 -0.3875,0.296 -0.3879,0.295 -0.3883,0.294 -0.3879,0.293 -0.3879,0.294 -0.3875,0.292 -0.3879,0.292 -0.3887,0.291 -0.3875,0.291 -0.3878,0.29 -0.3879,0.29 -0.3875,0.289 -0.3879,0.288 -0.3883,0.288 -0.3879,0.288 -0.3879,0.287 -0.3875,0.286 -0.3879,0.286 -0.3879,0.285 -0.3883,0.285 -0.3878,0.284 -0.3875,0.284 -0.3879,0.283" /><path
       inkscape:connector-curvature="0"
       id="path110"
       style="fill:none;stroke:#000000;stroke-width:2.0002501;stroke-linecap:butt;stroke-linejoin:bevel;stroke-miterlimit:10;stroke-opacity:1;stroke-dasharray:none"
       d="m 66.2723,121.898 -0.3879,0.282 -0.3883,0.283 -0.3879,0.281 -0.3879,0.281 -0.3875,0.28 -0.3879,0.281 -0.3875,0.279 -0.3886,0.279 -0.3879,0.278 -0.3875,0.278 -0.3879,0.277 -0.3879,0.278 -0.3875,0.275 -0.3887,0.277 -0.3875,0.275 -0.3879,0.274 -0.3879,0.275 -0.3875,0.274 -0.3886,0.272 -0.3879,0.273 -0.3875,0.273 -0.3879,0.271 -0.3875,0.272 -0.3879,0.27 -0.3887,0.271 -0.3875,0.27 -0.3879,0.269 -0.3879,0.269 -0.3875,0.268 -0.3886,0.268 -0.3875,0.267 -0.3879,0.267 -0.3879,0.267 -0.3875,0.266 -0.3879,0.265 -0.3887,0.265 -0.3875,0.265 -0.3879,0.264 -0.3875,0.263 -0.3879,0.263 -0.3879,0.263 -0.3882,0.262 -0.3879,0.262 -0.3879,0.261 -0.3875,0.261 -0.3879,0.26 -0.3883,0.26 -0.3879,0.259 -0.3879,0.26" /><path
       inkscape:connector-curvature="0"
       id="path112"
       style="fill:none;stroke:#000000;stroke-width:2.0002501;stroke-linecap:butt;stroke-linejoin:bevel;stroke-miterlimit:10;stroke-opacity:1;stroke-dasharray:none"
       d="m 47.2656,135.151 -0.3875,0.258" /><path
       inkscape:connector-curvature="0"
       id="path114"
       style="fill:none;stroke:#000000;stroke-width:0.99975002;stroke-linecap:butt;stroke-linejoin:bevel;stroke-miterlimit:10;stroke-opacity:1;stroke-dasharray:7.5, 4.5;stroke-dashoffset:0"
       d="m 161.303,31.6371 -0.387,0.466 -0.388,0.4641 -0.388,0.4613 -0.388,0.4598 -0.388,0.4574 -0.388,0.4555 -0.388,0.4527 -0.388,0.4508 -0.387,0.4484 -0.388,0.4473 -0.389,0.4437 -0.387,0.4426 -0.388,0.4403 -0.388,0.4378 -0.387,0.436 -0.388,0.4336 -0.389,0.4312 -0.388,0.4297 -0.387,0.4274 -0.388,0.4253 -0.388,0.4231 -0.388,0.4207 -0.388,0.4184 -0.388,0.4171 -0.387,0.4141 -0.388,0.4125 -0.388,0.4102 -0.388,0.4078 -0.388,0.4058 -0.388,0.4043 -0.388,0.4012 -0.388,0.3996 -0.387,0.3977 -0.389,0.3953 -0.388,0.393 -0.387,0.3906 -0.388,0.3894 -0.388,0.3864 -0.388,0.3847 -0.388,0.3824 -0.388,0.3801 -0.387,0.3781 -0.388,0.3766 -0.388,0.3734 -0.389,0.3719 -0.387,0.3699 -0.388,0.3676 -0.388,0.3653 -0.387,0.3628 -0.389,0.3606 -0.388,0.3594 -0.387,0.3562 -0.388,0.3547 -0.388,0.3527 -0.388,0.35 -0.388,0.3489 -0.388,0.3457 -0.388,0.3437 -0.388,0.3418 -0.387,0.3399 -0.388,0.3375 -0.388,0.3351 -0.388,0.3332 -0.388,0.3305 -0.388,0.3293 -0.387,0.3269 -0.389,0.3243 -0.388,0.3222 -0.388,0.3203 -0.387,0.3188 -0.388,0.3156 -0.388,0.3137 -0.388,0.3121 -0.388,0.3098 -0.388,0.3074 -0.387,0.3051 -0.388,0.3031 -0.388,0.3015 -0.388,0.2985 -0.388,0.2969 -0.388,0.2949 -0.388,0.2926 -0.388,0.2902 -0.388,0.2887 -0.388,0.2859 -0.388,0.284 -0.387,0.282 -0.388,0.2797 -0.388,0.2785 -0.388,0.2758 -0.388,0.2738 -0.388,0.2715 -0.388,0.2692 -0.387,0.2679 -0.389,0.2645 -0.388,0.264 -0.387,0.261 -0.388,0.2597 -0.388,0.2571 -0.387,0.2551 -0.389,0.2527 -0.388,0.2512 -0.387,0.2492 -0.388,0.2472 -0.388,0.2454 -0.388,0.2429 -0.388,0.241 -0.388,0.2391 -0.388,0.2379 -0.388,0.2348 -0.387,0.2339 -0.389,0.2309 -0.387,0.2297 -0.388,0.2277 -0.388,0.2258 -0.388,0.2234 -0.388,0.2223 -0.388,0.2195 -0.388,0.2184 -0.388,0.2168 -0.387,0.2145 -0.388,0.2121 -0.388,0.2117 -0.388,0.2086 -0.388,0.2074 -0.388,0.2059 -0.387,0.2039 -0.388,0.2015 -0.389,0.2004 -0.387,0.1988 -0.388,0.1965 -0.388,0.1957 -0.388,0.1926 -0.388,0.1922 -0.388,0.1902 -0.388,0.1883 -0.387,0.1867 -0.388,0.1856 -0.388,0.1836 -0.388,0.1824 -0.388,0.1805 -0.388,0.1785 -0.388,0.1777 -0.388,0.1758 -0.387,0.1746 -0.389,0.1727 -0.388,0.1714 -0.387,0.1704 -0.388,0.1679 -0.388,0.1672 -0.387,0.166 -0.389,0.1633 -0.388,0.1637 -0.387,0.1613 -0.388,0.1598 -0.388,0.159 -0.389,0.1566 -0.387,0.1559 -0.3879,0.1554 -0.3879,0.1528 -0.3875,0.1523 -0.3879,0.1508 -0.3887,0.1492 -0.3875,0.1484 -0.3879,0.1473 -0.3879,0.1461 -0.3875,0.1449 -0.3878,0.143 -0.3883,0.1426 -0.3879,0.141 -0.3879,0.1402 -0.3875,0.1387 -0.3879,0.1375 -0.3887,0.1371 -0.3875,0.1352 -0.3879,0.1347 -0.3875,0.1336 -0.3879,0.132 -0.3878,0.1313 -0.3883,0.1305 -0.3879,0.1289 -0.3879,0.1285 -0.3875,0.1273 -0.3879,0.1258 -0.3879,0.1262 -0.3883,0.1238 -0.3879,0.1238 -0.3875,0.1223 -0.3878,0.1223 -0.3879,0.1207 -0.3883,0.1191 -0.3879,0.1192 -0.3875,0.1179 -0.3879,0.1176 -0.3879,0.1164 -0.3875,0.1152 -0.3887,0.1149 -0.3879,0.1133 -0.3875,0.1133 -0.3878,0.1125 -0.3879,0.1117 -0.3883,0.1101 -0.3879,0.1106 -0.3875,0.1086 -0.3879,0.1086 -0.3879,0.1082 -0.3875,0.1062 -0.3887,0.1067 -0.3875,0.1058 -0.3879,0.1043 -0.3878,0.1043 -0.3875,0.1035 -0.3879,0.1028 -0.3887,0.1027 -0.3875,0.1012 -0.3879,0.1011 -0.3879,0.0996 -0.3875,0.1 -0.3887,0.0989 -0.3875,0.0984 -0.3878,0.0981 -0.3879,0.0968 -0.3875,0.0969 -0.3879,0.0957 -0.3883,0.0953 -0.3879,0.0953 -0.3879,0.0938 -0.3875,0.0945 -0.3879,0.093 -0.3887,0.0922 -0.3875,0.0922 -0.3878,0.0925 -0.3879,0.0907 -0.3875,0.0906 -0.3879,0.0902 -0.3883,0.0899 -0.3879,0.0886 -0.3879,0.0891 -0.3875,0.0879 -0.3879,0.0875 -0.3879,0.0871 -0.3883,0.0871 -0.3878,0.0863 -0.3875,0.086 -0.3879,0.0855 -0.3879,0.0848 -0.3883,0.0848 -0.3879,0.0839 -0.3879,0.084 -0.3875,0.0832 -0.3879,0.0828 -0.3875,0.0832 -0.3886,0.0817 -0.3879,0.0816 -0.3875,0.0813 -0.3879,0.0808 -0.3879,0.0809 -0.3875,0.0805 -0.3887,0.0793 -0.3875,0.0796 -0.3879,0.0793 -0.3879,0.0789 -0.3875,0.0782 -0.3886,0.0777 -0.3879,0.0781 -0.3875,0.0774 -0.3879,0.0769 -0.3875,0.0766 -0.3879,0.0766 -0.3887,0.0757 -0.3875,0.0766 -0.3879,0.075 -0.3879,0.075 -0.3875,0.075 -0.3886,0.0742 -0.3875,0.0742 -0.3879,0.0743 -0.3879,0.0734 -0.3875,0.0734 -0.3879,0.0731 -0.3887,0.0726 -0.3875,0.0727 -0.3879,0.0723 -0.3875,0.0718 -0.3879,0.0719 -0.3879,0.0715 -0.3882,0.0711 -0.3879,0.0703 -0.3879,0.0715 -0.3875,0.0695 -0.3879,0.0707 -0.3883,0.0695 -0.3879,0.07 -0.3879,0.0699 -0.3875,0.0687" /><path
       inkscape:connector-curvature="0"
       id="path116"
       style="fill:none;stroke:#000000;stroke-width:0.99975002;stroke-linecap:butt;stroke-linejoin:bevel;stroke-miterlimit:10;stroke-opacity:1;stroke-dasharray:none"
       d="m 161.303,31.6477 -0.387,0.4703 -0.388,0.4687 -0.388,0.4672 -0.388,0.466 -0.388,0.4641 -0.388,0.4637 -0.388,0.4609 -0.388,0.4598 -0.387,0.4589 -0.388,0.4571 -0.389,0.4558 -0.387,0.4547 -0.388,0.452 -0.388,0.4515 -0.387,0.45 -0.388,0.4485 -0.389,0.4472 -0.388,0.4461 -0.387,0.4442 -0.388,0.4429 -0.388,0.4411 -0.388,0.4402 -0.388,0.4391 -0.388,0.4371 -0.387,0.4359 -0.388,0.434 -0.388,0.4328 -0.388,0.432 -0.388,0.4297 -0.388,0.4289 -0.388,0.4278 -0.388,0.4257 -0.387,0.4247 -0.389,0.423 -0.388,0.4223 -0.387,0.4207 -0.388,0.4183 -0.388,0.418 -0.388,0.4168 -0.388,0.4148 -0.388,0.4133 -0.387,0.4125 -0.388,0.411 -0.388,0.4093 -0.389,0.4082 -0.387,0.4067 -0.388,0.4054 -0.388,0.4043 -0.387,0.4028" /><path
       inkscape:connector-curvature="0"
       id="path118"
       style="fill:none;stroke:#000000;stroke-width:0.99975002;stroke-linecap:butt;stroke-linejoin:bevel;stroke-miterlimit:10;stroke-opacity:1;stroke-dasharray:none"
       d="m 142.298,53.0137 -0.389,0.4011 -0.388,0.4 -0.387,0.3989 -0.388,0.3976 -0.388,0.3961 -0.388,0.3946 -0.388,0.3933 -0.388,0.3918 -0.388,0.3906 -0.388,0.3895 -0.387,0.3883 -0.388,0.3863 -0.388,0.3855 -0.388,0.384 -0.388,0.3825 -0.388,0.3816 -0.387,0.3805 -0.389,0.3785 -0.388,0.3773 -0.388,0.3766 -0.387,0.375 -0.388,0.3734 -0.388,0.3719 -0.388,0.3715 -0.388,0.3695 -0.388,0.3684 -0.387,0.3668 -0.388,0.366 -0.388,0.3644 -0.388,0.3629 -0.388,0.3625 -0.388,0.3606 -0.388,0.3593 -0.388,0.3579 -0.388,0.357 -0.388,0.3555 -0.388,0.3546 -0.387,0.3524 -0.388,0.3519 -0.388,0.3508 -0.388,0.3489 -0.388,0.348 -0.388,0.3465 -0.388,0.3457 -0.387,0.3441 -0.389,0.343 -0.388,0.341 -0.387,0.3406 -0.388,0.3391" /><path
       inkscape:connector-curvature="0"
       id="path120"
       style="fill:none;stroke:#000000;stroke-width:0.99975002;stroke-linecap:butt;stroke-linejoin:bevel;stroke-miterlimit:10;stroke-opacity:1;stroke-dasharray:none"
       d="m 123.291,71.1375 -0.388,0.3383 -0.387,0.3367 -0.389,0.3352 -0.388,0.3339 -0.387,0.3329 -0.388,0.3316 -0.388,0.3305 -0.388,0.3293 -0.388,0.3277 -0.388,0.3273 -0.388,0.3254 -0.388,0.3239 -0.387,0.3226 -0.389,0.3219 -0.387,0.3207 -0.388,0.3195 -0.388,0.318 -0.388,0.3168 -0.388,0.3156 -0.388,0.3141 -0.388,0.3136 -0.388,0.3122 -0.387,0.3105 -0.388,0.309 -0.388,0.309 -0.388,0.3066 -0.388,0.3059 -0.388,0.3047 -0.387,0.3027 -0.388,0.3023 -0.389,0.3016 -0.387,0.2992 -0.388,0.2985 -0.388,0.298 -0.388,0.2961 -0.388,0.2945 -0.388,0.2942 -0.388,0.2925 -0.387,0.2911 -0.388,0.2902 -0.388,0.2887 -0.388,0.2879 -0.388,0.2867 -0.388,0.2847 -0.388,0.2844 -0.388,0.2828 -0.387,0.2821 -0.389,0.2804 -0.388,0.2789" /><path
       inkscape:connector-curvature="0"
       id="path122"
       style="fill:none;stroke:#000000;stroke-width:0.99975002;stroke-linecap:butt;stroke-linejoin:bevel;stroke-miterlimit:10;stroke-opacity:1;stroke-dasharray:none"
       d="m 104.284,86.2484 -0.387,0.2786 -0.388,0.2765 -0.388,0.2762 -0.387,0.2742 -0.389,0.2731 -0.388,0.2722 -0.387,0.2707 -0.388,0.2699 -0.388,0.2688 -0.389,0.2668 -0.387,0.2664 -0.3879,0.2648 -0.3879,0.2637 -0.3875,0.2629 -0.3879,0.2617 -0.3887,0.2594 -0.3875,0.2594 -0.3879,0.2574 -0.3879,0.257 -0.3875,0.2551 -0.3878,0.2543 -0.3883,0.2527 -0.3879,0.252 -0.3879,0.2504 -0.3875,0.25 -0.3879,0.248 -0.3887,0.2477 -0.3875,0.2453 -0.3879,0.2453 -0.3875,0.243 -0.3879,0.2422 -0.3878,0.2414 -0.3883,0.2398 -0.3879,0.2387 -0.3879,0.2379 -0.3875,0.2359 -0.3879,0.2356 -0.3879,0.2339 -0.3883,0.2329 -0.3879,0.2316 -0.3875,0.2309 -0.3878,0.2289 -0.3879,0.2281 -0.3883,0.2269 -0.3879,0.2258 -0.3875,0.2242 -0.3879,0.2235 -0.3879,0.223 -0.3875,0.2203" /><path
       inkscape:connector-curvature="0"
       id="path124"
       style="fill:none;stroke:#000000;stroke-width:0.99975002;stroke-linecap:butt;stroke-linejoin:bevel;stroke-miterlimit:10;stroke-opacity:1;stroke-dasharray:none"
       d="m 85.2789,98.4734 -0.3887,0.22 -0.3879,0.2187 -0.3875,0.2176 -0.3878,0.216 -0.3879,0.2152 -0.3883,0.2145 -0.3879,0.2125 -0.3875,0.2121 -0.3879,0.21 -0.3879,0.209 -0.3875,0.209 -0.3887,0.207 -0.3875,0.205 -0.3879,0.205 -0.3878,0.203 -0.3875,0.203 -0.3879,0.201 -0.3887,0.199 -0.3875,0.199 -0.3879,0.198 -0.3879,0.197 -0.3875,0.194 -0.3887,0.195 -0.3875,0.193 -0.3878,0.191 -0.3879,0.192 -0.3875,0.189 -0.3879,0.188 -0.3883,0.188 -0.3879,0.186 -0.3879,0.185 -0.3875,0.184 -0.3879,0.182 -0.3887,0.182 -0.3875,0.18 -0.3878,0.179 -0.3879,0.179 -0.3875,0.177 -0.3879,0.175 -0.3883,0.175 -0.3879,0.174 -0.3879,0.172 -0.3875,0.172 -0.3879,0.17 -0.3879,0.169 -0.3883,0.168 -0.3878,0.168 -0.3875,0.165 -0.3879,0.165" /><path
       inkscape:connector-curvature="0"
       id="path126"
       style="fill:none;stroke:#000000;stroke-width:0.99975002;stroke-linecap:butt;stroke-linejoin:bevel;stroke-miterlimit:10;stroke-opacity:1;stroke-dasharray:none"
       d="m 66.2723,107.882 -0.3879,0.164 -0.3883,0.163 -0.3879,0.161 -0.3879,0.16 -0.3875,0.159 -0.3879,0.159 -0.3875,0.157 -0.3886,0.156 -0.3879,0.155 -0.3875,0.154 -0.3879,0.153 -0.3879,0.152 -0.3875,0.151 -0.3887,0.149 -0.3875,0.15 -0.3879,0.147 -0.3879,0.146 -0.3875,0.146 -0.3886,0.145 -0.3879,0.144 -0.3875,0.142 -0.3879,0.141 -0.3875,0.141 -0.3879,0.14 -0.3887,0.138 -0.3875,0.138 -0.3879,0.136 -0.3879,0.136 -0.3875,0.134 -0.3886,0.134 -0.3875,0.133 -0.3879,0.132 -0.3879,0.13 -0.3875,0.13 -0.3879,0.129 -0.3887,0.127 -0.3875,0.128 -0.3879,0.126 -0.3875,0.125 -0.3879,0.124 -0.3879,0.123 -0.3882,0.123 -0.3879,0.121 -0.3879,0.12 -0.3875,0.12 -0.3879,0.119 -0.3883,0.118 -0.3879,0.116 -0.3879,0.117" /><path
       inkscape:connector-curvature="0"
       id="path128"
       style="fill:none;stroke:#000000;stroke-width:0.99975002;stroke-linecap:butt;stroke-linejoin:bevel;stroke-miterlimit:10;stroke-opacity:1;stroke-dasharray:none"
       d="m 47.2656,114.694 -0.3875,0.115" /><path
       inkscape:connector-curvature="0"
       id="path130"
       style="fill:none;stroke:#000000;stroke-width:2.02442169;stroke-linecap:butt;stroke-linejoin:bevel;stroke-miterlimit:10;stroke-opacity:1;stroke-dasharray:none"
       d="m 239.32462,32.396523 -0.39581,0.634965 -0.39683,0.634564 -0.39785,0.633363 -0.39581,0.632962 -0.39683,0.632661 -0.39683,0.63136 -0.39683,0.631059 -0.39683,0.630257 -0.39683,0.629457 -0.39683,0.628755 -0.3958,0.627855 -0.39683,0.627954 -0.39683,0.626652 -0.39683,0.626352 -0.39683,0.625551 -0.39683,0.62525 -0.39683,0.623948 -0.39683,0.623648 -0.39581,0.622746 -0.39785,0.622446 -0.39683,0.621244 -0.39581,0.621244 -0.39683,0.620543 -0.39683,0.618841 -0.39581,0.61894 -0.39785,0.61814 -0.39683,0.618139 -0.39581,0.616938 -0.39683,0.615835 -0.39683,0.615736 -0.39785,0.615335 -0.39581,0.614234 -0.39683,0.613833 -0.39683,0.613031 -0.39581,0.612331 -0.39683,0.611028 -0.39785,0.61153 -0.39581,0.609826 -0.39683,0.609927 -0.39683,0.609526 -0.39683,0.608325 -0.39683,0.607623 -0.39683,0.606722 -0.39683,0.606422 -0.39683,0.606021 -0.3958,0.60562 -0.39683,0.604018 -0.39786,0.603617 -0.3958,0.603317" /><path
       inkscape:connector-curvature="0"
       id="path132"
       style="fill:none;stroke:#000000;stroke-width:2.0002501;stroke-linecap:butt;stroke-linejoin:bevel;stroke-miterlimit:10;stroke-opacity:1;stroke-dasharray:none"
       d="m 219.874,62.7383 -0.388,0.6023 -0.388,0.6008 -0.387,0.6008 -0.388,0.5992 -0.389,0.5992 -0.388,0.5985 -0.387,0.5976 -0.388,0.5969 -0.388,0.5965 -0.388,0.5961 -0.388,0.5957 -0.388,0.5937 -0.387,0.5942 -0.388,0.5933 -0.388,0.593 -0.388,0.5918 -0.388,0.5918 -0.388,0.5902 -0.388,0.5903 -0.388,0.5894 -0.387,0.5891 -0.389,0.5886 -0.388,0.5872 -0.387,0.5875 -0.388,0.5863 -0.388,0.5855 -0.388,0.5852 -0.388,0.5844 -0.388,0.5839 -0.387,0.5829 -0.388,0.5828 -0.388,0.582 -0.389,0.5813 -0.387,0.5804 -0.388,0.5805 -0.388,0.5789 -0.387,0.5793 -0.389,0.5781 -0.388,0.5774 -0.387,0.5777 -0.388,0.5758 -0.388,0.5761 -0.388,0.5754 -0.388,0.5743 -0.388,0.5738 -0.388,0.573 -0.388,0.5731 -0.387,0.5722 -0.388,0.5715" /><path
       inkscape:connector-curvature="0"
       id="path134"
       style="fill:none;stroke:#000000;stroke-width:2.0002501;stroke-linecap:butt;stroke-linejoin:bevel;stroke-miterlimit:10;stroke-opacity:1;stroke-dasharray:none"
       d="m 200.868,91.4738 -0.388,0.5707 -0.388,0.57 -0.388,0.5691 -0.388,0.5695 -0.387,0.5684 -0.389,0.5676 -0.388,0.5672 -0.388,0.5671 -0.387,0.5653 -0.388,0.5656 -0.388,0.5648 -0.388,0.5641 -0.388,0.5629 -0.388,0.5633 -0.387,0.5625 -0.388,0.5621 -0.389,0.561 -0.387,0.56 -0.388,0.56 -0.388,0.56 -0.388,0.559 -0.388,0.557 -0.388,0.558 -0.388,0.557 -0.388,0.556 -0.387,0.556 -0.388,0.555 -0.388,0.554 -0.388,0.554 -0.388,0.553 -0.388,0.553 -0.388,0.553 -0.387,0.551 -0.389,0.552 -0.388,0.55 -0.387,0.55 -0.388,0.549 -0.388,0.548 -0.387,0.548 -0.389,0.548 -0.388,0.546 -0.387,0.547 -0.388,0.546 -0.388,0.545 -0.388,0.544 -0.388,0.545 -0.388,0.543 -0.388,0.543 -0.388,0.542" /><path
       inkscape:connector-curvature="0"
       id="path136"
       style="fill:none;stroke:#000000;stroke-width:2.0002501;stroke-linecap:butt;stroke-linejoin:bevel;stroke-miterlimit:10;stroke-opacity:1;stroke-dasharray:none"
       d="m 181.861,118.737 -0.387,0.542 -0.389,0.541 -0.387,0.54 -0.388,0.54 -0.388,0.539 -0.388,0.54 -0.388,0.537 -0.388,0.538 -0.388,0.537 -0.388,0.536 -0.387,0.537 -0.388,0.535 -0.389,0.535 -0.387,0.534 -0.388,0.534 -0.388,0.532 -0.387,0.534 -0.388,0.531 -0.389,0.531 -0.387,0.531 -0.388,0.53 -0.388,0.53 -0.388,0.529 -0.388,0.529 -0.388,0.528 -0.388,0.527 -0.387,0.527 -0.388,0.527 -0.388,0.525 -0.388,0.526 -0.388,0.524 -0.388,0.525 -0.388,0.523 -0.388,0.523 -0.387,0.523 -0.389,0.522 -0.388,0.521 -0.387,0.52 -0.388,0.521 -0.388,0.52 -0.387,0.519 -0.389,0.518 -0.388,0.518 -0.387,0.518 -0.388,0.517 -0.388,0.516 -0.389,0.516 -0.387,0.515 -0.388,0.516" /><path
       inkscape:connector-curvature="0"
       id="path138"
       style="fill:none;stroke:#000000;stroke-width:2.0002501;stroke-linecap:butt;stroke-linejoin:bevel;stroke-miterlimit:10;stroke-opacity:1;stroke-dasharray:none"
       d="m 162.855,144.614 -0.388,0.513 -0.387,0.514 -0.388,0.514 -0.389,0.512 -0.387,0.512 -0.388,0.512 -0.388,0.511 -0.388,0.51 -0.388,0.51 -0.388,0.51 -0.388,0.509 -0.388,0.507 -0.387,0.509 -0.388,0.507 -0.389,0.507 -0.387,0.506 -0.388,0.506 -0.388,0.505 -0.387,0.504 -0.388,0.504 -0.389,0.504 -0.388,0.504 -0.387,0.502 -0.388,0.502 -0.388,0.501 -0.388,0.502 -0.388,0.5 -0.388,0.5 -0.387,0.499 -0.388,0.499 -0.388,0.498 -0.388,0.498 -0.388,0.497 -0.388,0.498 -0.388,0.496 -0.388,0.495 -0.387,0.496 -0.389,0.494 -0.388,0.494 -0.387,0.495 -0.388,0.493 -0.388,0.492 -0.388,0.493 -0.388,0.491 -0.388,0.491 -0.387,0.491 -0.388,0.49 -0.388,0.49 -0.389,0.489" /><path
       inkscape:connector-curvature="0"
       id="path140"
       style="fill:none;stroke:#000000;stroke-width:2.0002501;stroke-linecap:butt;stroke-linejoin:bevel;stroke-miterlimit:10;stroke-opacity:1;stroke-dasharray:none"
       d="m 143.848,169.19 -0.387,0.489 -0.388,0.489 -0.388,0.487 -0.387,0.487 -0.389,0.487 -0.388,0.485 -0.387,0.486 -0.388,0.486 -0.388,0.484 -0.388,0.485 -0.388,0.484 -0.388,0.482 -0.388,0.483 -0.388,0.482 -0.387,0.482 -0.388,0.481 -0.388,0.481 -0.388,0.48 -0.388,0.48 -0.388,0.479 -0.387,0.479 -0.389,0.478 -0.388,0.478 -0.388,0.478 -0.387,0.476 -0.388,0.476 -0.388,0.476 -0.388,0.476 -0.388,0.475 -0.388,0.473 -0.387,0.475 -0.388,0.473 -0.388,0.473 -0.388,0.472 -0.388,0.472 -0.388,0.472 -0.388,0.471 -0.388,0.47 -0.388,0.47 -0.388,0.47 -0.388,0.469 -0.387,0.469 -0.388,0.468 -0.007,0.008" /><path
       inkscape:connector-curvature="0"
       id="path142"
       style="fill:none;stroke:#000000;stroke-width:0.99975002;stroke-linecap:butt;stroke-linejoin:bevel;stroke-miterlimit:10;stroke-opacity:1;stroke-dasharray:7.5, 4.5;stroke-dashoffset:0"
       d="m 238.88,32.3242 -0.387,0.6031 -0.388,0.6016 -0.389,0.5984 -0.387,0.5969 -0.388,0.5949 -0.388,0.5922 -0.388,0.5907 -0.388,0.5878 -0.388,0.5856 -0.388,0.5844 -0.387,0.582 -0.388,0.5789 -0.388,0.5777 -0.388,0.575 -0.388,0.5731 -0.388,0.5715 -0.388,0.5683 -0.388,0.5664 -0.387,0.5649 -0.389,0.5625 -0.388,0.5601 -0.387,0.5582 -0.388,0.5555 -0.388,0.5535 -0.387,0.552 -0.389,0.5492 -0.388,0.5473 -0.387,0.5453 -0.388,0.5429 -0.388,0.5411 -0.389,0.5382 -0.387,0.5364 -0.388,0.534 -0.388,0.5324 -0.387,0.5297 -0.388,0.5277 -0.389,0.5258 -0.387,0.5234 -0.388,0.5215 -0.388,0.5191 -0.388,0.5164 -0.388,0.5149 -0.388,0.5129 -0.388,0.5097 -0.388,0.5086 -0.387,0.5055 -0.388,0.5043 -0.389,0.5008 -0.387,0.4996 -0.388,0.4973 -0.388,0.4949 -0.387,0.4926 -0.388,0.4906 -0.389,0.4883 -0.388,0.4859 -0.387,0.484 -0.388,0.4812 -0.388,0.4793 -0.388,0.477 -0.388,0.4754 -0.388,0.4726 -0.387,0.4703 -0.388,0.4688 -0.388,0.4656 -0.388,0.4637 -0.388,0.4621 -0.388,0.459 -0.388,0.4566 -0.388,0.4551 -0.387,0.4524 -0.389,0.45 -0.388,0.4484 -0.387,0.4457 -0.388,0.443 -0.388,0.4418 -0.388,0.4386 -0.388,0.4367 -0.388,0.4348 -0.387,0.432 -0.388,0.4301 -0.388,0.4281 -0.389,0.4254 -0.387,0.4227 -0.388,0.4215 -0.388,0.4187 -0.387,0.416 -0.389,0.4149 -0.388,0.4117 -0.387,0.4098 -0.388,0.4078 -0.388,0.4051 -0.388,0.4035 -0.388,0.4004 -0.388,0.3984 -0.388,0.3965 -0.388,0.3945 -0.387,0.3914 -0.388,0.3903 -0.388,0.3879 -0.388,0.3843 -0.388,0.3836 -0.388,0.3809 -0.387,0.3789 -0.389,0.3762 -0.388,0.375 -0.388,0.3722 -0.387,0.3703 -0.388,0.3676 -0.388,0.366 -0.388,0.3637 -0.388,0.3617 -0.388,0.359 -0.387,0.3578 -0.388,0.3555 -0.389,0.3527 -0.387,0.3516 -0.388,0.3488 -0.388,0.3473 -0.388,0.3449 -0.388,0.3426 -0.388,0.3406 -0.388,0.3391 -0.388,0.3367 -0.387,0.3351 -0.388,0.3332 -0.388,0.3309 -0.388,0.3281 -0.388,0.3274 -0.388,0.3254 -0.388,0.323 -0.387,0.3211 -0.389,0.3195 -0.388,0.3172 -0.387,0.316 -0.388,0.3133 -0.388,0.3121 -0.387,0.3098 -0.389,0.3082 -0.388,0.3066 -0.387,0.3047 -0.388,0.3028 -0.388,0.3007 -0.388,0.2993 -0.388,0.298 -0.388,0.2961 -0.388,0.2941 -0.388,0.2922 -0.387,0.291 -0.389,0.2891 -0.387,0.2879 -0.388,0.2855 -0.388,0.2844 -0.388,0.2828 -0.388,0.2805 -0.388,0.2797 -0.388,0.2778 -0.388,0.276 -0.387,0.275 -0.388,0.274 -0.389,0.271 -0.387,0.271 -0.388,0.268 -0.388,0.268 -0.387,0.266 -0.388,0.265 -0.389,0.262 -0.387,0.262 -0.388,0.26 -0.388,0.259 -0.388,0.258 -0.388,0.256 -0.388,0.255 -0.388,0.253 -0.387,0.252 -0.388,0.251 -0.388,0.25 -0.388,0.248 -0.388,0.247 -0.388,0.246 -0.388,0.244 -0.388,0.244 -0.387,0.242 -0.389,0.241 -0.388,0.24 -0.387,0.239 -0.388,0.237 -0.388,0.236 -0.387,0.235 -0.389,0.234 -0.388,0.234 -0.387,0.231 -0.388,0.232 -0.388,0.229 -0.389,0.229 -0.387,0.227 -0.388,0.227 -0.388,0.225 -0.387,0.225 -0.388,0.223 -0.389,0.223 -0.387,0.221 -0.388,0.221 -0.388,0.219 -0.388,0.219 -0.388,0.218 -0.388,0.217 -0.388,0.216 -0.388,0.214 -0.387,0.215 -0.388,0.212 -0.389,0.213 -0.387,0.211 -0.388,0.21 -0.388,0.21 -0.387,0.209 -0.388,0.208 -0.389,0.207 -0.388,0.207 -0.387,0.205 -0.388,0.205 -0.388,0.204 -0.388,0.202 -0.388,0.203 -0.388,0.201 -0.387,0.202 -0.388,0.199 -0.388,0.199 -0.388,0.199 -0.388,0.197 -0.388,0.198 -0.388,0.196 -0.388,0.196 -0.387,0.195 -0.389,0.194 -0.388,0.194 -0.387,0.193 -0.388,0.192 -0.388,0.192 -0.388,0.191 -0.388,0.19 -0.388,0.189 -0.387,0.189 -0.388,0.189 -0.388,0.187 -0.389,0.188 -0.387,0.186 -0.388,0.186 -0.388,0.185 -0.387,0.184 -0.389,0.185 -0.388,0.183 -0.387,0.183 -0.388,0.182 -0.388,0.182 -0.388,0.181 -0.388,0.181 -0.388,0.18 -0.388,0.179 -0.388,0.179 -0.387,0.179 -0.388,0.178 -0.388,0.177 -0.388,0.177 -0.388,0.176 -0.388,0.176 -0.387,0.175 -0.389,0.174 -0.388,0.175 -0.388,0.174 -0.387,0.173 -0.388,0.173 -0.388,0.173 -0.388,0.171 -0.388,0.171 -0.388,0.171 -0.387,0.171 -0.388,0.17 -0.388,0.169 -0.388,0.17 -0.388,0.168 -0.388,0.168 -0.388,0.168 -0.388,0.167 -0.388,0.167 -0.388,0.167 -0.388,0.165 -0.387,0.166 -0.388,0.165 -0.388,0.165 -0.388,0.164 -0.388,0.164 -0.388,0.163 -0.388,0.164 -0.387,0.163 -0.389,0.162" /><path
       inkscape:connector-curvature="0"
       id="path144"
       style="fill:none;stroke:#000000;stroke-width:0.99975002;stroke-linecap:butt;stroke-linejoin:bevel;stroke-miterlimit:10;stroke-opacity:1;stroke-dasharray:none"
       d="m 238.88,32.4465 -0.387,0.6308 -0.388,0.6293 -0.389,0.6278 -0.387,0.6261 -0.388,0.6254 -0.388,0.6235 -0.388,0.6222 -0.388,0.6219 -0.388,0.6195 -0.388,0.6188 -0.387,0.6172 -0.388,0.6164 -0.388,0.6144 -0.388,0.6133 -0.388,0.6121 -0.388,0.6114 -0.388,0.6089 -0.388,0.6083 -0.387,0.6074 -0.389,0.6054 -0.388,0.6043 -0.387,0.6032 -0.388,0.6015 -0.388,0.6008 -0.387,0.5992 -0.389,0.5977 -0.388,0.5969 -0.387,0.5957 -0.388,0.5937 -0.388,0.5926 -0.389,0.5918 -0.387,0.5902 -0.388,0.5887 -0.388,0.5875 -0.387,0.5863 -0.388,0.5852 -0.389,0.584 -0.387,0.5828 -0.388,0.5812 -0.388,0.5797 -0.388,0.5793 -0.388,0.5774 -0.388,0.5761 -0.388,0.575 -0.388,0.5739 -0.387,0.5722 -0.388,0.5707 -0.389,0.5699 -0.387,0.5696" /><path
       inkscape:connector-curvature="0"
       id="path146"
       style="fill:none;stroke:#000000;stroke-width:0.99975002;stroke-linecap:butt;stroke-linejoin:bevel;stroke-miterlimit:10;stroke-opacity:1;stroke-dasharray:none"
       d="m 219.874,61.8137 -0.388,0.5668 -0.388,0.5664 -0.387,0.5644 -0.388,0.5641 -0.389,0.5625 -0.388,0.5609 -0.387,0.5598 -0.388,0.5586 -0.388,0.5574 -0.388,0.5563 -0.388,0.5543 -0.388,0.5543 -0.387,0.5519 -0.388,0.5512 -0.388,0.55 -0.388,0.5488 -0.388,0.5469 -0.388,0.5469 -0.388,0.5445 -0.388,0.5437 -0.387,0.5422 -0.389,0.5414 -0.388,0.5399 -0.387,0.5386 -0.388,0.5379 -0.388,0.536 -0.388,0.5347 -0.388,0.534 -0.388,0.5328 -0.387,0.5309 -0.388,0.5301 -0.388,0.5289 -0.389,0.5281 -0.387,0.5262 -0.388,0.525 -0.388,0.5238 -0.387,0.5227 -0.389,0.5218 -0.388,0.52 -0.387,0.5195 -0.388,0.5176 -0.388,0.5168 -0.388,0.5152 -0.388,0.5145 -0.388,0.5121 -0.388,0.5125 -0.388,0.5097 -0.387,0.5102 -0.388,0.5078" /><path
       inkscape:connector-curvature="0"
       id="path148"
       style="fill:none;stroke:#000000;stroke-width:0.99975002;stroke-linecap:butt;stroke-linejoin:bevel;stroke-miterlimit:10;stroke-opacity:1;stroke-dasharray:none"
       d="m 200.868,88.1543 -0.388,0.507 -0.388,0.5055 -0.388,0.5047 -0.388,0.5031 -0.387,0.502 -0.389,0.5007 -0.388,0.4997 -0.388,0.4988 -0.387,0.4965 -0.388,0.4965 -0.388,0.4949 -0.388,0.4937 -0.388,0.4918 -0.388,0.4914 -0.387,0.4895 -0.388,0.489 -0.389,0.4875 -0.387,0.4868 -0.388,0.4855 -0.388,0.4836 -0.388,0.4828 -0.388,0.4817 -0.388,0.48 -0.388,0.4793 -0.388,0.4787 -0.387,0.476 -0.388,0.476 -0.388,0.474 -0.388,0.473 -0.388,0.473 -0.388,0.47 -0.388,0.47 -0.387,0.469 -0.389,0.467 -0.388,0.466 -0.387,0.465 -0.388,0.464 -0.388,0.462 -0.387,0.462 -0.389,0.46 -0.388,0.459 -0.387,0.458 -0.388,0.457 -0.388,0.455 -0.388,0.455 -0.388,0.453 -0.388,0.452 -0.388,0.451 -0.388,0.449" /><path
       inkscape:connector-curvature="0"
       id="path150"
       style="fill:none;stroke:#000000;stroke-width:0.99975002;stroke-linecap:butt;stroke-linejoin:bevel;stroke-miterlimit:10;stroke-opacity:1;stroke-dasharray:none"
       d="m 181.861,111.581 -0.387,0.449 -0.389,0.447 -0.387,0.447 -0.388,0.444 -0.388,0.445 -0.388,0.442 -0.388,0.442 -0.388,0.44 -0.388,0.439 -0.388,0.438 -0.387,0.437 -0.388,0.436 -0.389,0.434 -0.387,0.434 -0.388,0.431 -0.388,0.432 -0.387,0.43 -0.388,0.429 -0.389,0.427 -0.387,0.427 -0.388,0.425 -0.388,0.424 -0.388,0.423 -0.388,0.422 -0.388,0.421 -0.388,0.419 -0.387,0.419 -0.388,0.416 -0.388,0.417 -0.388,0.415 -0.388,0.414 -0.388,0.413 -0.388,0.411 -0.388,0.411 -0.387,0.408 -0.389,0.409 -0.388,0.407 -0.387,0.406 -0.388,0.405 -0.388,0.403 -0.387,0.403 -0.389,0.401 -0.388,0.4 -0.387,0.4 -0.388,0.397 -0.388,0.398 -0.389,0.395 -0.387,0.394 -0.388,0.394" /><path
       inkscape:connector-curvature="0"
       id="path152"
       style="fill:none;stroke:#000000;stroke-width:0.99975002;stroke-linecap:butt;stroke-linejoin:bevel;stroke-miterlimit:10;stroke-opacity:1;stroke-dasharray:none"
       d="m 162.855,132.201 -0.388,0.392 -0.387,0.392 -0.388,0.39 -0.389,0.388 -0.387,0.389 -0.388,0.386 -0.388,0.385 -0.388,0.385 -0.388,0.383 -0.388,0.383 -0.388,0.381 -0.388,0.38 -0.387,0.379 -0.388,0.378 -0.389,0.376 -0.387,0.376 -0.388,0.374 -0.388,0.374 -0.387,0.372 -0.388,0.371 -0.389,0.371 -0.388,0.369 -0.387,0.367 -0.388,0.367 -0.388,0.366 -0.388,0.364 -0.388,0.363 -0.388,0.363 -0.387,0.361 -0.388,0.36 -0.388,0.36 -0.388,0.357 -0.388,0.357 -0.388,0.356 -0.388,0.355 -0.388,0.354 -0.387,0.352 -0.389,0.351 -0.388,0.35 -0.387,0.35 -0.388,0.348 -0.388,0.347 -0.388,0.346 -0.388,0.345 -0.388,0.343 -0.387,0.343 -0.388,0.342 -0.388,0.34 -0.389,0.34" /><path
       inkscape:connector-curvature="0"
       id="path154"
       style="fill:none;stroke:#000000;stroke-width:0.99975002;stroke-linecap:butt;stroke-linejoin:bevel;stroke-miterlimit:10;stroke-opacity:1;stroke-dasharray:none"
       d="m 143.848,150.122 -0.387,0.339 -0.388,0.337 -0.388,0.336 -0.387,0.335 -0.389,0.334 -0.388,0.333 -0.387,0.332 -0.388,0.331 -0.388,0.33 -0.388,0.328 -0.388,0.328 -0.388,0.326 -0.388,0.326 -0.388,0.325 -0.387,0.323 -0.388,0.322 -0.388,0.322 -0.388,0.32 -0.388,0.319 -0.388,0.318 -0.387,0.317 -0.389,0.316 -0.388,0.315 -0.388,0.314 -0.387,0.313 -0.388,0.312 -0.388,0.31 -0.388,0.31 -0.388,0.308 -0.388,0.308 -0.387,0.306 -0.388,0.306 -0.388,0.304 -0.388,0.303 -0.388,0.302 -0.388,0.302 -0.388,0.3 -0.388,0.299 -0.388,0.299 -0.388,0.297 -0.388,0.296 -0.387,0.295 -0.388,0.293 -0.388,0.294 -0.388,0.291 -0.388,0.292 -0.388,0.29 -0.388,0.288 -0.387,0.288" /><path
       inkscape:connector-curvature="0"
       id="path156"
       style="fill:none;stroke:#000000;stroke-width:0.99975002;stroke-linecap:butt;stroke-linejoin:bevel;stroke-miterlimit:10;stroke-opacity:1;stroke-dasharray:none"
       d="m 124.843,165.454 -0.389,0.287" /><path
       inkscape:connector-curvature="0"
       id="path158"
       style="fill:none;stroke:#000000;stroke-width:2.0717802;stroke-linecap:butt;stroke-linejoin:bevel;stroke-miterlimit:10;stroke-opacity:1;stroke-dasharray:none"
       d="m 239.79278,31.647312 -0.40485,0.650155 -0.40591,0.649744 -0.40696,0.648512 -0.40484,0.648104 -0.40591,0.647795 -0.4059,0.646463 -0.40591,0.646155 -0.40591,0.645334 -0.4059,0.644516 -0.4059,0.643796 -0.40486,0.642872 -0.40589,0.642977 -0.40592,0.641642 -0.40591,0.641335 -0.40589,0.640515 -0.40591,0.640208 -0.4059,0.638873 -0.40591,0.638566 -0.40486,0.637644 -0.40694,0.637335 -0.4059,0.636105 -0.40487,0.636106 -0.4059,0.635388 -0.4059,0.633643 -0.40487,0.633747 -0.40694,0.632926 -0.40591,0.632928 -0.40486,0.631694 -0.4059,0.630568 -0.4059,0.630464 -0.40695,0.630055 -0.40486,0.628928 -0.40591,0.628515 -0.4059,0.627697 -0.40485,0.626979 -0.4059,0.625644 -0.40696,0.626158 -0.40486,0.624416 -0.40591,0.624517 -0.40589,0.624107 -0.40591,0.622876 -0.40591,0.622159 -0.4059,0.621235 -0.4059,0.620928 -0.40591,0.620518 -0.40485,0.620108 -0.40591,0.618468 -0.40695,0.618056 -0.40486,0.617749" /><path
       inkscape:connector-curvature="0"
       id="path160"
       style="fill:none;stroke:#000000;stroke-width:2.0002501;stroke-linecap:butt;stroke-linejoin:bevel;stroke-miterlimit:10;stroke-opacity:1;stroke-dasharray:none"
       d="m 219.874,62.7383 -0.388,0.6023 -0.388,0.6008 -0.387,0.6008 -0.388,0.5992 -0.389,0.5992 -0.388,0.5985 -0.387,0.5976 -0.388,0.5969 -0.388,0.5965 -0.388,0.5961 -0.388,0.5957 -0.388,0.5937 -0.387,0.5942 -0.388,0.5933 -0.388,0.593 -0.388,0.5918 -0.388,0.5918 -0.388,0.5902 -0.388,0.5903 -0.388,0.5894 -0.387,0.5891 -0.389,0.5886 -0.388,0.5872 -0.387,0.5875 -0.388,0.5863 -0.388,0.5855 -0.388,0.5852 -0.388,0.5844 -0.388,0.5839 -0.387,0.5829 -0.388,0.5828 -0.388,0.582 -0.389,0.5813 -0.387,0.5804 -0.388,0.5805 -0.388,0.5789 -0.387,0.5793 -0.389,0.5781 -0.388,0.5774 -0.387,0.5777 -0.388,0.5758 -0.388,0.5761 -0.388,0.5754 -0.388,0.5743 -0.388,0.5738 -0.388,0.573 -0.388,0.5731 -0.387,0.5722 -0.388,0.5715" /><path
       inkscape:connector-curvature="0"
       id="path162"
       style="fill:none;stroke:#000000;stroke-width:2.0002501;stroke-linecap:butt;stroke-linejoin:bevel;stroke-miterlimit:10;stroke-opacity:1;stroke-dasharray:none"
       d="m 200.868,91.4738 -0.388,0.5707 -0.388,0.57 -0.388,0.5691 -0.388,0.5695 -0.387,0.5684 -0.389,0.5676 -0.388,0.5672 -0.388,0.5671 -0.387,0.5653 -0.388,0.5656 -0.388,0.5648 -0.388,0.5641 -0.388,0.5629 -0.388,0.5633 -0.387,0.5625 -0.388,0.5621 -0.389,0.561 -0.387,0.56 -0.388,0.56 -0.388,0.56 -0.388,0.559 -0.388,0.557 -0.388,0.558 -0.388,0.557 -0.388,0.556 -0.387,0.556 -0.388,0.555 -0.388,0.554 -0.388,0.554 -0.388,0.553 -0.388,0.553 -0.388,0.553 -0.387,0.551 -0.389,0.552 -0.388,0.55 -0.387,0.55 -0.388,0.549 -0.388,0.548 -0.387,0.548 -0.389,0.548 -0.388,0.546 -0.387,0.547 -0.388,0.546 -0.388,0.545 -0.388,0.544 -0.388,0.545 -0.388,0.543 -0.388,0.543 -0.388,0.542" /><path
       inkscape:connector-curvature="0"
       id="path164"
       style="fill:none;stroke:#000000;stroke-width:2.0002501;stroke-linecap:butt;stroke-linejoin:bevel;stroke-miterlimit:10;stroke-opacity:1;stroke-dasharray:none"
       d="m 181.861,118.737 -0.387,0.542 -0.389,0.541 -0.387,0.54 -0.388,0.54 -0.388,0.539 -0.388,0.54 -0.388,0.537 -0.388,0.538 -0.388,0.537 -0.388,0.536 -0.387,0.537 -0.388,0.535 -0.389,0.535 -0.387,0.534 -0.388,0.534 -0.388,0.532 -0.387,0.534 -0.388,0.531 -0.389,0.531 -0.387,0.531 -0.388,0.53 -0.388,0.53 -0.388,0.529 -0.388,0.529 -0.388,0.528 -0.388,0.527 -0.387,0.527 -0.388,0.527 -0.388,0.525 -0.388,0.526 -0.388,0.524 -0.388,0.525 -0.388,0.523 -0.388,0.523 -0.387,0.523 -0.389,0.522 -0.388,0.521 -0.387,0.52 -0.388,0.521 -0.388,0.52 -0.387,0.519 -0.389,0.518 -0.388,0.518 -0.387,0.518 -0.388,0.517 -0.388,0.516 -0.389,0.516 -0.387,0.515 -0.388,0.516" /><path
       inkscape:connector-curvature="0"
       id="path166"
       style="fill:none;stroke:#000000;stroke-width:2.0002501;stroke-linecap:butt;stroke-linejoin:bevel;stroke-miterlimit:10;stroke-opacity:1;stroke-dasharray:none"
       d="m 162.855,144.614 -0.388,0.513 -0.387,0.514 -0.388,0.514 -0.389,0.512 -0.387,0.512 -0.388,0.512 -0.388,0.511 -0.388,0.51 -0.388,0.51 -0.388,0.51 -0.388,0.509 -0.388,0.507 -0.387,0.509 -0.388,0.507 -0.389,0.507 -0.387,0.506 -0.388,0.506 -0.388,0.505 -0.387,0.504 -0.388,0.504 -0.389,0.504 -0.388,0.504 -0.387,0.502 -0.388,0.502 -0.388,0.501 -0.388,0.502 -0.388,0.5 -0.388,0.5 -0.387,0.499 -0.388,0.499 -0.388,0.498 -0.388,0.498 -0.388,0.497 -0.388,0.498 -0.388,0.496 -0.388,0.495 -0.387,0.496 -0.389,0.494 -0.388,0.494 -0.387,0.495 -0.388,0.493 -0.388,0.492 -0.388,0.493 -0.388,0.491 -0.388,0.491 -0.387,0.491 -0.388,0.49 -0.388,0.49 -0.389,0.489" /><path
       inkscape:connector-curvature="0"
       id="path168"
       style="fill:none;stroke:#000000;stroke-width:2.0002501;stroke-linecap:butt;stroke-linejoin:bevel;stroke-miterlimit:10;stroke-opacity:1;stroke-dasharray:none"
       d="m 143.848,169.19 -0.387,0.489 -0.388,0.489 -0.388,0.487 -0.387,0.487 -0.389,0.487 -0.388,0.485 -0.387,0.486 -0.388,0.486 -0.388,0.484 -0.388,0.485 -0.388,0.484 -0.388,0.482 -0.388,0.483 -0.388,0.482 -0.387,0.482 -0.388,0.481 -0.388,0.481 -0.388,0.48 -0.388,0.48 -0.388,0.479 -0.387,0.479 -0.389,0.478 -0.388,0.478 -0.388,0.478 -0.387,0.476 -0.388,0.476 -0.388,0.476 -0.388,0.476 -0.388,0.475 -0.388,0.473 -0.387,0.475 -0.388,0.473 -0.388,0.473 -0.388,0.472 -0.388,0.472 -0.388,0.472 -0.388,0.471 -0.388,0.47 -0.388,0.47 -0.388,0.47 -0.388,0.469 -0.387,0.469 -0.388,0.468 -0.007,0.008" /><path
       inkscape:connector-curvature="0"
       id="path170"
       style="fill:none;stroke:#000000;stroke-width:0.99975002;stroke-linecap:butt;stroke-linejoin:bevel;stroke-miterlimit:10;stroke-opacity:1;stroke-dasharray:7.5, 4.5;stroke-dashoffset:0"
       d="m 238.88,32.3242 -0.387,0.6031 -0.388,0.6016 -0.389,0.5984 -0.387,0.5969 -0.388,0.5949 -0.388,0.5922 -0.388,0.5907 -0.388,0.5878 -0.388,0.5856 -0.388,0.5844 -0.387,0.582 -0.388,0.5789 -0.388,0.5777 -0.388,0.575 -0.388,0.5731 -0.388,0.5715 -0.388,0.5683 -0.388,0.5664 -0.387,0.5649 -0.389,0.5625 -0.388,0.5601 -0.387,0.5582 -0.388,0.5555 -0.388,0.5535 -0.387,0.552 -0.389,0.5492 -0.388,0.5473 -0.387,0.5453 -0.388,0.5429 -0.388,0.5411 -0.389,0.5382 -0.387,0.5364 -0.388,0.534 -0.388,0.5324 -0.387,0.5297 -0.388,0.5277 -0.389,0.5258 -0.387,0.5234 -0.388,0.5215 -0.388,0.5191 -0.388,0.5164 -0.388,0.5149 -0.388,0.5129 -0.388,0.5097 -0.388,0.5086 -0.387,0.5055 -0.388,0.5043 -0.389,0.5008 -0.387,0.4996 -0.388,0.4973 -0.388,0.4949 -0.387,0.4926 -0.388,0.4906 -0.389,0.4883 -0.388,0.4859 -0.387,0.484 -0.388,0.4812 -0.388,0.4793 -0.388,0.477 -0.388,0.4754 -0.388,0.4726 -0.387,0.4703 -0.388,0.4688 -0.388,0.4656 -0.388,0.4637 -0.388,0.4621 -0.388,0.459 -0.388,0.4566 -0.388,0.4551 -0.387,0.4524 -0.389,0.45 -0.388,0.4484 -0.387,0.4457 -0.388,0.443 -0.388,0.4418 -0.388,0.4386 -0.388,0.4367 -0.388,0.4348 -0.387,0.432 -0.388,0.4301 -0.388,0.4281 -0.389,0.4254 -0.387,0.4227 -0.388,0.4215 -0.388,0.4187 -0.387,0.416 -0.389,0.4149 -0.388,0.4117 -0.387,0.4098 -0.388,0.4078 -0.388,0.4051 -0.388,0.4035 -0.388,0.4004 -0.388,0.3984 -0.388,0.3965 -0.388,0.3945 -0.387,0.3914 -0.388,0.3903 -0.388,0.3879 -0.388,0.3843 -0.388,0.3836 -0.388,0.3809 -0.387,0.3789 -0.389,0.3762 -0.388,0.375 -0.388,0.3722 -0.387,0.3703 -0.388,0.3676 -0.388,0.366 -0.388,0.3637 -0.388,0.3617 -0.388,0.359 -0.387,0.3578 -0.388,0.3555 -0.389,0.3527 -0.387,0.3516 -0.388,0.3488 -0.388,0.3473 -0.388,0.3449 -0.388,0.3426 -0.388,0.3406 -0.388,0.3391 -0.388,0.3367 -0.387,0.3351 -0.388,0.3332 -0.388,0.3309 -0.388,0.3281 -0.388,0.3274 -0.388,0.3254 -0.388,0.323 -0.387,0.3211 -0.389,0.3195 -0.388,0.3172 -0.387,0.316 -0.388,0.3133 -0.388,0.3121 -0.387,0.3098 -0.389,0.3082 -0.388,0.3066 -0.387,0.3047 -0.388,0.3028 -0.388,0.3007 -0.388,0.2993 -0.388,0.298 -0.388,0.2961 -0.388,0.2941 -0.388,0.2922 -0.387,0.291 -0.389,0.2891 -0.387,0.2879 -0.388,0.2855 -0.388,0.2844 -0.388,0.2828 -0.388,0.2805 -0.388,0.2797 -0.388,0.2778 -0.388,0.276 -0.387,0.275 -0.388,0.274 -0.389,0.271 -0.387,0.271 -0.388,0.268 -0.388,0.268 -0.387,0.266 -0.388,0.265 -0.389,0.262 -0.387,0.262 -0.388,0.26 -0.388,0.259 -0.388,0.258 -0.388,0.256 -0.388,0.255 -0.388,0.253 -0.387,0.252 -0.388,0.251 -0.388,0.25 -0.388,0.248 -0.388,0.247 -0.388,0.246 -0.388,0.244 -0.388,0.244 -0.387,0.242 -0.389,0.241 -0.388,0.24 -0.387,0.239 -0.388,0.237 -0.388,0.236 -0.387,0.235 -0.389,0.234 -0.388,0.234 -0.387,0.231 -0.388,0.232 -0.388,0.229 -0.389,0.229 -0.387,0.227 -0.388,0.227 -0.388,0.225 -0.387,0.225 -0.388,0.223 -0.389,0.223 -0.387,0.221 -0.388,0.221 -0.388,0.219 -0.388,0.219 -0.388,0.218 -0.388,0.217 -0.388,0.216 -0.388,0.214 -0.387,0.215 -0.388,0.212 -0.389,0.213 -0.387,0.211 -0.388,0.21 -0.388,0.21 -0.387,0.209 -0.388,0.208 -0.389,0.207 -0.388,0.207 -0.387,0.205 -0.388,0.205 -0.388,0.204 -0.388,0.202 -0.388,0.203 -0.388,0.201 -0.387,0.202 -0.388,0.199 -0.388,0.199 -0.388,0.199 -0.388,0.197 -0.388,0.198 -0.388,0.196 -0.388,0.196 -0.387,0.195 -0.389,0.194 -0.388,0.194 -0.387,0.193 -0.388,0.192 -0.388,0.192 -0.388,0.191 -0.388,0.19 -0.388,0.189 -0.387,0.189 -0.388,0.189 -0.388,0.187 -0.389,0.188 -0.387,0.186 -0.388,0.186 -0.388,0.185 -0.387,0.184 -0.389,0.185 -0.388,0.183 -0.387,0.183 -0.388,0.182 -0.388,0.182 -0.388,0.181 -0.388,0.181 -0.388,0.18 -0.388,0.179 -0.388,0.179 -0.387,0.179 -0.388,0.178 -0.388,0.177 -0.388,0.177 -0.388,0.176 -0.388,0.176 -0.387,0.175 -0.389,0.174 -0.388,0.175 -0.388,0.174 -0.387,0.173 -0.388,0.173 -0.388,0.173 -0.388,0.171 -0.388,0.171 -0.388,0.171 -0.387,0.171 -0.388,0.17 -0.388,0.169 -0.388,0.17 -0.388,0.168 -0.388,0.168 -0.388,0.168 -0.388,0.167 -0.388,0.167 -0.388,0.167 -0.388,0.165 -0.387,0.166 -0.388,0.165 -0.388,0.165 -0.388,0.164 -0.388,0.164 -0.388,0.163 -0.388,0.164 -0.387,0.163 -0.389,0.162" /><path
       inkscape:connector-curvature="0"
       id="path172"
       style="fill:none;stroke:#000000;stroke-width:0.99975002;stroke-linecap:butt;stroke-linejoin:bevel;stroke-miterlimit:10;stroke-opacity:1;stroke-dasharray:none"
       d="m 238.88,32.4465 -0.387,0.6308 -0.388,0.6293 -0.389,0.6278 -0.387,0.6261 -0.388,0.6254 -0.388,0.6235 -0.388,0.6222 -0.388,0.6219 -0.388,0.6195 -0.388,0.6188 -0.387,0.6172 -0.388,0.6164 -0.388,0.6144 -0.388,0.6133 -0.388,0.6121 -0.388,0.6114 -0.388,0.6089 -0.388,0.6083 -0.387,0.6074 -0.389,0.6054 -0.388,0.6043 -0.387,0.6032 -0.388,0.6015 -0.388,0.6008 -0.387,0.5992 -0.389,0.5977 -0.388,0.5969 -0.387,0.5957 -0.388,0.5937 -0.388,0.5926 -0.389,0.5918 -0.387,0.5902 -0.388,0.5887 -0.388,0.5875 -0.387,0.5863 -0.388,0.5852 -0.389,0.584 -0.387,0.5828 -0.388,0.5812 -0.388,0.5797 -0.388,0.5793 -0.388,0.5774 -0.388,0.5761 -0.388,0.575 -0.388,0.5739 -0.387,0.5722 -0.388,0.5707 -0.389,0.5699 -0.387,0.5696" /><path
       inkscape:connector-curvature="0"
       id="path174"
       style="fill:none;stroke:#000000;stroke-width:0.99975002;stroke-linecap:butt;stroke-linejoin:bevel;stroke-miterlimit:10;stroke-opacity:1;stroke-dasharray:none"
       d="m 219.874,61.8137 -0.388,0.5668 -0.388,0.5664 -0.387,0.5644 -0.388,0.5641 -0.389,0.5625 -0.388,0.5609 -0.387,0.5598 -0.388,0.5586 -0.388,0.5574 -0.388,0.5563 -0.388,0.5543 -0.388,0.5543 -0.387,0.5519 -0.388,0.5512 -0.388,0.55 -0.388,0.5488 -0.388,0.5469 -0.388,0.5469 -0.388,0.5445 -0.388,0.5437 -0.387,0.5422 -0.389,0.5414 -0.388,0.5399 -0.387,0.5386 -0.388,0.5379 -0.388,0.536 -0.388,0.5347 -0.388,0.534 -0.388,0.5328 -0.387,0.5309 -0.388,0.5301 -0.388,0.5289 -0.389,0.5281 -0.387,0.5262 -0.388,0.525 -0.388,0.5238 -0.387,0.5227 -0.389,0.5218 -0.388,0.52 -0.387,0.5195 -0.388,0.5176 -0.388,0.5168 -0.388,0.5152 -0.388,0.5145 -0.388,0.5121 -0.388,0.5125 -0.388,0.5097 -0.387,0.5102 -0.388,0.5078" /><path
       inkscape:connector-curvature="0"
       id="path176"
       style="fill:none;stroke:#000000;stroke-width:0.99975002;stroke-linecap:butt;stroke-linejoin:bevel;stroke-miterlimit:10;stroke-opacity:1;stroke-dasharray:none"
       d="m 200.868,88.1543 -0.388,0.507 -0.388,0.5055 -0.388,0.5047 -0.388,0.5031 -0.387,0.502 -0.389,0.5007 -0.388,0.4997 -0.388,0.4988 -0.387,0.4965 -0.388,0.4965 -0.388,0.4949 -0.388,0.4937 -0.388,0.4918 -0.388,0.4914 -0.387,0.4895 -0.388,0.489 -0.389,0.4875 -0.387,0.4868 -0.388,0.4855 -0.388,0.4836 -0.388,0.4828 -0.388,0.4817 -0.388,0.48 -0.388,0.4793 -0.388,0.4787 -0.387,0.476 -0.388,0.476 -0.388,0.474 -0.388,0.473 -0.388,0.473 -0.388,0.47 -0.388,0.47 -0.387,0.469 -0.389,0.467 -0.388,0.466 -0.387,0.465 -0.388,0.464 -0.388,0.462 -0.387,0.462 -0.389,0.46 -0.388,0.459 -0.387,0.458 -0.388,0.457 -0.388,0.455 -0.388,0.455 -0.388,0.453 -0.388,0.452 -0.388,0.451 -0.388,0.449" /><path
       inkscape:connector-curvature="0"
       id="path178"
       style="fill:none;stroke:#000000;stroke-width:0.99975002;stroke-linecap:butt;stroke-linejoin:bevel;stroke-miterlimit:10;stroke-opacity:1;stroke-dasharray:none"
       d="m 181.861,111.581 -0.387,0.449 -0.389,0.447 -0.387,0.447 -0.388,0.444 -0.388,0.445 -0.388,0.442 -0.388,0.442 -0.388,0.44 -0.388,0.439 -0.388,0.438 -0.387,0.437 -0.388,0.436 -0.389,0.434 -0.387,0.434 -0.388,0.431 -0.388,0.432 -0.387,0.43 -0.388,0.429 -0.389,0.427 -0.387,0.427 -0.388,0.425 -0.388,0.424 -0.388,0.423 -0.388,0.422 -0.388,0.421 -0.388,0.419 -0.387,0.419 -0.388,0.416 -0.388,0.417 -0.388,0.415 -0.388,0.414 -0.388,0.413 -0.388,0.411 -0.388,0.411 -0.387,0.408 -0.389,0.409 -0.388,0.407 -0.387,0.406 -0.388,0.405 -0.388,0.403 -0.387,0.403 -0.389,0.401 -0.388,0.4 -0.387,0.4 -0.388,0.397 -0.388,0.398 -0.389,0.395 -0.387,0.394 -0.388,0.394" /><path
       inkscape:connector-curvature="0"
       id="path180"
       style="fill:none;stroke:#000000;stroke-width:0.99975002;stroke-linecap:butt;stroke-linejoin:bevel;stroke-miterlimit:10;stroke-opacity:1;stroke-dasharray:none"
       d="m 162.855,132.201 -0.388,0.392 -0.387,0.392 -0.388,0.39 -0.389,0.388 -0.387,0.389 -0.388,0.386 -0.388,0.385 -0.388,0.385 -0.388,0.383 -0.388,0.383 -0.388,0.381 -0.388,0.38 -0.387,0.379 -0.388,0.378 -0.389,0.376 -0.387,0.376 -0.388,0.374 -0.388,0.374 -0.387,0.372 -0.388,0.371 -0.389,0.371 -0.388,0.369 -0.387,0.367 -0.388,0.367 -0.388,0.366 -0.388,0.364 -0.388,0.363 -0.388,0.363 -0.387,0.361 -0.388,0.36 -0.388,0.36 -0.388,0.357 -0.388,0.357 -0.388,0.356 -0.388,0.355 -0.388,0.354 -0.387,0.352 -0.389,0.351 -0.388,0.35 -0.387,0.35 -0.388,0.348 -0.388,0.347 -0.388,0.346 -0.388,0.345 -0.388,0.343 -0.387,0.343 -0.388,0.342 -0.388,0.34 -0.389,0.34" /><path
       inkscape:connector-curvature="0"
       id="path182"
       style="fill:none;stroke:#000000;stroke-width:0.99975002;stroke-linecap:butt;stroke-linejoin:bevel;stroke-miterlimit:10;stroke-opacity:1;stroke-dasharray:none"
       d="m 143.848,150.122 -0.387,0.339 -0.388,0.337 -0.388,0.336 -0.387,0.335 -0.389,0.334 -0.388,0.333 -0.387,0.332 -0.388,0.331 -0.388,0.33 -0.388,0.328 -0.388,0.328 -0.388,0.326 -0.388,0.326 -0.388,0.325 -0.387,0.323 -0.388,0.322 -0.388,0.322 -0.388,0.32 -0.388,0.319 -0.388,0.318 -0.387,0.317 -0.389,0.316 -0.388,0.315 -0.388,0.314 -0.387,0.313 -0.388,0.312 -0.388,0.31 -0.388,0.31 -0.388,0.308 -0.388,0.308 -0.387,0.306 -0.388,0.306 -0.388,0.304 -0.388,0.303 -0.388,0.302 -0.388,0.302 -0.388,0.3 -0.388,0.299 -0.388,0.299 -0.388,0.297 -0.388,0.296 -0.387,0.295 -0.388,0.293 -0.388,0.294 -0.388,0.291 -0.388,0.292 -0.388,0.29 -0.388,0.288 -0.387,0.288" /><path
       inkscape:connector-curvature="0"
       id="path184"
       style="fill:none;stroke:#000000;stroke-width:0.99975002;stroke-linecap:butt;stroke-linejoin:bevel;stroke-miterlimit:10;stroke-opacity:1;stroke-dasharray:none"
       d="m 124.843,165.454 -0.389,0.287" /><path
       inkscape:connector-curvature="0"
       id="path186"
       style="fill:none;stroke:#000000;stroke-width:2.09430099;stroke-linecap:butt;stroke-linejoin:bevel;stroke-miterlimit:10;stroke-opacity:1;stroke-dasharray:none"
       d="m 317.56511,31.582169 -0.40966,0.772587 -0.40966,0.771445 -0.40966,0.77103 -0.40967,0.770199 -0.4086,0.770199 -0.41072,0.769368 -0.40966,0.768538 -0.40861,0.768537 -0.40966,0.767811 -0.40966,0.76698 -0.40861,0.766877 -0.41071,0.766565 -0.40967,0.765319 -0.4086,0.764592 -0.40966,0.764904 -0.40966,0.763657 -0.40967,0.763347 -0.40966,0.763242 -0.40966,0.7621 -0.40966,0.761685 -0.40966,0.761685 -0.40861,0.760855 -0.41072,0.760127 -0.4086,0.760024 -0.40966,0.758466 -0.40966,0.758363 -0.40967,0.758466 -0.40966,0.757636 -0.40966,0.756805 -0.40966,0.755974 -0.40966,0.75639 -0.40861,0.755248 -0.40966,0.754728 -0.41072,0.754417 -0.4086,0.754002 -0.40967,0.752756 -0.40966,0.753171 -0.4086,0.75234 -0.40966,0.75151 -0.41072,0.751094 -0.40861,0.749953 -0.40966,0.750679 -0.40966,0.749122 -0.40966,0.749121 -0.40966,0.748292 -0.40967,0.748291 -0.40966,0.747876 -0.4086,0.746733 -0.40966,0.7458" /><path
       inkscape:connector-curvature="0"
       id="path188"
       style="fill:none;stroke:#000000;stroke-width:2.0002501;stroke-linecap:butt;stroke-linejoin:bevel;stroke-miterlimit:10;stroke-opacity:1;stroke-dasharray:none"
       d="m 297.451,68.8281 -0.388,0.7188 -0.388,0.7176 -0.388,0.7179 -0.388,0.7168 -0.388,0.7164 -0.388,0.7153 -0.387,0.7156 -0.389,0.7148 -0.388,0.7149 -0.387,0.7136 -0.388,0.7133 -0.388,0.7125 -0.388,0.7125 -0.388,0.7117 -0.388,0.7118 -0.387,0.7113 -0.388,0.7101 -0.388,0.7094 -0.389,0.7098 -0.387,0.7086 -0.388,0.7086 -0.388,0.7082 -0.387,0.707 -0.388,0.7074 -0.389,0.7059 -0.387,0.7062 -0.388,0.7051 -0.388,0.7051 -0.388,0.7051 -0.388,0.7035 -0.388,0.7035 -0.388,0.7035 -0.388,0.702 -0.387,0.7019 -0.388,0.702 -0.389,0.7012 -0.387,0.7003 -0.388,0.7 -0.388,0.6997 -0.387,0.6992 -0.388,0.6988 -0.389,0.6984 -0.388,0.6973 -0.387,0.6969 -0.388,0.6964 -0.388,0.697 -0.388,0.695 -0.388,0.696 -0.388,0.695" /><path
       inkscape:connector-curvature="0"
       id="path190"
       style="fill:none;stroke:#000000;stroke-width:2.0002501;stroke-linecap:butt;stroke-linejoin:bevel;stroke-miterlimit:10;stroke-opacity:1;stroke-dasharray:none"
       d="m 278.444,103.447 -0.387,0.694 -0.388,0.694 -0.388,0.693 -0.388,0.693 -0.388,0.692 -0.388,0.692 -0.388,0.692 -0.388,0.691 -0.388,0.691 -0.388,0.689 -0.388,0.69 -0.387,0.689 -0.388,0.689 -0.388,0.688 -0.388,0.688 -0.388,0.687 -0.388,0.686 -0.387,0.686 -0.388,0.686 -0.388,0.686 -0.389,0.685 -0.387,0.684 -0.388,0.684 -0.388,0.683 -0.387,0.683 -0.389,0.683 -0.388,0.682 -0.387,0.681 -0.388,0.682 -0.388,0.68 -0.388,0.68 -0.388,0.68 -0.388,0.679 -0.388,0.679 -0.388,0.679 -0.387,0.677 -0.388,0.678 -0.388,0.677 -0.388,0.676 -0.388,0.677 -0.388,0.675 -0.387,0.675 -0.389,0.675 -0.388,0.674 -0.388,0.674 -0.387,0.673 -0.388,0.673 -0.388,0.672 -0.388,0.673" /><path
       inkscape:connector-curvature="0"
       id="path192"
       style="fill:none;stroke:#000000;stroke-width:2.0002501;stroke-linecap:butt;stroke-linejoin:bevel;stroke-miterlimit:10;stroke-opacity:1;stroke-dasharray:none"
       d="m 259.438,136.916 -0.388,0.671 -0.388,0.671 -0.387,0.671 -0.388,0.669 -0.389,0.67 -0.387,0.67 -0.388,0.668 -0.388,0.668 -0.388,0.669 -0.388,0.667 -0.388,0.667 -0.388,0.666 -0.387,0.666 -0.388,0.666 -0.388,0.665 -0.388,0.665 -0.388,0.664 -0.388,0.664 -0.388,0.663 -0.388,0.663 -0.387,0.663 -0.389,0.662 -0.388,0.662 -0.387,0.661 -0.388,0.661 -0.388,0.66 -0.387,0.66 -0.389,0.659 -0.388,0.659 -0.387,0.659 -0.388,0.658 -0.388,0.657 -0.388,0.657 -0.388,0.657 -0.388,0.656 -0.388,0.657 -0.388,0.654 -0.387,0.656 -0.389,0.655 -0.387,0.654 -0.388,0.653 -0.388,0.653 -0.388,0.654 -0.388,0.652 -0.388,0.652 -0.388,0.651 -0.388,0.652 -0.387,0.65 -0.388,0.65" /><path
       inkscape:connector-curvature="0"
       id="path194"
       style="fill:none;stroke:#000000;stroke-width:2.0002501;stroke-linecap:butt;stroke-linejoin:bevel;stroke-miterlimit:10;stroke-opacity:1;stroke-dasharray:none"
       d="m 240.432,169.293 -0.389,0.65 -0.387,0.65 -0.388,0.648 -0.388,0.649 -0.387,0.648 -0.388,0.648 -0.389,0.647 -0.387,0.647 -0.388,0.647 -0.388,0.645 -0.388,0.646 -0.388,0.645 -0.388,0.644 -0.388,0.645 -0.387,0.644 -0.388,0.643 -0.388,0.643 -0.388,0.643 -0.388,0.642 -0.388,0.641 -0.388,0.642 -0.388,0.641 -0.387,0.64 -0.389,0.64 -0.388,0.64 -0.387,0.639 -0.388,0.639 -0.388,0.638 -0.387,0.638 -0.389,0.637 -0.388,0.637 -0.32,0.527" /><path
       inkscape:connector-curvature="0"
       id="path196"
       style="fill:none;stroke:#000000;stroke-width:1.00515211;stroke-linecap:butt;stroke-linejoin:bevel;stroke-miterlimit:10;stroke-opacity:1;stroke-dasharray:7.54052566, 4.52431539;stroke-dashoffset:0"
       d="m 316.94614,31.855068 -0.38999,0.632075 -0.38998,0.628957 -0.38999,0.626645 -0.38999,0.625337 -0.38898,0.622319 -0.39099,0.619907 -0.38998,0.617895 -0.38899,0.616386 -0.38998,0.612866 -0.38999,0.611258 -0.38898,0.608542 -0.39099,0.607335 -0.38999,0.604217 -0.38898,0.602609 -0.38998,0.59949 -0.38999,0.598284 -0.38998,0.595569 -0.38999,0.593959 -0.38999,0.591245 -0.38998,0.588931 -0.38999,0.586919 -0.38898,0.584506 -0.39099,0.582998 -0.38898,0.580986 -0.38999,0.577567 -0.38998,0.576259 -0.38999,0.574751 -0.38999,0.571935 -0.38998,0.570024 -0.38999,0.568113 -0.38998,0.5657 -0.38898,0.56409 -0.38999,0.561376 -0.39099,0.559464 -0.38898,0.557453 -0.38999,0.555844 -0.38998,0.553531 -0.38899,0.551519 -0.38998,0.550011 -0.39099,0.546893 -0.38898,0.545184 -0.38999,0.543775 -0.38999,0.541664 -0.38998,0.539049 -0.38999,0.537742 -0.38998,0.535931 -0.38999,0.533015 -0.38898,0.531908 -0.38999,0.529193 -0.38998,0.527987 -0.38999,0.526075 -0.38999,0.524064 -0.38998,0.522053 -0.38999,0.520544 -0.38998,0.518131 -0.38898,0.515817 -0.391,0.514209 -0.38998,0.513102 -0.38898,0.510689 -0.38999,0.509079 -0.38998,0.506867 -0.38999,0.505157 -0.38999,0.503246 -0.38998,0.501638 -0.38898,0.500128 -0.38999,0.497716 -0.38999,0.496206 -0.39099,0.494899 -0.38898,0.492687 -0.38998,0.490273 -0.38999,0.489469 -0.38898,0.487155 -0.38999,0.485948 -0.39099,0.483234 -0.38898,0.482026 -0.38999,0.480417 -0.38998,0.478909 -0.38999,0.476897 -0.38998,0.475691 -0.38999,0.472975 -0.38999,0.472271 -0.38998,0.470562 -0.38898,0.468349 -0.38999,0.467042 -0.39099,0.465533 -0.38898,0.46322 -0.38999,0.461912 -0.38998,0.460404 -0.38898,0.459298 -0.38999,0.456884 -0.39099,0.455678 -0.38999,0.454169 -0.38898,0.451755 -0.38998,0.45095 -0.38999,0.449845 -0.38999,0.447028 -0.38998,0.446727 -0.38999,0.444313 -0.38898,0.443508 -0.38998,0.441095 -0.38999,0.439687 -0.38999,0.439184 -0.38998,0.436469 -0.38999,0.436066 -0.38998,0.433653 -0.38999,0.432949 -0.38999,0.430535 -0.38998,0.430133 -0.38999,0.427418 -0.38898,0.427015 -0.38999,0.425506 -0.38998,0.423898 -0.38999,0.422289 -0.38998,0.421081 -0.38999,0.419976 -0.38898,0.417964 -0.38999,0.41726 -0.38998,0.415248 -0.39099,0.414445 -0.38899,0.412432 -0.38998,0.410925 -0.38999,0.410521 -0.38898,0.408612 -0.39099,0.407404 -0.38999,0.405795 -0.38898,0.404186 -0.38998,0.403482 -0.38999,0.402276 -0.38998,0.400364 -0.38999,0.399862 -0.38999,0.398353 -0.38998,0.396744 -0.38999,0.39604 -0.38898,0.394431 -0.38999,0.392822 -0.38998,0.391715 -0.38999,0.390205 -0.38998,0.3892 -0.38999,0.38921 -0.38898,0.38618 -0.39099,0.38618 -0.38999,0.38418 -0.38998,0.38417 -0.38898,0.38116 -0.38999,0.38115 -0.38999,0.38015 -0.38998,0.37915 -0.38999,0.37713 -0.38999,0.37613 -0.38898,0.37512 -0.38998,0.37411 -0.39099,0.37311 -0.38898,0.3711 -0.38999,0.3711 -0.38999,0.36909 -0.38998,0.36909 -0.38999,0.36707 -0.38998,0.36607 -0.38999,0.36507 -0.38898,0.36406 -0.38999,0.36305 -0.38998,0.36205 -0.38999,0.36104 -0.38999,0.36004 -0.38998,0.35802 -0.38999,0.35803 -0.38998,0.35702 -0.38898,0.35601 -0.391,0.354 -0.38998,0.35401 -0.38898,0.35299 -0.38999,0.35099 -0.38998,0.35098 -0.38899,0.34898 -0.39099,0.34998 -0.38998,0.34696 -0.38898,0.34596 -0.38999,0.34696 -0.38999,0.34495 -0.38998,0.34294 -0.38999,0.34294 -0.38998,0.34294 -0.38999,0.34093 -0.38999,0.33992 -0.38898,0.33892 -0.39099,0.33791 -0.38898,0.33791 -0.38999,0.3359 -0.38998,0.3359 -0.38999,0.33389 -0.38998,0.33388 -0.38999,0.33289 -0.38999,0.33187 -0.38998,0.33088 -0.38898,0.33087 -0.38999,0.32886 -0.39099,0.32886 -0.38898,0.32685 -0.38999,0.32785 -0.38998,0.32584 -0.38898,0.32484 -0.38999,0.32383 -0.39099,0.32383 -0.38898,0.32283 -0.38999,0.32182 -0.38998,0.32082 -0.38999,0.3198 -0.38999,0.31981 -0.38998,0.31881 -0.38999,0.31679 -0.38898,0.3178 -0.38998,0.31578 -0.38999,0.31579 -0.38999,0.31478 -0.38998,0.31478 -0.38999,0.31277 -0.38999,0.31176 -0.38998,0.31176 -0.38898,0.31177 -0.39099,0.30975 -0.38999,0.30975 -0.38898,0.30774 -0.38999,0.30875 -0.38998,0.30673 -0.38898,0.30674 -0.39099,0.30573 -0.38999,0.30472 -0.38898,0.30472 -0.38999,0.30372 -0.38998,0.30271 -0.39099,0.30272 -0.38899,0.3007 -0.38998,0.3007 -0.38999,0.3007 -0.38898,0.29969 -0.38998,0.2997 -0.391,0.29768 -0.38898,0.29668 -0.38998,0.29768 -0.38999,0.29668 -0.38998,0.29467 -0.38999,0.29467 -0.38999,0.29466 -0.38998,0.29366 -0.38999,0.29266" /><path
       inkscape:connector-curvature="0"
       id="path198"
       style="fill:none;stroke:#000000;stroke-width:1.04348397;stroke-linecap:butt;stroke-linejoin:bevel;stroke-miterlimit:10;stroke-opacity:1;stroke-dasharray:none"
       d="m 317.31341,31.463187 -0.40503,0.770475 -0.40504,0.768388 -0.40503,0.767239 -0.40504,0.765153 -0.40399,0.763901 -0.40609,0.76317 -0.40503,0.761082 -0.40399,0.759832 -0.40504,0.75743 -0.40504,0.757013 -0.404,0.754508 -0.40607,0.753778 -0.40505,0.752108 -0.40399,0.750439 -0.40503,0.74929 -0.40503,0.747204 -0.40504,0.745951 -0.40504,0.744385 -0.40504,0.742716 -0.40503,0.741985 -0.40505,0.739899 -0.40399,0.738646 -0.40607,0.736559 -0.404,0.735827 -0.40504,0.73416 -0.40504,0.731758 -0.40503,0.730923 -0.40504,0.729671 -0.40503,0.727689 -0.40504,0.727166 -0.40503,0.724871 -0.404,0.723096 -0.40505,0.722366 -0.40607,0.719966 -0.40399,0.719445 -0.40504,0.717878 -0.40504,0.715897 -0.40399,0.714538 -0.40504,0.712974 -0.40608,0.711826 -0.40399,0.709634 -0.40503,0.708487 -0.40504,0.707338 -0.40504,0.705983 -0.40504,0.703685 -0.40504,0.703165 -0.40504,0.701182 -0.40399,0.69951 -0.40503,0.69826" /><path
       inkscape:connector-curvature="0"
       id="path200"
       style="fill:none;stroke:#000000;stroke-width:0.99975002;stroke-linecap:butt;stroke-linejoin:bevel;stroke-miterlimit:10;stroke-opacity:1;stroke-dasharray:none"
       d="m 297.451,67.4535 -0.388,0.6676 -0.388,0.6668 -0.388,0.6644 -0.388,0.6637 -0.388,0.6621 -0.388,0.6602 -0.387,0.6594 -0.389,0.6574 -0.388,0.657 -0.387,0.6551 -0.388,0.6531 -0.388,0.6524 -0.388,0.6511 -0.388,0.6489 -0.388,0.6476 -0.387,0.6473 -0.388,0.6453 -0.388,0.6434 -0.389,0.6425 -0.387,0.6407 -0.388,0.6398 -0.388,0.6383 -0.387,0.6367 -0.388,0.6352 -0.389,0.6339 -0.387,0.6329 -0.388,0.6308 -0.388,0.6301 -0.388,0.6285 -0.388,0.627 -0.388,0.6253 -0.388,0.6239 -0.388,0.6226 -0.387,0.6219 -0.388,0.6199 -0.389,0.6184 -0.387,0.6172 -0.388,0.6156 -0.388,0.6148 -0.387,0.6129 -0.388,0.6121 -0.389,0.6098 -0.388,0.609 -0.387,0.6074 -0.388,0.6067 -0.388,0.6046 -0.388,0.6028 -0.388,0.6023 -0.388,0.6008" /><path
       inkscape:connector-curvature="0"
       id="path202"
       style="fill:none;stroke:#000000;stroke-width:0.99975002;stroke-linecap:butt;stroke-linejoin:bevel;stroke-miterlimit:10;stroke-opacity:1;stroke-dasharray:none"
       d="m 278.444,98.5207 -0.387,0.5992 -0.388,0.5977 -0.388,0.5964 -0.388,0.595 -0.388,0.594 -0.388,0.592 -0.388,0.591 -0.388,0.59 -0.388,0.588 -0.388,0.587 -0.388,0.586 -0.387,0.583 -0.388,0.583 -0.388,0.581 -0.388,0.581 -0.388,0.578 -0.388,0.578 -0.387,0.575 -0.388,0.575 -0.388,0.573 -0.389,0.572 -0.387,0.57 -0.388,0.569 -0.388,0.568 -0.387,0.566 -0.389,0.565 -0.388,0.564 -0.387,0.562 -0.388,0.561 -0.388,0.559 -0.388,0.559 -0.388,0.556 -0.388,0.556 -0.388,0.554 -0.388,0.553 -0.387,0.551 -0.388,0.55 -0.388,0.549 -0.388,0.547 -0.388,0.546 -0.388,0.545 -0.387,0.543 -0.389,0.542 -0.388,0.541 -0.388,0.539 -0.387,0.538 -0.388,0.536 -0.388,0.536 -0.388,0.534" /><path
       inkscape:connector-curvature="0"
       id="path204"
       style="fill:none;stroke:#000000;stroke-width:0.99975002;stroke-linecap:butt;stroke-linejoin:bevel;stroke-miterlimit:10;stroke-opacity:1;stroke-dasharray:none"
       d="m 259.438,126.275 -0.388,0.532 -0.388,0.531 -0.387,0.53 -0.388,0.528 -0.389,0.527 -0.387,0.527 -0.388,0.524 -0.388,0.524 -0.388,0.522 -0.388,0.52 -0.388,0.519 -0.388,0.518 -0.387,0.516 -0.388,0.516 -0.388,0.514 -0.388,0.513 -0.388,0.511 -0.388,0.51 -0.388,0.509 -0.388,0.507 -0.387,0.506 -0.389,0.505 -0.388,0.504 -0.387,0.501 -0.388,0.501 -0.388,0.5 -0.387,0.498 -0.389,0.497 -0.388,0.496 -0.387,0.494 -0.388,0.493 -0.388,0.492 -0.388,0.49 -0.388,0.489 -0.388,0.488 -0.388,0.487 -0.388,0.486 -0.387,0.483 -0.389,0.483 -0.387,0.482 -0.388,0.48 -0.388,0.478 -0.388,0.478 -0.388,0.476 -0.388,0.476 -0.388,0.474 -0.388,0.472 -0.387,0.471 -0.388,0.47" /><path
       inkscape:connector-curvature="0"
       id="path206"
       style="fill:none;stroke:#000000;stroke-width:0.99975002;stroke-linecap:butt;stroke-linejoin:bevel;stroke-miterlimit:10;stroke-opacity:1;stroke-dasharray:none"
       d="m 240.432,150.823 -0.389,0.469 -0.387,0.467 -0.388,0.467 -0.388,0.465 -0.387,0.464 -0.388,0.462 -0.389,0.462 -0.387,0.459 -0.388,0.459 -0.388,0.458 -0.388,0.456 -0.388,0.455 -0.388,0.454 -0.388,0.453 -0.387,0.451 -0.388,0.45 -0.388,0.449 -0.388,0.448 -0.388,0.447 -0.388,0.444 -0.388,0.444 -0.388,0.444 -0.387,0.441 -0.389,0.441 -0.388,0.439 -0.387,0.438 -0.388,0.437 -0.388,0.435 -0.387,0.435 -0.389,0.433 -0.388,0.432 -0.387,0.43 -0.388,0.43 -0.388,0.429 -0.389,0.427 -0.387,0.427 -0.388,0.424 -0.388,0.424 -0.387,0.423 -0.388,0.421 -0.389,0.42 -0.387,0.42 -0.388,0.418 -0.388,0.417 -0.388,0.416 -0.388,0.414 -0.388,0.414 -0.388,0.411 -0.388,0.412" /><text
       xml:space="preserve"
       style="font-size:9.17466068px;font-style:normal;font-weight:normal;line-height:125%;letter-spacing:0px;word-spacing:0px;fill:#000000;fill-opacity:1;stroke:none;font-family:Sans"
       x="34.808247"
       y="-28.266321"
       id="text3291"
       sodipodi:linespacing="125%"
       transform="scale(1,-1)"><tspan
         sodipodi:role="line"
         id="tspan3293"
         x="34.808247"
         y="-28.266321">0</tspan></text>
</g></svg>